<svg width="100" height="100" viewBox="0 0 100 100" fill="none" xmlns="http://www.w3.org/2000/svg">
<g clip-path="url(#clip0_523_18273)">
<rect width="100" height="100" rx="50" fill="#E4D1DC"/>
<path d="M53.2269 102.367L63.7273 99.1194L67.7019 117.351L76.2467 117.48L59.5589 124.141L53.2269 102.367Z" fill="#EE9CC4"/>
<path d="M6.7634 92.6271L47.9653 111.018L85.3488 85.7515L85.3475 85.7519L81.4898 41.6572L40.3261 23.7024L2.90551 48.5324L6.7634 92.6271Z" fill="#EE9CC4"/>
<path d="M60.0318 59.072C60.0318 59.072 59.2162 62.1315 55.4071 62.5172C51.598 62.903 50.509 60.0363 50.509 60.0363" stroke="#781B4E" stroke-width="1.75299"/>
<path d="M61.559 54.1872L61.1007 48.9482" stroke="#781B4E" stroke-width="1.75299"/>
<path d="M47.9377 55.3786L47.4794 50.1396" stroke="#781B4E" stroke-width="1.75299"/>
<path d="M70.8429 49.6792C70.8429 49.6792 71.393 55.9659 64.5823 56.5618C57.7717 57.1577 57.3133 51.9187 57.3133 51.9187L52.0744 52.377C52.0744 52.377 52.5327 57.616 45.7221 58.2119C38.9114 58.8077 38.3614 52.521 38.3614 52.521" stroke="#781B4E" stroke-width="1.75299"/>
</g>
<defs>
<clipPath id="clip0_523_18273">
<rect width="100" height="100" rx="50" fill="white"/>
</clipPath>
</defs>
</svg>
