<svg width="100" height="100" viewBox="0 0 100 100" fill="none" xmlns="http://www.w3.org/2000/svg">
<g clip-path="url(#clip0_523_18275)">
<rect width="100" height="100" rx="50" fill="#E4D2CE"/>
<g clip-path="url(#clip1_523_18275)">
<path d="M49.7155 109.431C74.4111 109.431 94.4309 89.4111 94.4309 64.7155C94.4309 40.0198 74.4111 20 49.7155 20C25.0198 20 5 40.0198 5 64.7155C5 89.4111 25.0198 109.431 49.7155 109.431Z" fill="#F26F3A"/>
<path d="M39.8781 42.6722C39.8781 42.6722 42.8117 40.0543 44.7968 40.66C45.7 40.9357 46.8089 42.0015 46.8089 42.0015" stroke="#791C0A" stroke-width="1.78862"/>
<path d="M60.2236 42.6722C60.2236 42.6722 57.2898 40.0543 55.3049 40.66C54.4016 40.9357 53.2927 42.0015 53.2927 42.0015" stroke="#791C0A" stroke-width="1.78862"/>
<path d="M39.4309 50.2996C39.4309 47.5937 41.9305 45.5704 44.61 45.9474C46.319 46.1878 48.1751 46.3818 49.7155 46.3818C51.2559 46.3818 53.112 46.1878 54.8211 45.9474C57.5004 45.5704 60 47.5937 60 50.2997V50.5163C60 52.3244 58.8544 53.9362 57.0975 54.3629C55.1681 54.8314 52.5227 55.3249 49.939 55.3249C47.3066 55.3249 44.4821 54.8126 42.4251 54.3364C40.6254 53.9197 39.4309 52.2828 39.4309 50.4355V50.2996Z" fill="#051042"/>
<path fill-rule="evenodd" clip-rule="evenodd" d="M55.3456 54.7474C53.7072 55.0674 51.8068 55.3253 49.939 55.3253C48.2983 55.3253 46.5829 55.1263 45.0252 54.861C44.8766 54.5126 44.7968 54.1431 44.7968 53.7603C44.7968 51.6612 47.1991 49.9595 50.1626 49.9595C53.1259 49.9595 55.5285 51.6612 55.5285 53.7603C55.5285 54.1017 55.465 54.4326 55.3456 54.7474Z" fill="#EE9CC4"/>
</g>
</g>
<defs>
<clipPath id="clip0_523_18275">
<rect width="100" height="100" rx="50" fill="white"/>
</clipPath>
<clipPath id="clip1_523_18275">
<rect width="89.4309" height="110" fill="white" transform="translate(5 20)"/>
</clipPath>
</defs>
</svg>
