<svg width="100" height="100" viewBox="0 0 100 100" fill="none" xmlns="http://www.w3.org/2000/svg">
<g clip-path="url(#clip0_523_18276)">
<rect width="100" height="100" rx="50" fill="#E7D9D1"/>
<g clip-path="url(#clip1_523_18276)">
<path d="M82.5761 107.559L101.22 51.6271L54.61 19L7.99987 51.6271L26.6439 107.559H82.5761Z" fill="#F8C811"/>
<path d="M61.4424 60.3283C61.4424 60.3283 59.9183 58.0741 59.8286 56.4282C59.7521 55.0221 60.6604 52.9194 60.6604 52.9194" stroke="#873F19" stroke-width="1.86441"/>
<path d="M39.1084 54.96C39.1084 54.96 46.1023 56.4997 50.6598 56.6852C54.3248 56.8343 60.0428 56.2552 60.0428 56.2552" stroke="#873F19" stroke-width="1.86441"/>
<path d="M55.082 42.2021L54.3099 49.1509" stroke="#873F19" stroke-width="1.86441"/>
<path d="M46.2258 41.27L45.4539 48.2188" stroke="#873F19" stroke-width="1.86441"/>
<path d="M63.699 48.8305C63.0555 48.8305 62.5337 48.3088 62.5337 47.6653C62.5337 47.0217 63.0555 46.5 63.699 46.5C64.3426 46.5 64.8643 47.0217 64.8643 47.6653C64.8643 48.3088 64.3426 48.8305 63.699 48.8305Z" fill="#873F19"/>
<path d="M66.0295 53.4916C65.386 53.4916 64.8643 52.9699 64.8643 52.3264C64.8643 51.6828 65.386 51.1611 66.0295 51.1611C66.6731 51.1611 67.1948 51.6828 67.1948 52.3264C67.1948 52.9699 66.6731 53.4916 66.0295 53.4916Z" fill="#873F19"/>
<path d="M68.8261 49.7626C68.1826 49.7626 67.6609 49.2409 67.6609 48.5974C67.6609 47.9538 68.1826 47.4321 68.8261 47.4321C69.4697 47.4321 69.9914 47.9538 69.9914 48.5974C69.9914 49.2409 69.4697 49.7626 68.8261 49.7626Z" fill="#873F19"/>
</g>
</g>
<defs>
<clipPath id="clip0_523_18276">
<rect width="100" height="100" rx="50" fill="white"/>
</clipPath>
<clipPath id="clip1_523_18276">
<rect width="93.2203" height="110" fill="white" transform="matrix(-1 0 0 1 101.22 19)"/>
</clipPath>
</defs>
</svg>
