<svg width="100" height="100" viewBox="0 0 100 100" fill="none" xmlns="http://www.w3.org/2000/svg">
<g clip-path="url(#clip0_523_18274)">
<rect width="100" height="100" rx="50" fill="#CCDCD4"/>
<circle cx="50" cy="50" r="50" fill="#CCDCD4"/>
<g clip-path="url(#clip1_523_18274)">
<path d="M52.7308 99L63.3077 99.8462L60.3462 117.615L67.9615 120.788H50.6152L52.7308 99Z" fill="#05A552"/>
<path d="M46.3844 99.2114L35.8075 100.058L38.769 117.827L31.1536 121H48.4998L46.3844 99.2114Z" fill="#05A552"/>
<path d="M50.2092 11L90.8077 100.269H9.99982L50.2092 11Z" fill="#05A552"/>
<path d="M40.2883 47.4077C40.2883 47.4077 46.5141 51.6475 46.2352 52.605C46.0212 53.3397 38.3578 53.6892 38.3578 53.6892" stroke="#005227" stroke-width="1.69231"/>
<path d="M59.8647 47.3845C59.8647 47.3845 53.9476 52.1853 54.1858 52.8733C54.424 53.5614 62.1075 53.5614 62.1075 53.5614" stroke="#005227" stroke-width="1.69231"/>
<path d="M40.8846 57.4379C40.8846 57.2597 41.029 57.1155 41.207 57.1155H59.1776C59.3557 57.1155 59.5 57.2597 59.5 57.4379C59.5 60.9985 56.6138 63.8847 53.0531 63.8847H47.3315C43.771 63.8847 40.8846 60.9985 40.8846 57.4379Z" fill="#051042"/>
<path d="M44.2693 57.1155H55.6923C55.6923 58.0501 54.9346 58.8078 54 58.8078H45.9616C45.0269 58.8078 44.2693 58.0501 44.2693 57.1155Z" fill="white"/>
</g>
</g>
<defs>
<clipPath id="clip0_523_18274">
<rect width="100" height="100" rx="50" fill="white"/>
</clipPath>
<clipPath id="clip1_523_18274">
<rect width="80.8077" height="110" fill="white" transform="translate(10 11)"/>
</clipPath>
</defs>
</svg>
