<svg width="350" height="600" viewBox="0 0 350 600" fill="none" xmlns="http://www.w3.org/2000/svg">
<g clip-path="url(#clip0_523_17855)">
<mask id="mask0_523_17855" style="mask-type:luminance" maskUnits="userSpaceOnUse" x="21" y="44" width="312" height="502">
<path d="M332.064 44H21.1758V546H332.064V44Z" fill="white"/>
</mask>
<g mask="url(#mask0_523_17855)">
<path d="M81.8825 502.82C81.8825 502.82 120.039 478.092 147.036 479.5C187.41 481.606 188.108 538.835 228.268 543.5C267.221 548.025 299.596 536.198 320.03 502.82C338.767 472.215 328.859 445.761 320.03 411C300.527 334.218 236.879 317.275 171.138 272.82C120.052 238.275 50.0327 258.953 30.7022 200.5C22.0554 174.353 18.5808 154.737 30.7022 130C44.938 100.949 68.137 81.7688 100.401 85.0001C125.207 87.4844 128.794 115.267 153.053 121C175.673 126.345 197.027 132.043 212.222 114.5C226.814 97.6537 197.731 74.4327 212.222 57.5C225.636 41.8244 263.87 46.0001 263.87 46.0001" stroke="#A3844B" stroke-width="2"/>
<path d="M81.8825 502.82C81.8825 502.82 120.039 478.092 147.036 479.5C187.41 481.606 188.108 538.835 228.268 543.5C267.221 548.025 299.596 536.198 320.03 502.82C338.767 472.215 328.859 445.761 320.03 411C300.527 334.218 236.879 317.275 171.138 272.82C120.052 238.275 50.0327 258.953 30.7022 200.5C22.0554 174.353 18.5808 154.737 30.7022 130C44.938 100.949 68.137 81.7688 100.401 85.0001C125.207 87.4844 128.794 115.267 153.053 121C175.673 126.345 197.027 132.043 212.222 114.5C226.814 97.6537 197.731 74.4327 212.222 57.5C225.636 41.8244 263.87 46.0001 263.87 46.0001" stroke="#A3844B" stroke-width="2"/>
</g>
<mask id="mask1_523_17855" style="mask-type:luminance" maskUnits="userSpaceOnUse" x="260" y="0" width="89" height="108">
<path d="M348.698 0H260.86V107.732H348.698V0Z" fill="white"/>
</mask>
<g mask="url(#mask1_523_17855)">
<path d="M304.78 87.5868C329.035 87.5868 348.698 67.9799 348.698 43.7934C348.698 19.607 329.035 0 304.78 0C280.524 0 260.86 19.607 260.86 43.7934C260.86 67.9799 280.524 87.5868 304.78 87.5868Z" fill="#F26F3A"/>
<path d="M304.779 85.1782L315.76 86.0541L312.685 104.447L320.59 107.732H302.584L304.779 85.1782Z" fill="#F26F3A"/>
<path d="M296.289 86.5236L286.137 82.2612L280.374 100.001L271.841 99.2877L287.825 107.554L296.289 86.5236Z" fill="#F26F3A"/>
<path d="M295.117 22.2048C295.117 22.2048 297.998 19.6409 299.948 20.2341C300.836 20.504 301.925 21.5479 301.925 21.5479" stroke="#791C0A" stroke-width="1.75174"/>
<path d="M315.1 22.2048C315.1 22.2048 312.219 19.6409 310.27 20.2341C309.382 20.504 308.293 21.5479 308.293 21.5479" stroke="#791C0A" stroke-width="1.75174"/>
<path d="M294.678 29.675C294.678 27.0249 297.133 25.0433 299.764 25.4125C301.443 25.648 303.266 25.838 304.779 25.838C306.292 25.838 308.115 25.648 309.794 25.4125C312.425 25.0433 314.88 27.0249 314.88 29.6751V29.8872C314.88 31.6581 313.755 33.2366 312.029 33.6545C310.135 34.1134 307.536 34.5967 304.998 34.5967C302.413 34.5967 299.639 34.0949 297.619 33.6285C295.851 33.2204 294.678 31.6173 294.678 29.8081V29.675Z" fill="#051042"/>
<path fill-rule="evenodd" clip-rule="evenodd" d="M310.31 34.031C308.7 34.3444 306.834 34.597 305 34.597C303.388 34.597 301.703 34.4021 300.173 34.1423C300.027 33.8011 299.948 33.4391 299.948 33.0642C299.948 31.0084 302.308 29.3418 305.219 29.3418C308.13 29.3418 310.489 31.0084 310.489 33.0642C310.489 33.3986 310.427 33.7227 310.31 34.031Z" fill="#EE9CC4"/>
</g>
<mask id="mask2_523_17855" style="mask-type:luminance" maskUnits="userSpaceOnUse" x="-1" y="475" width="114" height="125">
<path d="M83.3138 475.824L-1 500.384L28.0638 599.589L112.378 575.029L83.3138 475.824Z" fill="white"/>
</mask>
<g mask="url(#mask2_523_17855)">
<path d="M74.4473 563.109L83.9282 557.519L92.0409 574.32L100.399 572.464L85.6811 582.807L74.4473 563.109Z" fill="#F8C811"/>
<path d="M55.5199 569.73L44.5985 568.303L43.7575 586.931L35.3389 588.499L52.9496 592.244L55.5199 569.73Z" fill="#F8C811"/>
<path d="M39.2622 575.342L7.62109 529.81L41.1574 488.104L91.935 505.25L89.8504 560.605L39.2622 575.342Z" fill="#F8C811"/>
<path d="M45.8977 527.177C45.8977 527.177 46.6807 524.742 46.3269 523.234C46.0246 521.946 44.6475 520.289 44.6475 520.289" stroke="#873F19" stroke-width="1.75174"/>
<path d="M64.6789 516.451C64.6789 516.451 58.7602 519.683 54.6871 521.051C51.4116 522.151 46.0869 523.135 46.0869 523.135" stroke="#873F19" stroke-width="1.75174"/>
<path d="M46.8604 509.154L49.3947 515.217" stroke="#873F19" stroke-width="1.75174"/>
<path d="M54.624 505.98L57.1582 512.044" stroke="#873F19" stroke-width="1.75174"/>
<path d="M40.8183 517.402C41.4003 517.233 41.7344 516.625 41.5643 516.044C41.3943 515.464 40.7846 515.131 40.2025 515.3C39.6204 515.47 39.2864 516.078 39.4565 516.658C39.6264 517.239 40.2362 517.572 40.8183 517.402Z" fill="#873F19"/>
<path d="M39.9423 522.22C40.5243 522.05 40.8583 521.442 40.6883 520.862C40.5182 520.281 39.9086 519.948 39.3265 520.118C38.7445 520.287 38.4104 520.895 38.5805 521.476C38.7505 522.056 39.3602 522.389 39.9423 522.22Z" fill="#873F19"/>
<path d="M36.4276 519.594C37.0097 519.424 37.3436 518.816 37.1737 518.236C37.0036 517.655 36.3939 517.322 35.8119 517.492C35.2298 517.661 34.8958 518.269 35.0658 518.85C35.2358 519.43 35.8456 519.763 36.4276 519.594Z" fill="#873F19"/>
</g>
<path d="M250.258 41.0707C249.958 40.1466 250.366 39.1406 251.227 38.6856L273.331 27.0057C274.433 26.4239 275.793 26.9734 276.179 28.1551L282.448 47.4044C282.834 48.5861 282.056 49.8281 280.822 50.0025L256.053 53.503C255.088 53.6394 254.166 53.0647 253.865 52.1406L250.258 41.0707Z" fill="#345FAD"/>
<path d="M281.855 49.0484C283.172 48.6219 282.644 43.3792 280.677 37.3385C278.709 31.2979 276.047 26.7467 274.73 27.1732C273.413 27.5998 273.94 32.8424 275.907 38.8831C277.875 44.9237 280.537 49.4749 281.855 49.0484Z" fill="#051042"/>
<path d="M100.469 499.013C100.861 499.903 100.554 500.945 99.7426 501.482L78.9096 515.292C77.872 515.98 76.4631 515.568 75.9625 514.43L67.8077 495.896C67.3071 494.759 67.9571 493.446 69.1673 493.15L93.4653 487.216C94.4117 486.985 95.3878 487.465 95.7792 488.355L100.469 499.013Z" fill="#345FAD"/>
<path d="M68.236 494.202C66.968 494.757 68.0146 499.922 70.5737 505.738C73.1328 511.554 76.2352 515.819 77.5032 515.264C78.7712 514.709 77.7247 509.545 75.1655 503.729C72.6064 497.913 69.5041 493.647 68.236 494.202Z" fill="#051042"/>
</g>
<defs>
<clipPath id="clip0_523_17855">
<rect width="350" height="600" fill="white"/>
</clipPath>
</defs>
</svg>
