<svg width="332" height="150" viewBox="0 0 332 150" fill="none" xmlns="http://www.w3.org/2000/svg">
<path fill-rule="evenodd" clip-rule="evenodd" d="M328.337 0C331.11 17.6098 330.043 33.973 319.158 51.8033C309.071 68.3272 296.063 79.4814 280.796 85.9574C265.519 92.4377 247.92 94.2586 228.627 92.0111C209.321 89.762 199.38 75.0079 189.216 59.9243L188.921 59.4859C178.754 44.3999 168.259 29.0884 147.564 28.0058C133.84 27.288 117.405 33.2155 104.51 39.2301C98.0394 42.2482 92.4163 45.3094 88.4107 47.6161C86.4074 48.7697 84.8075 49.7352 83.7071 50.4132C83.1569 50.7523 82.7314 51.0195 82.4428 51.2024C82.2985 51.2938 82.1884 51.3642 82.114 51.412L82.0293 51.4665L82.0074 51.4807L82.0016 51.4844L82 51.4855C82 51.4855 81.9993 51.4859 82.5443 52.3244C83.0892 53.1629 83.0893 53.1628 83.0893 53.1628L83.0904 53.1621L83.095 53.1591L83.1146 53.1465L83.1945 53.095C83.2657 53.0493 83.3725 52.981 83.5134 52.8917C83.7953 52.7131 84.2135 52.4504 84.7562 52.116C85.8417 51.4472 87.4245 50.4919 89.4088 49.3492C93.3782 47.0634 98.9493 44.0306 105.355 41.0427C118.214 35.0453 134.262 29.3128 147.459 30.003C167.023 31.0264 177.005 45.3824 187.263 60.6036L187.744 61.3181C197.751 76.1755 208.169 91.6414 228.396 93.9977C247.945 96.2751 265.908 94.445 281.577 87.7986C297.256 81.1479 310.576 69.6996 320.865 52.8455C331.997 34.6102 333.115 17.7905 330.365 0H328.337Z" fill="#A3844B"/>
<mask id="mask0_523_17853" style="mask-type:luminance" maskUnits="userSpaceOnUse" x="0" y="25" width="114" height="125">
<path d="M84.0729 25.8237L0 50.3838L28.9808 149.589L113.054 125.029L84.0729 25.8237Z" fill="white"/>
</mask>
<g mask="url(#mask0_523_17853)">
<path d="M75.2305 113.109L84.6844 107.519L92.7739 124.32L101.108 122.464L86.4322 132.807L75.2305 113.109Z" fill="#F8C811"/>
<path d="M56.3578 119.73L45.4676 118.303L44.629 136.931L36.2344 138.499L53.7948 142.244L56.3578 119.73Z" fill="#F8C811"/>
<path d="M40.1464 125.342L8.5957 79.81L42.0362 38.104L92.6687 55.25L90.5901 110.605L40.1464 125.342Z" fill="#F8C811"/>
<path d="M46.7623 77.1771C46.7623 77.1771 47.543 74.7421 47.1902 73.2341C46.8888 71.9461 45.5156 70.2891 45.5156 70.2891" stroke="#873F19" stroke-width="1.75174"/>
<path d="M65.4901 66.4512C65.4901 66.4512 59.5883 69.6832 55.5268 71.0512C52.2607 72.1512 46.9512 73.1352 46.9512 73.1352" stroke="#873F19" stroke-width="1.75174"/>
<path d="M47.7227 59.1538L50.2498 65.2168" stroke="#873F19" stroke-width="1.75174"/>
<path d="M55.4648 55.98L57.9917 62.044" stroke="#873F19" stroke-width="1.75174"/>
<path d="M41.698 67.4018C42.2784 67.2328 42.6115 66.6248 42.4419 66.0438C42.2724 65.4638 41.6644 65.1308 41.084 65.2998C40.5036 65.4698 40.1705 66.0779 40.3401 66.6579C40.5096 67.2389 41.1176 67.5718 41.698 67.4018Z" fill="#873F19"/>
<path d="M40.825 72.2201C41.4054 72.0501 41.7384 71.4422 41.5689 70.8622C41.3993 70.2812 40.7914 69.9481 40.211 70.1181C39.6306 70.2871 39.2975 70.8952 39.4671 71.4762C39.6366 72.0562 40.2446 72.3891 40.825 72.2201Z" fill="#873F19"/>
<path d="M37.3201 69.5942C37.9005 69.4242 38.2335 68.8162 38.064 68.2362C37.8944 67.6552 37.2865 67.3222 36.7061 67.4922C36.1257 67.6612 35.7926 68.2691 35.9622 68.8501C36.1317 69.4301 36.7397 69.7632 37.3201 69.5942Z" fill="#873F19"/>
</g>
<path d="M101.179 49.0128C101.57 49.9028 101.264 50.9448 100.455 51.4818L79.6811 65.2918C78.6464 65.9798 77.2416 65.5678 76.7424 64.4298L68.6109 45.8958C68.1117 44.7588 68.7598 43.4458 69.9666 43.1498L94.1952 37.2159C95.1389 36.9849 96.1122 37.4649 96.5025 38.3549L101.179 49.0128Z" fill="#345FAD"/>
<path d="M69.0382 44.2023C67.7738 44.757 68.8174 49.9216 71.3692 55.7377C73.921 61.5538 77.0145 65.819 78.2789 65.2643C79.5433 64.7096 78.4997 59.545 75.9479 53.7289C73.3961 47.9127 70.3026 43.6476 69.0382 44.2023Z" fill="#051042"/>
</svg>
