<svg width="171" height="125" viewBox="0 0 171 125" fill="none" xmlns="http://www.w3.org/2000/svg">
<g clip-path="url(#clip0_499_17170)">
<path d="M124.462 92.3944C149.976 92.3944 170.659 71.7112 170.659 46.1972C170.659 20.6832 149.976 0 124.462 0C98.9478 0 78.2646 20.6832 78.2646 46.1972C78.2646 71.7112 98.9478 92.3944 124.462 92.3944Z" fill="#FBE180"/>
<path d="M124.462 89.8535L136.011 90.7775L132.778 110.18L141.093 113.645H122.152L124.462 89.8535Z" fill="#FBE180"/>
<path d="M115.53 91.2727L104.852 86.7764L98.7905 105.489L89.8135 104.737L106.628 113.457L115.53 91.2727Z" fill="#FBE180"/>
<path d="M114.299 23.4233C114.299 23.4233 117.33 20.7187 119.381 21.3445C120.314 21.6292 121.459 22.7304 121.459 22.7304" stroke="#4B2816" stroke-width="1.84789"/>
<path d="M135.318 23.4233C135.318 23.4233 132.287 20.7187 130.236 21.3445C129.303 21.6292 128.157 22.7304 128.157 22.7304" stroke="#4B2816" stroke-width="1.84789"/>
<path d="M113.837 31.304C113.837 28.5084 116.419 26.418 119.188 26.8075C120.953 27.0559 122.871 27.2564 124.462 27.2564C126.054 27.2564 127.971 27.0559 129.737 26.8075C132.505 26.418 135.088 28.5084 135.088 31.304V31.5278C135.088 33.3959 133.904 35.061 132.089 35.5019C130.096 35.986 127.363 36.4958 124.693 36.4958C121.974 36.4958 119.056 35.9665 116.93 35.4745C115.071 35.044 113.837 33.3529 113.837 31.4444V31.304Z" fill="#4B2816"/>
<path fill-rule="evenodd" clip-rule="evenodd" d="M130.278 35.8987C128.586 36.2293 126.622 36.4958 124.693 36.4958C122.997 36.4958 121.225 36.2902 119.616 36.0161C119.462 35.6562 119.38 35.2744 119.38 34.8789C119.38 32.7102 121.862 30.9521 124.924 30.9521C127.985 30.9521 130.467 32.7102 130.467 34.8789C130.467 35.2316 130.402 35.5735 130.278 35.8987Z" fill="#A3844B"/>
</g>
<g clip-path="url(#clip1_499_17170)">
<path d="M63.4149 96.9013L74.4163 93.2677L78.9718 112.404L87.9798 112.367L70.5259 119.723L63.4149 96.9013Z" fill="#A3844B"/>
<path d="M42.4738 99.4771L31.5716 95.5552L26.5147 114.565L17.5104 114.291L34.765 122.103L42.4738 99.4771Z" fill="#A3844B"/>
<path d="M24.5041 101.611L2.23612 47.5853L46.0866 12.1303L94.4093 41.1964L79.808 97.7781L24.5041 101.611Z" fill="#A3844B"/>
<path d="M42.163 53.4628C42.163 53.4628 43.5155 51.1295 43.4914 49.496C43.4707 48.1004 42.4285 46.0836 42.4285 46.0836" stroke="#FBE180" stroke-width="1.84789"/>
<path d="M63.879 46.6238C63.879 46.6238 57.0692 48.6256 52.5756 49.1214C48.962 49.52 43.2685 49.3392 43.2685 49.3392" stroke="#FBE180" stroke-width="1.84789"/>
<path d="M47.21 35.104L48.4496 41.9218" stroke="#FBE180" stroke-width="1.84789"/>
<path d="M55.9033 33.5752L57.1428 40.393" stroke="#FBE180" stroke-width="1.84789"/>
<path d="M39.1439 42.2489C39.7802 42.2048 40.2603 41.6532 40.2162 41.0169C40.1721 40.3805 39.6205 39.9004 38.9842 39.9446C38.3479 39.9887 37.8678 40.5403 37.9119 41.1766C37.956 41.8129 38.5076 42.293 39.1439 42.2489Z" fill="#FBE180"/>
<path d="M37.1595 47.0169C37.7959 46.9728 38.276 46.4212 38.2318 45.7849C38.1877 45.1486 37.6361 44.6685 36.9998 44.7126C36.3635 44.7567 35.8834 45.3083 35.9275 45.9446C35.9716 46.581 36.5232 47.0611 37.1595 47.0169Z" fill="#FBE180"/>
<path d="M34.1381 43.5218C34.7744 43.4777 35.2545 42.9261 35.2104 42.2898C35.1663 41.6535 34.6147 41.1734 33.9783 41.2175C33.342 41.2616 32.8619 41.8132 32.906 42.4495C32.9501 43.0859 33.5017 43.5659 34.1381 43.5218Z" fill="#FBE180"/>
</g>
<defs>
<clipPath id="clip0_499_17170">
<rect width="92.3944" height="113.645" fill="white" transform="translate(78.2646)"/>
</clipPath>
<clipPath id="clip1_499_17170">
<rect width="92.3944" height="109.025" fill="white" transform="translate(0 15.3247) rotate(-3.96506)"/>
</clipPath>
</defs>
</svg>
