<svg width="325" height="150" viewBox="0 0 325 150" fill="none" xmlns="http://www.w3.org/2000/svg">
<g clip-path="url(#clip0_523_17854)">
<path fill-rule="evenodd" clip-rule="evenodd" d="M189.619 57.6535C192.801 53.9251 197.503 51.3249 202.864 49.5434C208.217 47.7644 214.151 46.8267 219.706 46.3728C225.257 45.9192 230.398 45.9507 234.154 46.0962C236.031 46.1689 237.559 46.27 238.616 46.3526C239.145 46.394 239.555 46.4307 239.833 46.457C239.972 46.4701 240.077 46.4806 240.147 46.4878L240.226 46.496L240.244 46.498L240.249 46.4985H240.25L240.359 45.5045C240.467 44.5104 240.467 44.5103 240.467 44.5103L240.465 44.5101L240.459 44.5095L240.436 44.5071L240.351 44.4982C240.276 44.4905 240.165 44.4795 240.021 44.4659C239.734 44.4386 239.312 44.401 238.772 44.3587C237.692 44.2743 236.138 44.1716 234.231 44.0977C230.421 43.9501 225.196 43.9175 219.543 44.3794C213.895 44.841 207.79 45.7986 202.233 47.6454C196.684 49.4897 191.604 52.2459 188.098 56.3553C184.272 60.8381 183.334 65.7523 183.813 70.7799C184.284 75.7197 186.13 80.827 187.921 85.7814L187.956 85.8767C189.779 90.9199 191.536 95.8055 191.969 100.465C192.397 105.067 191.524 109.388 188.102 113.351C180.752 121.86 171.94 124.739 162.125 124.837C152.8 124.931 142.641 122.515 132.015 119.989L132.009 119.987C131.37 119.836 130.731 119.683 130.089 119.531C118.804 116.857 112.138 109.258 105.372 101.547C105.103 101.24 104.833 100.933 104.563 100.626C97.559 92.6594 90.2512 84.7945 77.4571 83.5095C44.7217 80.2216 21.2628 99.791 6.95857 129.065C3.38057 136.388 1.14994 143.271 0 150H2.02993C3.16731 143.547 5.32942 136.955 8.75552 129.943C22.8415 101.116 45.648 82.3247 77.2572 85.4995C89.1981 86.6988 96.0458 93.9673 103.061 101.946C103.361 102.288 103.661 102.63 103.962 102.973C110.654 110.607 117.708 118.652 129.628 121.477C130.297 121.636 130.966 121.795 131.634 121.954C142.178 124.462 152.565 126.933 162.145 126.837C172.403 126.735 181.813 123.692 189.615 114.658C193.468 110.198 194.427 105.299 193.961 100.28C193.501 95.3338 191.65 90.2143 189.854 85.2448L189.836 85.1968C188.013 80.1534 186.249 75.2615 185.804 70.5902C185.364 65.9752 186.22 61.6369 189.619 57.6535Z" fill="#A3844B"/>
<mask id="mask0_523_17854" style="mask-type:luminance" maskUnits="userSpaceOnUse" x="237" y="0" width="88" height="108">
<path d="M324.698 0H237.111V107.732H324.698V0Z" fill="white"/>
</mask>
<g mask="url(#mask0_523_17854)">
<path d="M280.905 87.5868C305.091 87.5868 324.698 67.9799 324.698 43.7934C324.698 19.607 305.091 0 280.905 0C256.718 0 237.111 19.607 237.111 43.7934C237.111 67.9799 256.718 87.5868 280.905 87.5868Z" fill="#F26F3A"/>
<path d="M280.904 85.1782L291.853 86.0541L288.787 104.447L296.67 107.732H278.715L280.904 85.1782Z" fill="#F26F3A"/>
<path d="M272.439 86.5236L262.316 82.2612L256.57 100.001L248.061 99.2877L264 107.554L272.439 86.5236Z" fill="#F26F3A"/>
<path d="M271.27 22.2048C271.27 22.2048 274.143 19.6409 276.087 20.2341C276.972 20.504 278.058 21.5479 278.058 21.5479" stroke="#791C0A" stroke-width="1.75174"/>
<path d="M291.196 22.2048C291.196 22.2048 288.323 19.6409 286.379 20.2341C285.494 20.504 284.408 21.5479 284.408 21.5479" stroke="#791C0A" stroke-width="1.75174"/>
<path d="M270.832 29.675C270.832 27.0249 273.28 25.0433 275.904 25.4125C277.578 25.648 279.396 25.838 280.904 25.838C282.413 25.838 284.231 25.648 285.905 25.4125C288.529 25.0433 290.977 27.0249 290.977 29.6751V29.8872C290.977 31.6581 289.855 33.2366 288.134 33.6545C286.245 34.1134 283.654 34.5967 281.123 34.5967C278.545 34.5967 275.779 34.0949 273.765 33.6285C272.002 33.2204 270.832 31.6173 270.832 29.8081V29.675Z" fill="#051042"/>
<path fill-rule="evenodd" clip-rule="evenodd" d="M286.42 34.031C284.815 34.3444 282.954 34.597 281.125 34.597C279.518 34.597 277.838 34.4021 276.312 34.1423C276.167 33.8011 276.088 33.4391 276.088 33.0642C276.088 31.0084 278.441 29.3418 281.344 29.3418C284.246 29.3418 286.599 31.0084 286.599 33.0642C286.599 33.3986 286.537 33.7227 286.42 34.031Z" fill="#EE9CC4"/>
</g>
<path d="M226.541 41.0707C226.241 40.1466 226.648 39.1406 227.507 38.6856L249.548 27.0057C250.646 26.4239 252.003 26.9734 252.387 28.1551L258.639 47.4044C259.023 48.5861 258.248 49.8281 257.017 50.0025L232.319 53.503C231.357 53.6394 230.437 53.0647 230.137 52.1406L226.541 41.0707Z" fill="#345FAD"/>
<path d="M258.047 49.0484C259.36 48.6219 258.834 43.3792 256.872 37.3385C254.91 31.2979 252.255 26.7467 250.942 27.1732C249.629 27.5998 250.154 32.8424 252.116 38.8831C254.078 44.9237 256.733 49.4749 258.047 49.0484Z" fill="#051042"/>
</g>
<defs>
<clipPath id="clip0_523_17854">
<rect width="325" height="150" fill="white"/>
</clipPath>
</defs>
</svg>
