<svg width="30" height="30" viewBox="0 0 30 30" fill="none" xmlns="http://www.w3.org/2000/svg">
<path fill-rule="evenodd" clip-rule="evenodd" d="M10.7969 14.8608C14.2469 11.3998 17.6189 8.02278 20.9129 4.72978C21.0853 4.54853 21.1814 4.30794 21.1814 4.05778C21.1814 3.80762 21.0853 3.56704 20.9129 3.38578C20.4464 2.86678 19.7084 2.91178 19.3724 3.26578C15.9584 6.68878 12.3869 10.2663 8.65787 13.9983C8.36187 14.2413 8.21387 14.5283 8.21387 14.8593C8.21387 15.1903 8.36187 15.4863 8.65787 15.7473L19.8824 26.7063C20.0979 26.904 20.3819 27.01 20.6742 27.0019C20.9665 26.9938 21.2442 26.8722 21.4484 26.6628C21.9854 26.1243 21.7784 25.5933 21.5354 25.3413C17.9502 21.8525 14.3702 18.3585 10.7954 14.8593" fill="#4B2816"/>
</svg>
