<svg width="44" height="44" viewBox="0 0 44 44" fill="none" xmlns="http://www.w3.org/2000/svg">
<path opacity="0.5" d="M25.6666 7.33325H18.3333C11.4194 7.33325 7.96239 7.33325 5.81451 9.48114C3.66663 11.629 3.66663 15.086 3.66663 21.9999C3.66663 28.9139 3.66663 32.3708 5.81451 34.5187C7.96239 36.6666 11.4194 36.6666 18.3333 36.6666H25.6666C32.5806 36.6666 36.0375 36.6666 38.1854 34.5187C40.3333 32.3708 40.3333 28.9139 40.3333 21.9999C40.3333 15.086 40.3333 11.629 38.1854 9.48114C36.0375 7.33325 32.5806 7.33325 25.6666 7.33325Z" fill="#A3844B"/>
<path d="M24.2916 16.4999C24.2916 15.7405 24.9072 15.1249 25.6666 15.1249H34.8333C35.5927 15.1249 36.2083 15.7405 36.2083 16.4999C36.2083 17.2593 35.5927 17.8749 34.8333 17.8749H25.6666C24.9072 17.8749 24.2916 17.2593 24.2916 16.4999Z" fill="#A3844B"/>
<path d="M26.125 21.9999C26.125 21.2405 26.7406 20.6249 27.5 20.6249H34.8333C35.5927 20.6249 36.2083 21.2405 36.2083 21.9999C36.2083 22.7593 35.5927 23.3749 34.8333 23.3749H27.5C26.7406 23.3749 26.125 22.7593 26.125 21.9999Z" fill="#A3844B"/>
<path d="M27.9583 27.4999C27.9583 26.7405 28.5739 26.1249 29.3333 26.1249H34.8333C35.5927 26.1249 36.2083 26.7405 36.2083 27.4999C36.2083 28.2593 35.5927 28.8749 34.8333 28.8749H29.3333C28.5739 28.8749 27.9583 28.2593 27.9583 27.4999Z" fill="#A3844B"/>
<path d="M16.5 20.1666C18.525 20.1666 20.1666 18.525 20.1666 16.4999C20.1666 14.4749 18.525 12.8333 16.5 12.8333C14.4749 12.8333 12.8333 14.4749 12.8333 16.4999C12.8333 18.525 14.4749 20.1666 16.5 20.1666Z" fill="#A3844B"/>
<path d="M16.5 31.1666C23.8333 31.1666 23.8333 29.525 23.8333 27.4999C23.8333 25.4749 20.55 23.8333 16.5 23.8333C12.4499 23.8333 9.16663 25.4749 9.16663 27.4999C9.16663 29.525 9.16663 31.1666 16.5 31.1666Z" fill="#A3844B"/>
</svg>
