<svg width="24" height="24" viewBox="0 0 24 24" fill="none" xmlns="http://www.w3.org/2000/svg">
<path d="M12 9.50006L11.464 10.0241C11.5338 10.0954 11.6172 10.1521 11.7093 10.1908C11.8013 10.2295 11.9002 10.2495 12 10.2495C12.0998 10.2495 12.1987 10.2295 12.2907 10.1908C12.3828 10.1521 12.4662 10.0954 12.536 10.0241L12 9.50006ZM10.515 14.3711C9.933 13.8771 9.349 13.3031 8.916 12.7111C8.475 12.1061 8.25 11.5621 8.25 11.1091H6.75C6.75 12.0251 7.185 12.8831 7.705 13.5951C8.234 14.3201 8.915 14.9791 9.543 15.5141L10.515 14.3711ZM8.25 11.1091C8.25 10.0021 8.745 9.42006 9.253 9.22906C9.771 9.03606 10.595 9.13906 11.464 10.0261L12.536 8.97706C11.38 7.79706 9.955 7.36506 8.728 7.82406C7.493 8.28606 6.75 9.54006 6.75 11.1091H8.25ZM14.457 15.5151C15.085 14.9811 15.766 14.3211 16.295 13.5971C16.815 12.8841 17.25 12.0261 17.25 11.1101H15.75C15.75 11.5631 15.525 12.1071 15.084 12.7121C14.651 13.3051 14.067 13.8781 13.486 14.3721L14.457 15.5151ZM17.25 11.1101C17.25 9.54006 16.507 8.28606 15.272 7.82406C14.045 7.36506 12.62 7.79606 11.464 8.97706L12.536 10.0271C13.405 9.13906 14.23 9.03606 14.746 9.22906C15.256 9.41906 15.75 10.0031 15.75 11.1101H17.25ZM9.543 15.5151C10.323 16.1781 10.943 16.7451 12 16.7451V15.2451C11.586 15.2451 11.383 15.1101 10.515 14.3711L9.543 15.5151ZM13.486 14.3721C12.617 15.1111 12.414 15.2451 12 15.2451V16.7451C13.057 16.7451 13.678 16.1781 14.457 15.5151L13.486 14.3721Z" fill="#FF4900"/>
<path d="M17 3.33801C15.4806 2.45874 13.7555 1.99712 12 2.00001C6.477 2.00001 2 6.47701 2 12C2 13.6 2.376 15.112 3.043 16.453C3.221 16.809 3.28 17.216 3.177 17.601L2.582 19.827C2.52307 20.0473 2.52312 20.2792 2.58216 20.4995C2.64119 20.7198 2.75712 20.9206 2.91831 21.0819C3.07951 21.2432 3.2803 21.3593 3.50053 21.4184C3.72075 21.4776 3.95267 21.4778 4.173 21.419L6.399 20.823C6.78538 20.7254 7.19414 20.7727 7.548 20.956C8.93095 21.6446 10.4551 22.002 12 22C17.523 22 22 17.523 22 12C22 10.179 21.513 8.47001 20.662 7.00001" stroke="#4B2816" stroke-width="1.5" stroke-linecap="round"/>
<path d="M7.5 11.1098C7.5 12.4778 8.819 13.9138 10.029 14.9428C10.852 15.6428 11.264 15.9928 12 15.9928C12.736 15.9928 13.148 15.6428 13.971 14.9428C15.181 13.9128 16.5 12.4778 16.5 11.1088C16.5 8.43179 14.025 7.43279 12 9.50079C9.975 7.43279 7.5 8.43279 7.5 11.1098Z" fill="#FF4900"/>
</svg>
