<svg width="170" height="36" viewBox="0 0 170 36" fill="none" xmlns="http://www.w3.org/2000/svg">
<g clip-path="url(#clip0_311_2026)">
<path d="M11.1 1.8501L12.9 22.3501H13.25L15.7 10.1501C16.3 7.18343 17.3333 4.9001 18.8 3.3001C20.3 1.66676 22.3 0.850098 24.8 0.850098C27.3 0.850098 29.2833 1.66676 30.75 3.3001C32.25 4.9001 33.3 7.18343 33.9 10.1501L36.35 22.3501H36.75L38.5 1.8501H49.5L47.25 23.3001C47.05 25.1668 46.7 26.8501 46.2 28.3501C45.7 29.8834 45.0333 31.1834 44.2 32.2501C43.3667 33.3168 42.3667 34.1334 41.2 34.7001C40.0333 35.3001 38.7 35.6001 37.2 35.6001C34.7 35.6001 32.6 34.7834 30.9 33.1501C29.2333 31.5501 28.1 29.2668 27.5 26.3001L25.05 14.1001H24.6L22.15 26.3001C21.55 29.2668 20.4 31.5501 18.7 33.1501C17.0333 34.7834 14.95 35.6001 12.45 35.6001C10.95 35.6001 9.61666 35.3001 8.44999 34.7001C7.28332 34.1334 6.28332 33.3168 5.44999 32.2501C4.61666 31.1834 3.94999 29.8834 3.44999 28.3501C2.94999 26.8501 2.59999 25.1668 2.39999 23.3001L0.149994 1.8501H11.1ZM64.4102 21.3501C64.8102 22.9834 65.5268 24.2668 66.5602 25.2001C67.6268 26.1334 68.9435 26.6001 70.5102 26.6001C71.8435 26.6001 72.9768 26.3334 73.9102 25.8001C74.8435 25.2334 75.4602 24.4501 75.7602 23.4501H87.8102C87.3435 25.1834 86.6268 26.7834 85.6602 28.2501C84.7268 29.7501 83.5435 31.0334 82.1102 32.1001C80.6768 33.2001 78.9935 34.0501 77.0602 34.6501C75.1602 35.2834 72.9935 35.6001 70.5602 35.6001C67.6268 35.6001 65.0268 35.1501 62.7602 34.2501C60.5268 33.3501 58.6435 32.1168 57.1102 30.5501C55.6102 28.9834 54.4768 27.1668 53.7102 25.1001C52.9435 23.0001 52.5602 20.7501 52.5602 18.3501C52.5602 15.9501 52.9268 13.7001 53.6602 11.6001C54.4268 9.5001 55.5435 7.66677 57.0102 6.1001C58.4768 4.53343 60.3102 3.3001 62.5102 2.4001C64.7435 1.5001 67.3268 1.0501 70.2602 1.0501C73.1935 1.0501 75.7602 1.5001 77.9602 2.4001C80.1935 3.3001 82.0435 4.53343 83.5102 6.1001C84.9768 7.66677 86.0768 9.5001 86.8102 11.6001C87.5768 13.7001 87.9602 15.9501 87.9602 18.3501C87.9602 18.8834 87.9268 19.4001 87.8602 19.9001C87.8268 20.3668 87.7768 20.8501 87.7102 21.3501H64.4102ZM70.2602 9.7501C68.7602 9.7501 67.5435 10.1668 66.6102 11.0001C65.7102 11.8001 65.0435 12.8501 64.6102 14.1501H75.8602C75.4268 12.8501 74.7602 11.8001 73.8602 11.0001C72.9602 10.1668 71.7602 9.7501 70.2602 9.7501ZM128.319 18.6501C127.886 21.6168 127.152 24.1668 126.119 26.3001C125.086 28.4334 123.819 30.1834 122.319 31.5501C120.819 32.9168 119.102 33.9168 117.169 34.5501C115.236 35.2168 113.152 35.5501 110.919 35.5501C108.686 35.5501 106.602 35.2168 104.669 34.5501C102.736 33.9168 101.019 32.9168 99.5191 31.5501C98.0191 30.1834 96.7525 28.4334 95.7191 26.3001C94.6858 24.1668 93.9525 21.6168 93.5191 18.6501L91.0191 1.8501H103.519L105.819 18.6501C106.152 21.0834 106.769 22.9668 107.669 24.3001C108.569 25.6001 109.652 26.2501 110.919 26.2501C112.186 26.2501 113.269 25.5834 114.169 24.2501C115.069 22.9168 115.686 21.0501 116.019 18.6501L118.319 1.8501H130.819L128.319 18.6501ZM145.709 21.3501C146.109 22.9834 146.826 24.2668 147.859 25.2001C148.926 26.1334 150.242 26.6001 151.809 26.6001C153.142 26.6001 154.276 26.3334 155.209 25.8001C156.142 25.2334 156.759 24.4501 157.059 23.4501H169.109C168.642 25.1834 167.926 26.7834 166.959 28.2501C166.026 29.7501 164.842 31.0334 163.409 32.1001C161.976 33.2001 160.292 34.0501 158.359 34.6501C156.459 35.2834 154.292 35.6001 151.859 35.6001C148.926 35.6001 146.326 35.1501 144.059 34.2501C141.826 33.3501 139.942 32.1168 138.409 30.5501C136.909 28.9834 135.776 27.1668 135.009 25.1001C134.242 23.0001 133.859 20.7501 133.859 18.3501C133.859 15.9501 134.226 13.7001 134.959 11.6001C135.726 9.5001 136.842 7.66677 138.309 6.1001C139.776 4.53343 141.609 3.3001 143.809 2.4001C146.042 1.5001 148.626 1.0501 151.559 1.0501C154.492 1.0501 157.059 1.5001 159.259 2.4001C161.492 3.3001 163.342 4.53343 164.809 6.1001C166.276 7.66677 167.376 9.5001 168.109 11.6001C168.876 13.7001 169.259 15.9501 169.259 18.3501C169.259 18.8834 169.226 19.4001 169.159 19.9001C169.126 20.3668 169.076 20.8501 169.009 21.3501H145.709ZM151.559 9.7501C150.059 9.7501 148.842 10.1668 147.909 11.0001C147.009 11.8001 146.342 12.8501 145.909 14.1501H157.159C156.726 12.8501 156.059 11.8001 155.159 11.0001C154.259 10.1668 153.059 9.7501 151.559 9.7501Z" fill="url(#paint0_linear_311_2026)"/>
</g>
<defs>
<linearGradient id="paint0_linear_311_2026" x1="-3.05383e-05" y1="18.0001" x2="133.5" y2="19.0001" gradientUnits="userSpaceOnUse">
<stop stop-color="#F8C811"/>
<stop offset="1" stop-color="#F26F3A"/>
</linearGradient>
<clipPath id="clip0_311_2026">
<rect width="170" height="36" fill="white"/>
</clipPath>
</defs>
</svg>
