<svg width="33" height="32" viewBox="0 0 33 32" fill="none" xmlns="http://www.w3.org/2000/svg">
<path d="M16.3333 29.3334C23.6971 29.3334 29.6667 23.3639 29.6667 16.0001C29.6667 8.63628 23.6971 2.66675 16.3333 2.66675C8.96954 2.66675 3 8.63628 3 16.0001C3 23.3639 8.96954 29.3334 16.3333 29.3334Z" fill="#AFAFAF"/>
<path d="M11.7667 12.5961C11.5173 9.81743 9.37468 7.2281 8.33334 6.28143L7.76001 5.7881C10.1595 3.7678 13.1966 2.66205 16.3333 2.66676C19.2853 2.66676 22.0133 3.62676 24.2213 5.2481C24.5333 6.1961 23.9387 8.1761 23.3147 9.12276C23.088 9.46543 22.576 9.8921 22.0133 10.2961C20.7467 11.2068 19.1467 11.6561 18.3333 13.3334C18.1301 13.7557 18.0906 14.2384 18.2227 14.6881C18.3027 14.9814 18.356 15.3001 18.356 15.6108C18.3587 16.6174 17.34 17.3441 16.3333 17.3334C13.7147 17.3054 12 15.1948 11.7667 12.5961ZM18.2493 24.3681C19.5667 21.8854 23.9573 21.8854 23.9573 21.8854C28.5333 21.8374 29.152 19.0588 29.5653 17.6548C29.2008 20.5629 27.8887 23.2702 25.8318 25.3581C23.775 27.4461 21.0877 28.7986 18.1853 29.2068C17.7547 28.3001 17.2453 26.2601 18.2493 24.3681Z" fill="#656565"/>
</svg>
