<svg width="32" height="32" viewBox="0 0 32 32" fill="none" xmlns="http://www.w3.org/2000/svg">
<path d="M2.66663 16.0001C2.66663 9.71475 2.66663 6.57208 4.61863 4.61875C6.57329 2.66675 9.71463 2.66675 16 2.66675C22.2853 2.66675 25.428 2.66675 27.38 4.61875C29.3333 6.57341 29.3333 9.71475 29.3333 16.0001C29.3333 22.2854 29.3333 25.4281 27.38 27.3801C25.4293 29.3334 22.2853 29.3334 16 29.3334C9.71463 29.3334 6.57196 29.3334 4.61863 27.3801C2.66663 25.4294 2.66663 22.2854 2.66663 16.0001Z" fill="#AFAFAF"/>
<path d="M10.6666 16H10.6786M16.0066 16H16.0173M21.3213 16H21.3333" stroke="#656565" stroke-width="2.66667" stroke-linecap="round" stroke-linejoin="round"/>
</svg>
