<svg width="32" height="32" viewBox="0 0 32 32" fill="none" xmlns="http://www.w3.org/2000/svg">
<path d="M16 17.3333C19.1947 17.3333 22.1 18.2586 24.2373 19.5613C25.304 20.2146 26.216 20.9813 26.8747 21.8146C27.5227 22.6359 28 23.6173 28 24.6666C28 25.7933 27.452 26.6813 26.6627 27.3146C25.916 27.9146 24.9307 28.3119 23.884 28.5893C21.78 29.1453 18.972 29.3333 16 29.3333C13.028 29.3333 10.22 29.1466 8.116 28.5893C7.06933 28.3119 6.084 27.9146 5.33733 27.3146C4.54667 26.6799 4 25.7933 4 24.6666C4 23.6173 4.47733 22.6359 5.12533 21.8146C5.784 20.9813 6.69467 20.2146 7.76267 19.5613C9.9 18.2586 12.8067 17.3333 16 17.3333Z" fill="#656565"/>
<path d="M16 2.66675C21.132 2.66675 24.34 8.22275 21.7733 12.6667C21.1882 13.6802 20.3467 14.5218 19.3332 15.1069C18.3198 15.692 17.1702 16.0001 16 16.0001C10.868 16.0001 7.65999 10.4441 10.2267 6.00008C10.8118 4.98664 11.6533 4.14507 12.6668 3.55995C13.6802 2.97483 14.8298 2.66678 16 2.66675Z" fill="#AFAFAF"/>
</svg>
