<svg width="32" height="32" viewBox="0 0 32 32" fill="none" xmlns="http://www.w3.org/2000/svg">
<path d="M11.3722 8.63785L12.2721 10.2505C13.0843 11.7057 12.7583 13.6148 11.4791 14.894C11.4791 14.894 11.4791 14.894 11.4791 14.894C11.479 14.8942 9.92767 16.4458 12.7407 19.2588C15.5529 22.071 17.1044 20.5216 17.1055 20.5204C17.1056 20.5204 17.1055 20.5204 17.1056 20.5204C18.3848 19.2413 20.2938 18.9152 21.7491 19.7274L23.3617 20.6274C25.5592 21.8538 25.8187 24.9355 23.8872 26.8671C22.7265 28.0278 21.3047 28.9309 19.7329 28.9905C17.0869 29.0908 12.5934 28.4211 8.08591 23.9136C3.57842 19.4061 2.90878 14.9126 3.00909 12.2667C3.06867 10.6949 3.97179 9.27303 5.13244 8.11238C7.064 6.18081 10.1458 6.44033 11.3722 8.63785Z" fill="#AFAFAF"/>
<path d="M15.8398 3.87313C15.9316 3.30613 16.4676 2.9215 17.0346 3.0133C17.0697 3.02001 17.1826 3.04112 17.2418 3.0543C17.3601 3.08065 17.5252 3.12122 17.731 3.18116C18.1425 3.30103 18.7174 3.4985 19.4075 3.81485C20.789 4.44822 22.6274 5.55618 24.5352 7.46396C26.443 9.37175 27.551 11.2102 28.1843 12.5917C28.5007 13.2818 28.6982 13.8567 28.818 14.2682C28.878 14.474 28.9185 14.6391 28.9449 14.7574C28.9581 14.8166 28.9677 14.8641 28.9744 14.8992L28.9824 14.9424C29.0742 15.5094 28.6931 16.0676 28.1261 16.1594C27.5607 16.2509 27.0281 15.8681 26.934 15.3038C26.9311 15.2887 26.9232 15.2479 26.9146 15.2095C26.8975 15.1327 26.8679 15.011 26.821 14.8499C26.7272 14.5277 26.5642 14.0489 26.2936 13.4586C25.753 12.2795 24.7809 10.6513 23.0644 8.93476C21.3479 7.21824 19.7197 6.24619 18.5406 5.70562C17.9503 5.43501 17.4715 5.27202 17.1493 5.17818C16.9882 5.13127 16.7858 5.0848 16.709 5.0677C16.1446 4.97365 15.7483 4.43851 15.8398 3.87313Z" fill="#656565"/>
<path fill-rule="evenodd" clip-rule="evenodd" d="M16.1535 8.65641C16.3113 8.10414 16.887 7.78434 17.4393 7.94214L17.1535 8.94213C17.4393 7.94214 17.4393 7.94214 17.4393 7.94214L17.4412 7.94271L17.4434 7.94332L17.448 7.94467L17.4587 7.94788L17.4862 7.95643C17.5071 7.96311 17.5332 7.97182 17.5643 7.98287C17.6266 8.00497 17.7089 8.0364 17.8099 8.07967C18.0119 8.16624 18.2879 8.29995 18.627 8.50062C19.3057 8.90231 20.2323 9.56955 21.3208 10.658C22.4093 11.7465 23.0765 12.6731 23.4782 13.3518C23.6789 13.6909 23.8126 13.9669 23.8992 14.1689C23.9424 14.2699 23.9739 14.3522 23.996 14.4145C24.007 14.4456 24.0157 14.4717 24.0224 14.4926L24.031 14.5201L24.0342 14.5308L24.0355 14.5355L24.0361 14.5376C24.0361 14.5376 24.0367 14.5396 23.0367 14.8253L24.0367 14.5396C24.1945 15.0919 23.8747 15.6675 23.3224 15.8253C22.7748 15.9817 22.2043 15.6687 22.0408 15.125L22.0357 15.1101C22.0283 15.0892 22.013 15.0482 21.9873 14.9883C21.936 14.8686 21.843 14.6727 21.6882 14.4112C21.379 13.8888 20.8206 13.0994 19.85 12.1288C18.8794 11.1582 18.09 10.5998 17.5676 10.2906C17.3061 10.1359 17.1102 10.0428 16.9905 9.9915C16.9306 9.96582 16.8896 9.95053 16.8688 9.94313L16.8538 9.93801C16.3102 9.77455 15.9971 9.204 16.1535 8.65641Z" fill="#656565"/>
</svg>
