<svg width="33" height="32" viewBox="0 0 33 32" fill="none" xmlns="http://www.w3.org/2000/svg">
<path fill-rule="evenodd" clip-rule="evenodd" d="M27.8028 14.0265L25.5148 20.8932C23.9014 25.7332 23.0934 28.1545 21.9108 28.8425C20.7854 29.4959 19.3948 29.4959 18.2708 28.8425C17.0868 28.1545 16.2801 25.7345 14.6668 20.8932C14.4068 20.1159 14.2774 19.7279 14.0601 19.4025C13.8487 19.0883 13.5783 18.818 13.2641 18.6065C12.9388 18.3892 12.5508 18.2599 11.7734 18.0012C6.93344 16.3879 4.51211 15.5799 3.82411 14.3972C3.50307 13.8441 3.33398 13.216 3.33398 12.5765C3.33398 11.937 3.50307 11.3089 3.82411 10.7559C4.51211 9.57319 6.93344 8.76653 11.7734 7.15186L18.6401 4.86386C24.6374 2.86386 27.6361 1.86386 29.2188 3.44786C30.8014 5.03186 29.8028 8.02786 27.8028 14.0265Z" fill="#AFAFAF"/>
<path d="M18.0614 14.536C17.8752 14.3474 17.7715 14.0926 17.773 13.8276C17.7745 13.5626 17.8811 13.3091 18.0694 13.1226L23.6828 7.57063C23.8723 7.38921 24.1255 7.28952 24.3878 7.29306C24.6501 7.2966 24.9005 7.40307 25.0851 7.58954C25.2696 7.776 25.3735 8.02752 25.3743 8.28986C25.3751 8.5522 25.2728 8.80436 25.0894 8.99197L19.4761 14.544C19.3827 14.6364 19.272 14.7095 19.1504 14.7591C19.0287 14.8087 18.8985 14.8338 18.7671 14.8331C18.6357 14.8324 18.5058 14.8057 18.3847 14.7547C18.2636 14.7038 18.1538 14.6294 18.0614 14.536Z" fill="#656565"/>
</svg>
