<svg width="32" height="32" viewBox="0 0 32 32" fill="none" xmlns="http://www.w3.org/2000/svg">
<path fill-rule="evenodd" clip-rule="evenodd" d="M27.136 14.0265L24.848 20.8932C23.2347 25.7332 22.4267 28.1545 21.244 28.8425C20.1187 29.4959 18.728 29.4959 17.604 28.8425C16.42 28.1545 15.6134 25.7345 14 20.8932C13.74 20.1159 13.6107 19.7279 13.3934 19.4025C13.1819 19.0883 12.9116 18.818 12.5974 18.6065C12.272 18.3892 11.884 18.2599 11.1067 18.0012C6.2667 16.3879 3.84536 15.5799 3.15736 14.3972C2.83633 13.8441 2.66724 13.216 2.66724 12.5765C2.66724 11.937 2.83633 11.3089 3.15736 10.7559C3.84536 9.57319 6.2667 8.76653 11.1067 7.15186L17.9734 4.86386C23.9707 2.86386 26.9694 1.86386 28.552 3.44786C30.1347 5.03186 29.136 8.02786 27.136 14.0265ZM17.3947 14.5372C17.2085 14.3486 17.1047 14.0939 17.1062 13.8289C17.1077 13.5639 17.2144 13.3103 17.4027 13.1239L23.016 7.57053C23.1094 7.47816 23.2201 7.4051 23.3418 7.35552C23.4634 7.30593 23.5937 7.2808 23.725 7.28154C23.8564 7.28228 23.9863 7.30889 24.1074 7.35985C24.2285 7.4108 24.3383 7.48511 24.4307 7.57853C24.5231 7.67194 24.5961 7.78263 24.6457 7.90428C24.6953 8.02593 24.7204 8.15615 24.7197 8.28752C24.7189 8.41888 24.6923 8.54881 24.6414 8.66989C24.5904 8.79097 24.5161 8.90083 24.4227 8.99319L18.8094 14.5452C18.716 14.6376 18.6053 14.7107 18.4836 14.7603C18.362 14.8099 18.2317 14.8351 18.1004 14.8343C17.969 14.8336 17.8391 14.807 17.718 14.756C17.5969 14.705 17.487 14.6306 17.3947 14.5372Z" fill="black"/>
</svg>
