<svg width="40" height="40" viewBox="0 0 40 40" fill="none" xmlns="http://www.w3.org/2000/svg">
<path d="M20 21.6499C23.9535 21.6499 27.5489 22.795 30.1938 24.4071C31.5139 25.2156 32.6425 26.1643 33.4576 27.1956C34.2595 28.212 34.8502 29.4264 34.8502 30.725C34.8502 32.1193 34.172 33.2182 33.1952 34.0019C32.2712 34.7444 31.0519 35.2361 29.7566 35.5793C27.1529 36.2674 23.6779 36.5 20 36.5C16.3222 36.5 12.8472 36.269 10.2435 35.5793C8.94824 35.2361 7.72888 34.7444 6.80487 34.0019C5.82641 33.2165 5.1499 32.1193 5.1499 30.725C5.1499 29.4264 5.74061 28.212 6.54252 27.1956C7.35762 26.1643 8.48459 25.2156 9.80625 24.4071C12.4512 22.795 16.0483 21.6499 20 21.6499Z" fill="#AFAFAF"/>
<path d="M19.9999 3.5C26.3508 3.5 30.3207 10.3756 27.1444 15.8751C26.4203 17.1293 25.3789 18.1707 24.1248 18.8948C22.8706 19.6189 21.448 20.0001 19.9999 20.0002C13.6489 20.0002 9.67901 13.1245 12.8553 7.62504C13.5794 6.3709 14.6208 5.32945 15.8749 4.60535C17.1291 3.88126 18.5517 3.50004 19.9999 3.5Z" fill="#AFAFAF"/>
</svg>
