<svg width="40" height="40" viewBox="0 0 40 40" fill="none" xmlns="http://www.w3.org/2000/svg">
<path fill-rule="evenodd" clip-rule="evenodd" d="M11.2 17.6666L13.5983 19.6666C16.6583 22.2166 18.19 23.4916 19.9983 23.4916C21.81 23.4916 23.34 22.2166 26.4017 19.6649L28.8017 17.6649C29.39 17.1749 29.685 16.9283 29.8417 16.5933C30 16.2566 30 15.8733 30 15.1049V11.6666C30 11.1333 29.9989 10.6344 29.9967 10.1699C29.9767 7.21825 29.8333 5.60825 28.78 4.55325C27.5583 3.33325 25.595 3.33325 21.6667 3.33325H18.3333C14.405 3.33325 12.44 3.33325 11.22 4.55325C10.165 5.60825 10.02 7.21825 10 10.1699V15.1049C10 15.8716 10 16.2566 10.1567 16.5933C10.315 16.9283 10.6117 17.1749 11.2 17.6666ZM15.4167 9.99992C15.4167 9.6684 15.5484 9.35046 15.7828 9.11604C16.0172 8.88161 16.3351 8.74992 16.6667 8.74992H23.3333C23.6649 8.74992 23.9828 8.88161 24.2172 9.11604C24.4516 9.35046 24.5833 9.6684 24.5833 9.99992C24.5833 10.3314 24.4516 10.6494 24.2172 10.8838C23.9828 11.1182 23.6649 11.2499 23.3333 11.2499H16.6667C16.3351 11.2499 16.0172 11.1182 15.7828 10.8838C15.5484 10.6494 15.4167 10.3314 15.4167 9.99992ZM17.0833 14.9999C17.0833 14.6684 17.215 14.3505 17.4495 14.116C17.6839 13.8816 18.0018 13.7499 18.3333 13.7499H21.6667C21.9982 13.7499 22.3161 13.8816 22.5505 14.116C22.785 14.3505 22.9167 14.6684 22.9167 14.9999C22.9167 15.3314 22.785 15.6494 22.5505 15.8838C22.3161 16.1182 21.9982 16.2499 21.6667 16.2499H18.3333C18.0018 16.2499 17.6839 16.1182 17.4495 15.8838C17.215 15.6494 17.0833 15.3314 17.0833 14.9999Z" fill="#F26F3A"/>
<path d="M13.5985 19.6666L11.1985 17.6666C10.6102 17.1749 10.3152 16.9299 10.1568 16.5933C9.9985 16.2566 10.0002 15.8733 10.0002 15.1066V10.1699C7.8335 10.3833 6.37516 10.8649 5.28683 11.9533C3.3335 13.9049 3.3335 17.0499 3.3335 23.3366C3.3335 29.6199 3.3335 32.7633 5.28683 34.7149C7.24016 36.6666 10.3818 36.6699 16.6668 36.6699H23.3335C29.6185 36.6699 32.7618 36.6699 34.7135 34.7166C36.6652 32.7633 36.6668 29.6216 36.6668 23.3366C36.6668 17.0516 36.6668 13.9066 34.7135 11.9533C33.6252 10.8649 32.1652 10.3833 29.9968 10.1699C29.9991 10.6366 30.0002 11.1366 30.0002 11.6699V15.1083C30.0002 15.8749 30.0002 16.2583 29.8418 16.5949C29.6852 16.9316 29.3918 17.1783 28.8002 17.6683L26.4002 19.6683C23.3402 22.2183 21.8102 23.4933 20.0002 23.4933C18.1902 23.4933 16.6585 22.2166 13.5985 19.6666Z" fill="#F8C811"/>
</svg>
