<svg width="40" height="40" viewBox="0 0 40 40" fill="none" xmlns="http://www.w3.org/2000/svg">
<path d="M3.5 19.9998C3.5 12.2223 3.5 8.33276 5.915 5.91476C8.3345 3.49976 12.224 3.49976 20 3.49976C27.776 3.49976 31.667 3.49976 34.085 5.91476C36.5 8.33426 36.5 12.2238 36.5 19.9998C36.5 27.7758 36.5 31.6668 34.085 34.0848C31.6655 36.4998 27.776 36.4998 20 36.4998C12.224 36.4998 8.333 36.4998 5.915 34.0848C3.5 31.6653 3.5 27.7758 3.5 19.9998Z" fill="#AFAFAF"/>
<path d="M22.8893 23.4533C23.2568 23.1668 23.5898 22.8338 24.2573 22.1663L32.5673 13.8563C32.7683 13.6553 32.6768 13.3088 32.4083 13.2158C31.1094 12.76 29.9301 12.017 28.9583 11.0423C27.9829 10.0705 27.2395 8.89125 26.7833 7.59226C26.6918 7.32226 26.3453 7.23226 26.1443 7.43326L17.8343 15.7433C17.1668 16.4093 16.8338 16.7438 16.5473 17.1113C16.2084 17.5441 15.9182 18.0129 15.6818 18.5093C15.4823 18.9293 15.3323 19.3778 15.0353 20.2718L14.6498 21.4268L14.0363 23.2658L13.4633 24.9878C13.3917 25.2034 13.3815 25.4347 13.4338 25.6558C13.4861 25.8769 13.5988 26.0792 13.7594 26.2399C13.92 26.4006 14.1221 26.5136 14.3432 26.5661C14.5642 26.6186 14.7955 26.6086 15.0113 26.5373L16.7363 25.9628L18.5723 25.3508L19.7273 24.9653C20.6228 24.6668 21.0698 24.5183 21.4898 24.3173C21.9878 24.0803 22.4543 23.7923 22.8893 23.4533ZM35.1698 11.2553C36.0217 10.4035 36.5004 9.24823 36.5005 8.04354C36.5007 6.83885 36.0223 5.68345 35.1705 4.83151C34.3188 3.97957 33.1635 3.50087 31.9588 3.50073C30.7541 3.50059 29.5987 3.97902 28.7468 4.83076L28.4783 5.09776C28.3511 5.22301 28.2564 5.37746 28.2025 5.54765C28.1487 5.71785 28.1373 5.89864 28.1693 6.07426C28.2098 6.29926 28.2848 6.62926 28.4213 7.02376C28.7886 8.0768 29.3908 9.03243 30.1823 9.81826C30.9677 10.6095 31.9228 11.2117 32.9753 11.5793C33.3698 11.7143 33.6998 11.7908 33.9248 11.8313C34.2848 11.8958 34.6448 11.7788 34.9028 11.5208L35.1698 11.2553Z" fill="#656565"/>
</svg>
