<svg width="40" height="40" viewBox="0 0 40 40" fill="none" xmlns="http://www.w3.org/2000/svg">
<path d="M3.5 20.3368C3.5 16.56 3.5 14.6724 4.358 13.1082C5.2127 11.5423 6.77855 10.5721 9.9086 8.62844L13.2086 6.58079C16.5168 4.52654 18.1718 3.50024 20 3.50024C21.8282 3.50024 23.4815 4.52654 26.7914 6.58079L30.0914 8.62844C33.2214 10.5721 34.7873 11.5423 35.6437 13.1082C36.5 14.674 36.5 16.56 36.5 20.3352V22.8465C36.5 29.2815 36.5 32.5006 34.5662 34.5004C32.6324 36.5002 29.5222 36.5002 23.3 36.5002H16.7C10.4778 36.5002 7.36595 36.5002 5.4338 34.5004C3.50165 32.5006 3.5 29.2831 3.5 22.8465V20.3368Z" fill="#F8C811"/>
<path d="M18.7627 29.8999C18.7627 30.2281 18.8931 30.5429 19.1252 30.7749C19.3572 31.007 19.672 31.1374 20.0002 31.1374C20.3284 31.1374 20.6432 31.007 20.8752 30.7749C21.1073 30.5429 21.2377 30.2281 21.2377 29.8999V24.9499C21.2377 24.6217 21.1073 24.3069 20.8752 24.0749C20.6432 23.8428 20.3284 23.7124 20.0002 23.7124C19.672 23.7124 19.3572 23.8428 19.1252 24.0749C18.8931 24.3069 18.7627 24.6217 18.7627 24.9499V29.8999Z" fill="#F26F3A"/>
</svg>
