<svg width="100" height="100" viewBox="0 0 100 100" fill="none" xmlns="http://www.w3.org/2000/svg">
<g clip-path="url(#clip0_523_18277)">
<rect width="100" height="100" rx="50" fill="#CDCFD9"/>
<g clip-path="url(#clip1_523_18277)">
<path d="M24.6557 98.8303L34.2601 99.5987L31.5709 115.734L38.4861 118.615H22.7348L24.6557 98.8303Z" fill="#345FAD"/>
<path d="M39.0386 99.8183L47.9188 96.0791L52.9592 111.641L60.4246 111.016L46.4417 118.266L39.0386 99.8183Z" fill="#345FAD"/>
<path d="M78.6669 27.0718L2.07175 21L-4.00003 97.5951L72.5951 103.667L78.6669 27.0718Z" fill="#345FAD"/>
<path d="M44.7759 46.9518L44.4743 41.197" stroke="#051042" stroke-width="1.53671"/>
<path d="M52.449 46.5492L52.1475 40.7944" stroke="#051042" stroke-width="1.53671"/>
<path d="M38.0009 49.8072L59.8691 48.6611C62.0055 48.5492 63.8407 50.1207 64.0862 52.2158C63.9694 52.1878 63.8203 52.1544 63.6544 52.1218C63.2625 52.0451 62.7581 51.9701 62.3508 51.9934C61.9505 52.0164 61.6516 52.1368 61.3804 52.246L61.3654 52.2522C61.0896 52.3631 60.8406 52.4609 60.5037 52.4749C60.1833 52.4883 59.939 52.4195 59.6681 52.3408L59.6535 52.3366C59.3869 52.2591 59.093 52.1736 58.7119 52.1842C58.2763 52.1962 57.9513 52.3229 57.6539 52.4388L57.6504 52.4402C57.3519 52.5566 57.0811 52.6613 56.7169 52.6734C56.3857 52.6844 56.1329 52.6137 55.854 52.5352L55.8506 52.5342C55.5724 52.456 55.2689 52.3705 54.8736 52.3853C54.4479 52.4013 54.131 52.5253 53.8409 52.6388L53.8375 52.6402C53.5463 52.7542 53.2824 52.8568 52.9262 52.872C52.587 52.8866 52.3273 52.8147 52.0411 52.7348L52.0372 52.7338C51.7522 52.6542 51.4402 52.5672 51.0349 52.5865C50.62 52.6062 50.3111 52.7277 50.0284 52.8389L50.0249 52.8403C49.741 52.9519 49.4836 53.0525 49.1359 53.0707C48.7886 53.0889 48.522 53.0158 48.2281 52.9344L48.2243 52.9334C47.9315 52.8524 47.6115 52.7638 47.1966 52.7876C46.7917 52.8108 46.4909 52.9299 46.2154 53.0389L46.212 53.0403C45.9353 53.1497 45.6845 53.2483 45.3456 53.2693C44.9899 53.2914 44.7167 53.2169 44.4152 53.134L44.4113 53.133C44.1113 53.0505 43.7832 52.9602 43.3583 52.9888C42.968 53.0151 42.6768 53.133 42.4128 53.2401L42.3982 53.246C42.1301 53.3547 41.8873 53.4506 41.5588 53.4678C41.2303 53.485 40.9791 53.415 40.7009 53.335L40.686 53.3306C40.412 53.2518 40.1101 53.1648 39.7194 53.1795C39.2941 53.1955 38.9768 53.3196 38.6871 53.433L38.6832 53.4344C38.392 53.5484 38.1281 53.651 37.7724 53.6662C37.4327 53.6808 37.173 53.6089 36.8868 53.529L36.8834 53.528C36.5979 53.4484 36.286 53.3614 35.8811 53.3806C35.4734 53.4 34.9794 53.5273 34.5979 53.6446C34.4362 53.6943 34.2918 53.7432 34.1783 53.7832C34.2037 51.6739 35.8645 49.9192 38.0009 49.8072Z" fill="#051042" stroke="#051042" stroke-width="0.384177"/>
<path d="M49.1771 50.1831C50.4484 50.1165 51.4475 49.4613 51.4086 48.7197C51.3697 47.9781 50.3076 47.4309 49.0363 47.4975C47.765 47.5642 46.7659 48.2193 46.8048 48.9609C46.8437 49.7025 47.9058 50.2497 49.1771 50.1831Z" fill="#EE9CC4"/>
</g>
</g>
<defs>
<clipPath id="clip0_523_18277">
<rect width="100" height="100" rx="50" fill="white"/>
</clipPath>
<clipPath id="clip1_523_18277">
<rect width="82.9822" height="97.9651" fill="white" transform="translate(-4 21)"/>
</clipPath>
</defs>
</svg>
