<svg width="81" height="81" viewBox="0 0 81 81" fill="none" xmlns="http://www.w3.org/2000/svg">
<path d="M62.2786 22.2321C62.721 22.1524 63.1762 22.181 63.6052 22.3156C64.0341 22.4501 64.4242 22.6865 64.7419 23.0045C65.0596 23.3226 65.2956 23.7129 65.4297 24.142C65.5638 24.5711 65.592 25.0263 65.5118 25.4687C64.2012 24.6506 63.0953 23.5435 62.2786 22.2321Z" fill="#FFFBEE"/>
<path d="M57.234 10.1959C54.5272 10.125 51.4492 10.125 47.9257 10.125H33.0757C19.0762 10.125 12.0731 10.125 7.72611 14.5732C3.37911 19.0215 3.37573 26.1833 3.37573 40.5C3.37573 54.8167 3.37573 61.9785 7.72611 66.4267C12.0765 70.875 19.0762 70.875 33.0757 70.875H47.9257C61.9252 70.875 68.9284 70.875 73.2754 66.4267C77.6224 61.9785 77.6257 54.8167 77.6257 40.5C77.6257 36.8989 77.6257 33.75 77.5582 30.9825C75.4847 32.0238 73.196 32.5648 70.8757 32.562C62.4889 32.562 55.6882 25.6095 55.6882 17.0269C55.6882 14.5766 56.2451 12.258 57.234 10.1959Z" fill="#FBE180"/>
<path d="M80.9991 16.875C80.9991 19.5603 79.9323 22.1356 78.0335 24.0345C76.1347 25.9333 73.5594 27 70.8741 27C68.1888 27 65.6134 25.9333 63.7146 24.0345C61.8158 22.1356 60.7491 19.5603 60.7491 16.875C60.7491 14.1897 61.8158 11.6143 63.7146 9.71554C65.6134 7.81674 68.1888 6.75 70.8741 6.75C73.5594 6.75 76.1347 7.81674 78.0335 9.71554C79.9323 11.6143 80.9991 14.1897 80.9991 16.875ZM58.1638 25.191L52.9764 29.511C49.5137 32.4 47.1107 34.3946 45.0789 35.7007C43.1147 36.9664 41.7816 37.3882 40.4991 37.3882C39.2166 37.3882 37.8868 36.9664 35.9192 35.7007C33.8908 34.398 31.4844 32.4 28.0217 29.511L20.0061 22.8319C19.4386 22.3593 18.7066 22.1314 17.9711 22.1985C17.2356 22.2656 16.5569 22.6221 16.0843 23.1896C15.6117 23.7571 15.3839 24.4891 15.451 25.2246C15.5181 25.9601 15.8746 26.6388 16.4421 27.1114L24.5961 33.9086C27.8867 36.6491 30.5529 38.8699 32.9087 40.3886C35.3589 41.9614 37.7484 42.9604 40.5024 42.9604C43.2497 42.9604 45.6392 41.9614 48.0928 40.3852C50.4452 38.8732 53.1114 36.6491 56.4021 33.9052L62.0248 29.2207C60.5 28.1275 59.1908 26.7612 58.1638 25.191Z" fill="#FFFBEE"/>
</svg>
