<svg width="41" height="41" viewBox="0 0 41 41" fill="none" xmlns="http://www.w3.org/2000/svg">
<path opacity="0.5" d="M20.7812 38C30.4465 38 38.2812 30.1653 38.2812 20.5C38.2812 10.8348 30.4465 3 20.7812 3C11.116 3 3.28125 10.8348 3.28125 20.5C3.28125 23.3 3.93925 25.946 5.1065 28.2927C5.418 28.9158 5.52125 29.628 5.341 30.3018L4.29975 34.1973C4.19662 34.5828 4.19672 34.9886 4.30002 35.3741C4.40333 35.7595 4.60621 36.1111 4.8883 36.3933C5.17039 36.6756 5.52177 36.8787 5.90717 36.9822C6.29257 37.0858 6.69842 37.0861 7.084 36.9833L10.9795 35.9403C11.6557 35.7694 12.371 35.8522 12.9902 36.173C15.4104 37.378 18.0777 38.0035 20.7812 38Z" fill="#A3844B"/>
<path d="M13.2812 19.0166C13.2812 21.2966 15.4796 23.69 17.4963 25.405C18.8679 26.5716 19.5546 27.155 20.7812 27.155C22.0079 27.155 22.6946 26.5716 24.0662 25.405C26.0829 23.6883 28.2812 21.2966 28.2812 19.015C28.2812 14.5533 24.1562 12.8883 20.7812 16.335C17.4062 12.8883 13.2812 14.555 13.2812 19.0166Z" fill="#A3844B"/>
</svg>
