<svg width="81" height="81" viewBox="0 0 81 81" fill="none" xmlns="http://www.w3.org/2000/svg">
<path fill-rule="evenodd" clip-rule="evenodd" d="M22.68 35.7752L27.5366 39.8252C33.7331 44.989 36.8347 47.5709 40.4966 47.5709C44.1652 47.5709 47.2635 44.989 53.4634 39.8219L58.3234 35.7719C59.5148 34.7796 60.1121 34.2801 60.4294 33.6017C60.75 32.92 60.75 32.1437 60.75 30.5879V23.6252C60.75 22.5452 60.7477 21.535 60.7432 20.5945C60.7027 14.6174 60.4125 11.3571 58.2795 9.22074C55.8056 6.75024 51.8299 6.75024 43.875 6.75024H37.125C29.1701 6.75024 25.191 6.75024 22.7205 9.22074C20.5841 11.3571 20.2905 14.6174 20.25 20.5945V30.5879C20.25 32.1404 20.25 32.92 20.5672 33.6017C20.8879 34.2801 21.4886 34.7796 22.68 35.7752ZM31.2188 20.2502C31.2188 19.5789 31.4854 18.9351 31.9601 18.4604C32.4348 17.9857 33.0787 17.719 33.75 17.719H47.25C47.9213 17.719 48.5652 17.9857 49.0399 18.4604C49.5146 18.9351 49.7812 19.5789 49.7812 20.2502C49.7812 20.9216 49.5146 21.5654 49.0399 22.0401C48.5652 22.5148 47.9213 22.7815 47.25 22.7815H33.75C33.0787 22.7815 32.4348 22.5148 31.9601 22.0401C31.4854 21.5654 31.2188 20.9216 31.2188 20.2502ZM34.5938 30.3752C34.5938 29.7039 34.8604 29.0601 35.3351 28.5854C35.8098 28.1107 36.4537 27.844 37.125 27.844H43.875C44.5463 27.844 45.1902 28.1107 45.6649 28.5854C46.1396 29.0601 46.4062 29.7039 46.4062 30.3752C46.4062 31.0466 46.1396 31.6904 45.6649 32.1651C45.1902 32.6398 44.5463 32.9065 43.875 32.9065H37.125C36.4537 32.9065 35.8098 32.6398 35.3351 32.1651C34.8604 31.6904 34.5938 31.0466 34.5938 30.3752Z" fill="#FFFBEE"/>
<path d="M27.5359 39.8238L22.6759 35.7738C21.4845 34.7781 20.8871 34.282 20.5665 33.6003C20.2459 32.9185 20.2493 32.1423 20.2493 30.5898V20.593C15.8618 21.025 12.9086 22.0004 10.7048 24.2043C6.74927 28.1564 6.74927 34.525 6.74927 47.2555C6.74927 59.9793 6.74927 66.3445 10.7048 70.2966C14.6603 74.2488 21.0221 74.2555 33.7493 74.2555H47.2493C59.9764 74.2555 66.3416 74.2555 70.2938 70.3C74.2459 66.3445 74.2493 59.9826 74.2493 47.2555C74.2493 34.5284 74.2493 28.1598 70.2938 24.2043C68.0899 22.0004 65.1334 21.025 60.7425 20.593C60.747 21.538 60.7493 22.5505 60.7493 23.6305V30.5931C60.7493 32.1456 60.7493 32.9219 60.4286 33.6036C60.1114 34.2854 59.5174 34.7849 58.3193 35.7771L53.4593 39.8271C47.2628 44.9909 44.1645 47.5728 40.4993 47.5728C36.834 47.5728 33.7324 44.9875 27.5359 39.8238Z" fill="#FEF1C2"/>
</svg>
