<svg width="41" height="41" viewBox="0 0 41 41" fill="none" xmlns="http://www.w3.org/2000/svg">
<path opacity="0.5" d="M20.0625 38C29.7277 38 37.5625 30.1653 37.5625 20.5C37.5625 10.8348 29.7277 3 20.0625 3C10.3973 3 2.5625 10.8348 2.5625 20.5C2.5625 23.3 3.2205 25.946 4.38775 28.2927C4.69925 28.9158 4.8025 29.628 4.62225 30.3018L3.581 34.1973C3.47787 34.5828 3.47797 34.9886 3.58127 35.3741C3.68458 35.7595 3.88746 36.1111 4.16955 36.3933C4.45164 36.6756 4.80302 36.8787 5.18842 36.9822C5.57382 37.0858 5.97967 37.0861 6.36525 36.9833L10.2608 35.9403C10.9369 35.7694 11.6522 35.8522 12.2715 36.173C14.6917 37.378 17.359 38.0035 20.0625 38Z" fill="#A3844B"/>
<path d="M19.8749 21.75C21.8217 21.75 23.5921 22.3139 24.8945 23.1077C25.5445 23.5058 26.1003 23.973 26.5017 24.4808C26.8965 24.9813 27.1874 25.5793 27.1874 26.2187C27.1874 26.9053 26.8535 27.4464 26.3725 27.8323C25.9175 28.198 25.317 28.4401 24.6792 28.6091C23.3971 28.9479 21.686 29.0624 19.8749 29.0624C18.0639 29.0624 16.3528 28.9487 15.0707 28.6091C14.4329 28.4401 13.8324 28.198 13.3774 27.8323C12.8956 27.4456 12.5625 26.9053 12.5625 26.2187C12.5625 25.5793 12.8534 24.9813 13.2482 24.4808C13.6496 23.973 14.2046 23.5058 14.8554 23.1077C16.1578 22.3139 17.929 21.75 19.8749 21.75Z" fill="#A3844B"/>
<path d="M19.875 11.75C23.0023 11.75 24.9572 15.1357 23.3931 17.8437C23.0366 18.4613 22.5237 18.9741 21.9062 19.3306C21.2886 19.6872 20.5881 19.8749 19.875 19.8749C16.7477 19.8749 14.7929 16.4893 16.3569 13.7812C16.7135 13.1637 17.2263 12.6508 17.8438 12.2943C18.4614 11.9377 19.1619 11.75 19.875 11.75Z" fill="#A3844B"/>
</svg>
