<svg width="70" height="70" viewBox="0 0 70 70" fill="none" xmlns="http://www.w3.org/2000/svg">
<g clip-path="url(#clip0_1201_2172)">
<path d="M35 70C54.33 70 70 54.33 70 35C70 15.67 54.33 0 35 0C15.67 0 0 15.67 0 35C0 54.33 15.67 70 35 70Z" fill="#F26F3A"/>
<path d="M30.7863 26.5824C30.7863 26.1644 30.6201 25.7634 30.3246 25.4678C30.0289 25.1723 29.628 25.0061 29.2099 25.0061H23.5311C23.9132 22.0982 25.3395 19.4283 27.5444 17.4942C29.7492 15.5601 32.5822 14.4937 35.5151 14.4937C38.4481 14.4937 41.2809 15.5601 43.4858 17.4942C45.6907 19.4283 47.117 22.0982 47.4991 25.0061H38.6676C38.2496 25.0061 37.8486 25.1723 37.5531 25.4678C37.2574 25.7634 37.0914 26.1644 37.0914 26.5824C37.0914 27.0005 37.2574 27.4014 37.5531 27.697C37.8486 27.9926 38.2496 28.1587 38.6676 28.1587H47.5999V31.3113H38.6676C38.2496 31.3113 37.8486 31.4774 37.5531 31.7729C37.2574 32.0686 37.0914 32.4696 37.0914 32.8876C37.0914 33.3056 37.2574 33.7066 37.5531 34.0021C37.8486 34.2978 38.2496 34.4638 38.6676 34.4638H47.497C47.1131 37.3702 45.6862 40.038 43.4817 41.9705C41.2773 43.9029 38.4456 44.9684 35.514 44.9684C32.5825 44.9684 29.7508 43.9029 27.5464 41.9705C25.3419 40.038 23.9149 37.3702 23.5311 34.4638H29.2099C29.628 34.4638 30.0289 34.2978 30.3246 34.0021C30.6201 33.7066 30.7863 33.3056 30.7863 32.8876C30.7863 32.4696 30.6201 32.0686 30.3246 31.7729C30.0289 31.4774 29.628 31.3113 29.2099 31.3113H23.4302V28.1587H29.2099C29.628 28.1587 30.0289 27.9926 30.3246 27.697C30.6201 27.4014 30.7863 27.0005 30.7863 26.5824Z" fill="#FFFBEE"/>
<path fill-rule="evenodd" clip-rule="evenodd" d="M18.7013 29.2095C19.1194 29.2095 19.5203 29.3755 19.8159 29.6712C20.1115 29.9668 20.2776 30.3677 20.2776 30.7858V32.8875C20.2776 34.8885 20.6717 36.8699 21.4375 38.7186C22.2033 40.5673 23.3257 42.2471 24.7406 43.662C26.1555 45.0769 27.8352 46.1993 29.6839 46.9651C31.5326 47.7308 33.5141 48.1249 35.515 48.1249C37.5161 48.1249 39.4975 47.7308 41.3461 46.9651C43.1948 46.1993 44.8746 45.0769 46.2896 43.662C47.7045 42.2471 48.8269 40.5673 49.5926 38.7186C50.3583 36.8699 50.7525 34.8885 50.7525 32.8875V30.7858C50.7525 30.3677 50.9185 29.9668 51.2142 29.6712C51.5098 29.3755 51.9107 29.2095 52.3288 29.2095C52.7469 29.2095 53.1478 29.3755 53.4434 29.6712C53.739 29.9668 53.9051 30.3677 53.9051 30.7858V32.8875C53.9052 37.492 52.1779 41.9291 49.0648 45.3216C45.9515 48.7143 41.6789 50.8156 37.0914 51.2103V56.0064C37.0914 56.4244 36.9252 56.8253 36.6297 57.1209C36.334 57.4166 35.9331 57.5826 35.515 57.5826C35.097 57.5826 34.696 57.4166 34.4005 57.1209C34.1048 56.8253 33.9388 56.4244 33.9388 56.0064V51.2103C29.3512 50.8156 25.0785 48.7143 21.9654 45.3216C18.8521 41.9291 17.1249 37.492 17.125 32.8875V30.7858C17.125 30.3677 17.2911 29.9668 17.5867 29.6712C17.8823 29.3755 18.2833 29.2095 18.7013 29.2095Z" fill="#FFFBEE"/>
</g>
<defs>
<clipPath id="clip0_1201_2172">
<rect width="70" height="70" fill="white"/>
</clipPath>
</defs>
</svg>
