<svg width="41" height="41" viewBox="0 0 41 41" fill="none" xmlns="http://www.w3.org/2000/svg">
<path opacity="0.5" d="M20.5 38C30.1648 38 38 30.1648 38 20.5C38 10.8352 30.1648 3 20.5 3C10.8352 3 3 10.8352 3 20.5C3 23.3 3.65705 25.9457 4.82636 28.2923C5.13659 28.9159 5.24 29.6286 5.06023 30.3016L4.01818 34.1961C3.91514 34.5816 3.91529 34.9874 4.01862 35.3728C4.12195 35.7582 4.32482 36.1096 4.60688 36.3919C4.88894 36.6741 5.24027 36.8772 5.62561 36.9807C6.01095 37.0843 6.41674 37.0846 6.80227 36.9818L10.7 35.9398C11.3754 35.7711 12.0892 35.8542 12.7077 36.1736C15.1284 37.3784 17.7961 38.0036 20.5 38Z" fill="#A3844B"/>
<path d="M18.6666 20.4998C18.6666 20.9861 18.8597 21.4524 19.2036 21.7962C19.5474 22.14 20.0137 22.3332 20.4999 22.3332C20.9861 22.3332 21.4525 22.14 21.7963 21.7962C22.1401 21.4524 22.3333 20.9861 22.3333 20.4998C22.3333 20.0136 22.1401 19.5473 21.7963 19.2035C21.4525 18.8597 20.9861 18.6665 20.4999 18.6665C20.0137 18.6665 19.5474 18.8597 19.2036 19.2035C18.8597 19.5473 18.6666 20.0136 18.6666 20.4998ZM11.3333 20.4998C11.3333 20.9861 11.5264 21.4524 11.8702 21.7962C12.214 22.14 12.6804 22.3332 13.1666 22.3332C13.6528 22.3332 14.1191 22.14 14.4629 21.7962C14.8068 21.4524 14.9999 20.9861 14.9999 20.4998C14.9999 20.0136 14.8068 19.5473 14.4629 19.2035C14.1191 18.8597 13.6528 18.6665 13.1666 18.6665C12.6804 18.6665 12.214 18.8597 11.8702 19.2035C11.5264 19.5473 11.3333 20.0136 11.3333 20.4998ZM25.9999 20.4998C25.9999 20.9861 26.1931 21.4524 26.5369 21.7962C26.8807 22.14 27.347 22.3332 27.8333 22.3332C28.3195 22.3332 28.7858 22.14 29.1296 21.7962C29.4734 21.4524 29.6666 20.9861 29.6666 20.4998C29.6666 20.0136 29.4734 19.5473 29.1296 19.2035C28.7858 18.8597 28.3195 18.6665 27.8333 18.6665C27.347 18.6665 26.8807 18.8597 26.5369 19.2035C26.1931 19.5473 25.9999 20.0136 25.9999 20.4998Z" fill="#A3844B"/>
</svg>
