<svg width="28" height="22" viewBox="0 0 28 22" fill="none" xmlns="http://www.w3.org/2000/svg">
<path fill-rule="evenodd" clip-rule="evenodd" d="M24.0492 2.13448C24.1428 2.05008 24.253 1.98608 24.3727 1.94658C24.4924 1.90708 24.6191 1.89298 24.7445 1.90508C24.87 1.91728 24.9916 1.95548 25.1015 2.01718C25.2114 2.07898 25.3073 2.16288 25.3829 2.26378L24.6555 2.91138L25.3843 2.26518L25.387 2.26788L25.3912 2.27338L25.4008 2.28578L25.5094 2.43978C25.5754 2.53788 25.6607 2.67768 25.7652 2.85918C25.97 3.22218 26.2313 3.75568 26.4884 4.46928C27.0054 5.90068 27.5004 8.04568 27.5004 11.0005C27.5004 13.9554 27.0054 16.1018 26.4884 17.5318C26.2313 18.2468 25.97 18.7789 25.7652 19.1433C25.6532 19.3403 25.5316 19.5316 25.4008 19.7167L25.3912 19.729L25.387 19.7332L25.3857 19.7359C25.3857 19.7359 25.3843 19.7373 24.6555 19.0897L25.3843 19.7373C25.3086 19.8383 25.2127 19.9225 25.1027 19.9844C24.9927 20.0463 24.8709 20.0845 24.7453 20.0967C24.6196 20.1088 24.4928 20.0947 24.3729 20.055C24.2531 20.0154 24.1428 19.9512 24.0492 19.8665C23.8546 19.6876 23.734 19.4423 23.7111 19.179C23.6882 18.9156 23.7647 18.6532 23.9254 18.4434L23.9667 18.387C24.0033 18.332 24.0606 18.2372 24.1385 18.1024C24.3689 17.6877 24.563 17.2539 24.7188 16.8058C25.1505 15.6082 25.6043 13.7079 25.6043 11.0005C25.6043 8.29318 25.1505 6.39428 24.7188 5.19528C24.5629 4.74768 24.3688 4.31428 24.1385 3.89998C24.0724 3.78058 24.0003 3.66448 23.9227 3.55218M21.6663 6.07248C22.1242 5.80168 22.7017 5.97628 22.956 6.46578L22.9574 6.46848L22.9602 6.47268L22.9643 6.48228L22.978 6.50698L23.011 6.57988C23.0367 6.63768 23.0688 6.71558 23.1073 6.81368C23.1802 7.01298 23.2723 7.29488 23.3617 7.66618C23.5404 8.40868 23.7082 9.50448 23.7082 11.0005C23.7082 12.4979 23.5404 13.5938 23.3617 14.3363C23.2723 14.7075 23.1802 14.9894 23.1059 15.1874C23.067 15.2913 23.0239 15.3936 22.9767 15.494L22.9643 15.5188L22.9602 15.5284L22.9574 15.5325V15.5353C22.9574 15.5353 22.956 15.5367 22.1269 15.0458L22.956 15.5367C22.7017 16.0248 22.1242 16.2008 21.6663 15.9299C21.2125 15.6604 21.0475 15.0527 21.2923 14.5673L21.2978 14.5535L21.3459 14.4367C21.3899 14.3184 21.4559 14.1204 21.5247 13.8344C21.6622 13.2624 21.8107 12.3357 21.8107 11.0019C21.8107 9.66678 21.6622 8.73998 21.5247 8.16938C21.4656 7.92428 21.3898 7.68358 21.2978 7.44888L21.2923 7.43518C21.1727 7.20238 21.1448 6.93328 21.2141 6.68098C21.2833 6.42878 21.4447 6.21158 21.6663 6.07248Z" fill="white"/>
<path d="M0.003975 10.61C0.054875 8.07591 0.0809749 6.80951 0.922475 5.72601C1.09167 5.51011 1.28187 5.31151 1.49037 5.13341C2.52437 4.25891 3.89118 4.25891 6.62328 4.25891C7.59948 4.25891 8.08768 4.25891 8.55238 4.13241C8.64868 4.10491 8.74438 4.07421 8.83978 4.04021C9.29348 3.87391 9.70187 3.58651 10.5173 3.01451C13.732 0.75261 15.3408 -0.377589 16.6897 0.113211C16.9482 0.208111 17.1984 0.34421 17.4225 0.51201C18.5885 1.38511 18.6779 3.42011 18.8553 7.48741C18.9213 8.99441 18.9653 10.2841 18.9653 11.0005C18.9653 11.7169 18.9213 13.008 18.8553 14.5136C18.6765 18.5809 18.5885 20.6159 17.4225 21.489C17.1988 21.6567 16.952 21.791 16.6897 21.8877C15.3394 22.3786 13.7334 21.2484 10.5159 18.9865C9.70187 18.4145 9.29348 18.1271 8.83838 17.9607C8.74418 17.9266 8.64878 17.8959 8.55238 17.8686C8.08768 17.7421 7.59948 17.7421 6.62328 17.7421C3.89118 17.7421 2.52577 17.7421 1.49037 16.8676C1.28197 16.6899 1.09167 16.4918 0.922475 16.2764C0.0809749 15.1901 0.056275 13.9251 0.003975 11.3924C-0.001325 11.1312 -0.001325 10.8712 0.003975 10.61Z" fill="white"/>
</svg>
