<svg width="37" height="44" viewBox="0 0 37 44" fill="none" xmlns="http://www.w3.org/2000/svg">
<path d="M13.6613 12.0888C13.6613 11.6707 13.4951 11.2698 13.1996 10.9741C12.9039 10.6786 12.503 10.5125 12.0849 10.5125H6.40606C6.78818 7.60457 8.21453 4.93469 10.4194 3.00053C12.6242 1.06647 15.4572 0 18.3901 0C21.3231 0 24.1559 1.06647 26.3608 3.00053C28.5657 4.93469 29.992 7.60457 30.3741 10.5125H21.5426C21.1246 10.5125 20.7236 10.6786 20.4281 10.9741C20.1324 11.2698 19.9664 11.6707 19.9664 12.0888C19.9664 12.5068 20.1324 12.9078 20.4281 13.2033C20.7236 13.499 21.1246 13.665 21.5426 13.665H30.4749V16.8176H21.5426C21.1246 16.8176 20.7236 16.9837 20.4281 17.2793C20.1324 17.5749 19.9664 17.9759 19.9664 18.3939C19.9664 18.812 20.1324 19.2129 20.4281 19.5085C20.7236 19.8041 21.1246 19.9702 21.5426 19.9702H30.372C29.9881 22.8765 28.5612 25.5443 26.3567 27.4769C24.1523 29.4093 21.3206 30.4747 18.389 30.4747C15.4575 30.4747 12.6258 29.4093 10.4214 27.4769C8.2169 25.5443 6.78993 22.8765 6.40606 19.9702H12.0849C12.503 19.9702 12.9039 19.8041 13.1996 19.5085C13.4951 19.2129 13.6613 18.812 13.6613 18.3939C13.6613 17.9759 13.4951 17.5749 13.1996 17.2793C12.9039 16.9837 12.503 16.8176 12.0849 16.8176H6.30518V13.665H12.0849C12.503 13.665 12.9039 13.499 13.1996 13.2033C13.4951 12.9078 13.6613 12.5068 13.6613 12.0888Z" fill="#FFFBEE"/>
<path fill-rule="evenodd" clip-rule="evenodd" d="M1.57634 14.7158C1.99438 14.7158 2.39534 14.8819 2.69088 15.1775C2.98653 15.4732 3.15257 15.874 3.15257 16.2922V18.3938C3.15257 20.3949 3.54674 22.3763 4.31251 24.2249C5.07829 26.0736 6.20066 27.7534 7.61559 29.1684C9.03051 30.5833 10.7102 31.7056 12.5589 32.4714C14.4076 33.2371 16.3891 33.6313 18.39 33.6313C20.3911 33.6313 22.3725 33.2371 24.2211 32.4714C26.0698 31.7056 27.7496 30.5833 29.1646 29.1684C30.5795 27.7534 31.7019 26.0736 32.4676 24.2249C33.2333 22.3763 33.6275 20.3949 33.6275 18.3938V16.2922C33.6275 15.874 33.7935 15.4732 34.0892 15.1775C34.3848 14.8819 34.7857 14.7158 35.2038 14.7158C35.6219 14.7158 36.0228 14.8819 36.3184 15.1775C36.614 15.4732 36.7801 15.874 36.7801 16.2922V18.3938C36.7802 22.9984 35.0529 27.4354 31.9398 30.828C28.8265 34.2206 24.5539 36.3219 19.9664 36.7166V41.5127C19.9664 41.9308 19.8002 42.3316 19.5047 42.6273C19.209 42.9229 18.8081 43.089 18.39 43.089C17.972 43.089 17.571 42.9229 17.2755 42.6273C16.9798 42.3316 16.8138 41.9308 16.8138 41.5127V36.7166C12.2262 36.3219 7.95354 34.2206 4.8404 30.828C1.72715 27.4354 -0.000102937 22.9984 4.60108e-09 18.3938V16.2922C4.60108e-09 15.874 0.166147 15.4732 0.461691 15.1775C0.757338 14.8819 1.15829 14.7158 1.57634 14.7158Z" fill="#FFFBEE"/>
</svg>
