<svg width="50" height="50" viewBox="0 0 50 50" fill="none" xmlns="http://www.w3.org/2000/svg">
<g clip-path="url(#clip0_1201_1993)">
<path d="M50 25C50 11.1929 38.8071 0 25 0C11.1929 0 0 11.1929 0 25C0 38.8071 11.1929 50 25 50C38.8071 50 50 38.8071 50 25Z" fill="#F26F3A"/>
<path d="M11.2542 24.6095C11.3051 22.0754 11.3312 20.809 12.1727 19.7255C12.3419 19.5096 12.5321 19.311 12.7406 19.1329C13.7746 18.2584 15.1414 18.2584 17.8735 18.2584C18.8497 18.2584 19.3379 18.2584 19.8026 18.1319C19.8989 18.1044 19.9946 18.0737 20.09 18.0397C20.5437 17.8734 20.9521 17.586 21.7675 17.014C24.9822 14.7521 26.591 13.6219 27.9399 14.1127C28.1984 14.2076 28.4486 14.3437 28.6727 14.5115C29.8387 15.3846 29.9281 17.4196 30.1055 21.4869C30.1715 22.9939 30.2155 24.2836 30.2155 25C30.2155 25.7164 30.1715 27.0075 30.1055 28.5131C29.9267 32.5804 29.8387 34.6154 28.6727 35.4885C28.449 35.6562 28.2022 35.7905 27.9399 35.8872C26.5896 36.3781 24.9836 35.2479 21.7661 32.986C20.9521 32.414 20.5437 32.1266 20.0886 31.9602C19.9944 31.9261 19.899 31.8954 19.8026 31.8681C19.3379 31.7416 18.8497 31.7416 17.8735 31.7416C15.1414 31.7416 13.776 31.7416 12.7406 30.8671C12.5322 30.6894 12.3419 30.4913 12.1727 30.2759C11.3312 29.1896 11.3065 27.9246 11.2542 25.3919C11.2489 25.1307 11.2489 24.8707 11.2542 24.6095Z" fill="white"/>
<path fill-rule="evenodd" clip-rule="evenodd" d="M35.2989 16.134C35.3925 16.0496 35.5027 15.9856 35.6224 15.9461C35.7421 15.9066 35.8688 15.8925 35.9942 15.9046C36.1197 15.9168 36.2413 15.955 36.3512 16.0167C36.4611 16.0785 36.557 16.1624 36.6326 16.2633L35.9052 16.9109L36.634 16.2647L36.6367 16.2674L36.6409 16.2729L36.6505 16.2853L36.7591 16.4393C36.8251 16.5374 36.9104 16.6772 37.0149 16.8587C37.2197 17.2217 37.481 17.7552 37.7381 18.4688C38.2551 19.9002 38.7501 22.0452 38.7501 25C38.7501 27.9549 38.2551 30.1013 37.7381 31.5313C37.481 32.2463 37.2197 32.7784 37.0149 33.1428C36.9029 33.3398 36.7813 33.5311 36.6505 33.7162L36.6409 33.7285L36.6367 33.7327L36.6354 33.7354C36.6354 33.7354 36.634 33.7368 35.9052 33.0892L36.634 33.7368C36.5583 33.8378 36.4624 33.922 36.3524 33.9839C36.2424 34.0458 36.1206 34.084 35.995 34.0962C35.8693 34.1083 35.7425 34.0942 35.6226 34.0545C35.5028 34.0149 35.3925 33.9507 35.2989 33.866C35.1043 33.6871 34.9837 33.4418 34.9608 33.1785C34.9379 32.9151 35.0144 32.6527 35.1751 32.4429L35.2164 32.3865C35.253 32.3315 35.3103 32.2367 35.3882 32.1019C35.6186 31.6872 35.8127 31.2534 35.9685 30.8053C36.4002 29.6077 36.854 27.7074 36.854 25C36.854 22.2927 36.4002 20.3938 35.9685 19.1948C35.8126 18.7472 35.6185 18.3138 35.3882 17.8995C35.3221 17.7801 35.25 17.664 35.1724 17.5517M32.916 20.072C33.3739 19.8012 33.9514 19.9758 34.2057 20.4653L34.2071 20.468L34.2099 20.4722L34.214 20.4818L34.2277 20.5065L34.2607 20.5794C34.2864 20.6372 34.3185 20.7151 34.357 20.8132C34.4299 21.0125 34.522 21.2944 34.6114 21.6657C34.7901 22.4082 34.9579 23.504 34.9579 25C34.9579 26.4974 34.7901 27.5933 34.6114 28.3358C34.522 28.707 34.4299 28.9889 34.3556 29.1869C34.3167 29.2908 34.2736 29.3931 34.2264 29.4935L34.214 29.5183L34.2099 29.5279L34.2071 29.532V29.5348C34.2071 29.5348 34.2057 29.5362 33.3766 29.0453L34.2057 29.5362C33.9514 30.0243 33.3739 30.2003 32.916 29.9294C32.4622 29.6599 32.2972 29.0522 32.542 28.5668L32.5475 28.553L32.5956 28.4362C32.6396 28.3179 32.7056 28.1199 32.7744 27.8339C32.9119 27.2619 33.0604 26.3352 33.0604 25.0014C33.0604 23.6663 32.9119 22.7395 32.7744 22.1689C32.7153 21.9238 32.6395 21.6831 32.5475 21.4484L32.542 21.4347C32.4224 21.2019 32.3945 20.9328 32.4638 20.6805C32.533 20.4283 32.6944 20.2111 32.916 20.072Z" fill="white"/>
</g>
<defs>
<clipPath id="clip0_1201_1993">
<rect width="50" height="50" fill="white"/>
</clipPath>
</defs>
</svg>
