<svg width="70" height="70" viewBox="0 0 70 70" fill="none" xmlns="http://www.w3.org/2000/svg">
<g clip-path="url(#clip0_1215_2152)">
<path d="M35 70C54.33 70 70 54.33 70 35C70 15.67 54.33 0 35 0C15.67 0 0 15.67 0 35C0 54.33 15.67 70 35 70Z" fill="#F26F3A"/>
<path fill-rule="evenodd" clip-rule="evenodd" d="M30.3466 53.8309H39.6876C46.2471 53.8309 49.5269 53.8309 51.8829 52.2853C52.9028 51.6162 53.7785 50.7564 54.46 49.755C56.0343 47.4418 56.0343 44.2217 56.0343 37.7814C56.0343 31.3412 56.0343 28.1211 54.46 25.8079C53.7785 24.8065 52.9028 23.9467 51.8829 23.2776C50.369 22.2844 48.4737 21.9294 45.5719 21.8026C44.1872 21.8026 42.995 20.7723 42.7234 19.4392C42.316 17.4395 40.5277 16 38.4506 16H31.5836C29.5065 16 27.7182 17.4395 27.3108 19.4392C27.0392 20.7724 25.847 21.8026 24.4623 21.8026C21.5605 21.9294 19.6652 22.2844 18.1513 23.2776C17.1314 23.9467 16.2557 24.8065 15.5742 25.8079C14 28.1211 14 31.3412 14 37.7814C14 44.2217 14 47.4418 15.5742 49.755C16.2557 50.7564 17.1314 51.6162 18.1513 52.2853C20.5074 53.8309 23.7871 53.8309 30.3466 53.8309ZM35.0171 29.1835C30.1807 29.1835 26.26 33.0329 26.26 37.7814C26.26 42.5299 30.1807 46.3794 35.0171 46.3794C39.8535 46.3794 43.7743 42.5299 43.7743 37.7814C43.7743 33.0329 39.8535 29.1835 35.0171 29.1835ZM35.0171 32.6227C32.1152 32.6227 29.7628 34.9323 29.7628 37.7814C29.7628 40.6305 32.1152 42.9402 35.0171 42.9402C37.919 42.9402 40.2714 40.6305 40.2714 37.7814C40.2714 34.9323 37.919 32.6227 35.0171 32.6227ZM44.9419 30.9031C44.9419 29.9534 45.726 29.1835 46.6933 29.1835H49.0285C49.9958 29.1835 50.78 29.9534 50.78 30.9031C50.78 31.8528 49.9958 32.6227 49.0285 32.6227H46.6933C45.726 32.6227 44.9419 31.8528 44.9419 30.9031Z" fill="white"/>
</g>
<defs>
<clipPath id="clip0_1215_2152">
<rect width="70" height="70" fill="white"/>
</clipPath>
</defs>
</svg>
