<svg width="350" height="100" viewBox="0 0 350 100" fill="none" xmlns="http://www.w3.org/2000/svg">
<g clip-path="url(#clip0_1712_2782)">
<rect width="350" height="100" fill="#FF9B70"/>
<g clip-path="url(#clip1_1712_2782)">
<path d="M316.793 107.587C340.98 107.587 360.587 87.9799 360.587 63.7934C360.587 39.607 340.98 20 316.793 20C292.607 20 273 39.607 273 63.7934C273 87.9799 292.607 107.587 316.793 107.587Z" fill="#F26F3A"/>
<path d="M307.159 42.2048C307.159 42.2048 310.032 39.6409 311.976 40.2341C312.861 40.504 313.947 41.5479 313.947 41.5479" stroke="#791C0A" stroke-width="1.75174"/>
<path d="M327.085 42.2048C327.085 42.2048 324.212 39.6409 322.268 40.2341C321.383 40.504 320.297 41.5479 320.297 41.5479" stroke="#791C0A" stroke-width="1.75174"/>
<path d="M306.721 49.6753C306.721 47.0251 309.169 45.0435 311.793 45.4128C313.467 45.6482 315.285 45.8382 316.793 45.8382C318.302 45.8382 320.12 45.6482 321.794 45.4128C324.418 45.0435 326.866 47.0251 326.866 49.6753V49.8874C326.866 51.6583 325.744 53.2368 324.023 53.6547C322.133 54.1136 319.543 54.5969 317.012 54.5969C314.434 54.5969 311.668 54.0952 309.653 53.6288C307.891 53.2207 306.721 51.6175 306.721 49.8083V49.6753Z" fill="#051042"/>
<path fill-rule="evenodd" clip-rule="evenodd" d="M322.308 54.0307C320.703 54.3441 318.842 54.5968 317.013 54.5968C315.406 54.5968 313.726 54.4018 312.2 54.1421C312.055 53.8008 311.977 53.4389 311.977 53.064C311.977 51.0082 314.329 49.3416 317.232 49.3416C320.134 49.3416 322.487 51.0082 322.487 53.064C322.487 53.3984 322.425 53.7224 322.308 54.0307Z" fill="#EE9CC4"/>
</g>
<g clip-path="url(#clip2_1712_2782)">
<path d="M238.487 124.055L217.216 72.9072L258.679 39.1661L304.574 66.5753L290.901 120.256L238.487 124.055Z" fill="#F8C811"/>
<path d="M255.083 78.3591C255.083 78.3591 256.358 76.1432 256.331 74.5948C256.307 73.2718 255.313 71.3631 255.313 71.3631" stroke="#873F19" stroke-width="1.75174"/>
<path d="M275.648 71.8112C275.648 71.8112 269.199 73.7292 264.94 74.2125C261.516 74.6012 256.118 74.4469 256.118 74.4469" stroke="#873F19" stroke-width="1.75174"/>
<path d="M259.812 60.9409L261.008 67.4002" stroke="#873F19" stroke-width="1.75174"/>
<path d="M268.049 59.4658L269.244 65.9252" stroke="#873F19" stroke-width="1.75174"/>
<path d="M252.188 67.7378C252.791 67.6941 253.244 67.1698 253.201 66.5667C253.157 65.9637 252.633 65.5102 252.029 65.5539C251.426 65.5976 250.973 66.1219 251.017 66.725C251.06 67.3281 251.585 67.7816 252.188 67.7378Z" fill="#873F19"/>
<path d="M250.321 72.264C250.924 72.2203 251.377 71.6959 251.333 71.0929C251.29 70.4898 250.765 70.0363 250.162 70.08C249.559 70.1237 249.106 70.6481 249.149 71.2512C249.193 71.8542 249.718 72.3077 250.321 72.264Z" fill="#873F19"/>
<path d="M247.447 68.9598C248.05 68.9161 248.503 68.3917 248.459 67.7887C248.416 67.1856 247.891 66.7321 247.288 66.7758C246.685 66.8195 246.232 67.3439 246.275 67.947C246.319 68.55 246.843 69.0035 247.447 68.9598Z" fill="#873F19"/>
</g>
<path d="M18.32 22.48H21.08C21.0533 23.04 21.0067 23.76 20.94 24.64C20.8733 25.52 20.7467 26.5 20.56 27.58C20.3867 28.6467 20.12 29.7667 19.76 30.94C19.4 32.1133 18.9067 33.2867 18.28 34.46C17.6667 35.62 16.88 36.7333 15.92 37.8C14.9733 38.8533 13.82 39.7933 12.46 40.62C12.2467 40.3133 11.9533 39.9867 11.58 39.64C11.22 39.2933 10.84 38.98 10.44 38.7C11.7733 37.9533 12.8933 37.1 13.8 36.14C14.7067 35.18 15.4467 34.1733 16.02 33.12C16.5933 32.0533 17.0333 30.9867 17.34 29.92C17.6467 28.84 17.8667 27.82 18 26.86C18.1333 25.9 18.2133 25.04 18.24 24.28C18.2667 23.52 18.2933 22.92 18.32 22.48ZM20.98 23.02C20.9933 23.2733 21.02 23.6733 21.06 24.22C21.1 24.7667 21.18 25.42 21.3 26.18C21.42 26.94 21.6 27.7667 21.84 28.66C22.0933 29.54 22.4267 30.4467 22.84 31.38C23.2533 32.3133 23.7667 33.2267 24.38 34.12C24.9933 35.0133 25.7333 35.84 26.6 36.6C27.48 37.36 28.5067 38.02 29.68 38.58C29.2933 38.86 28.9333 39.1867 28.6 39.56C28.28 39.9333 28.02 40.2867 27.82 40.62C26.5933 40.0067 25.52 39.28 24.6 38.44C23.6933 37.5867 22.9133 36.6667 22.26 35.68C21.62 34.68 21.0867 33.6667 20.66 32.64C20.2333 31.6133 19.8867 30.6067 19.62 29.62C19.3667 28.62 19.1733 27.6933 19.04 26.84C18.9067 25.9867 18.8133 25.2467 18.76 24.62C18.72 23.9933 18.6867 23.54 18.66 23.26L20.98 23.02ZM34.16 25.64H48.08V27.98H34.16V25.64ZM33.32 31.52H47.3V33.84H33.32V31.52ZM31.02 37.88H49.1V40.22H31.02V37.88ZM38.78 22H41.3V39.02H38.78V22ZM34.16 22.26L36.64 22.82C36.36 23.8467 36.0133 24.86 35.6 25.86C35.1867 26.86 34.74 27.7933 34.26 28.66C33.78 29.5133 33.28 30.26 32.76 30.9C32.6 30.7533 32.3867 30.5933 32.12 30.42C31.8667 30.2333 31.6 30.0533 31.32 29.88C31.04 29.7067 30.8 29.5667 30.6 29.46C31.1333 28.9 31.62 28.2333 32.06 27.46C32.5133 26.6867 32.9133 25.8533 33.26 24.96C33.62 24.0667 33.92 23.1667 34.16 22.26Z" fill="#FFD900"/>
<path d="M55.1562 40.2109C54.5378 39.3971 53.8965 38.6582 53.2324 37.9941C52.5684 37.3236 51.8555 36.7083 51.0938 36.1484L52.8516 34.4297C54.4792 35.6927 55.8724 37.112 57.0312 38.6875L55.1562 40.2109ZM93.9062 40.2109C93.2878 39.3971 92.6465 38.6582 91.9824 37.9941C91.3184 37.3236 90.6055 36.7083 89.8438 36.1484L91.6016 34.4297C93.2292 35.6927 94.6224 37.112 95.7812 38.6875L93.9062 40.2109ZM150.332 39.1758C150.033 39.1758 149.756 39.1009 149.502 38.9512C149.248 38.8014 149.046 38.6029 148.896 38.3555C148.753 38.1016 148.685 37.8281 148.691 37.5352C148.685 37.2422 148.753 36.972 148.896 36.7246C149.046 36.4772 149.248 36.2819 149.502 36.1387C149.756 35.9889 150.033 35.9141 150.332 35.9141C150.612 35.9141 150.876 35.9889 151.123 36.1387C151.377 36.2819 151.579 36.4772 151.729 36.7246C151.878 36.972 151.953 37.2422 151.953 37.5352C151.953 37.8281 151.878 38.1016 151.729 38.3555C151.579 38.6029 151.377 38.8014 151.123 38.9512C150.876 39.1009 150.612 39.1758 150.332 39.1758ZM155.977 39.1758C155.677 39.1758 155.4 39.1009 155.146 38.9512C154.893 38.8014 154.691 38.6029 154.541 38.3555C154.398 38.1016 154.329 37.8281 154.336 37.5352C154.329 37.2422 154.398 36.972 154.541 36.7246C154.691 36.4772 154.893 36.2819 155.146 36.1387C155.4 35.9889 155.677 35.9141 155.977 35.9141C156.257 35.9141 156.52 35.9889 156.768 36.1387C157.021 36.2819 157.223 36.4772 157.373 36.7246C157.523 36.972 157.598 37.2422 157.598 37.5352C157.598 37.8281 157.523 38.1016 157.373 38.3555C157.223 38.6029 157.021 38.8014 156.768 38.9512C156.52 39.1009 156.257 39.1758 155.977 39.1758ZM169.894 23.7L171.934 22.98C172.187 23.46 172.441 23.9867 172.694 24.56C172.947 25.1333 173.174 25.6933 173.374 26.24C173.574 26.7733 173.714 27.2533 173.794 27.68L171.594 28.54C171.527 28.1133 171.407 27.62 171.234 27.06C171.061 26.5 170.854 25.9267 170.614 25.34C170.387 24.7533 170.147 24.2067 169.894 23.7ZM173.854 22.86L175.934 22.28C176.147 22.7867 176.347 23.3333 176.534 23.92C176.721 24.5067 176.887 25.08 177.034 25.64C177.181 26.1867 177.281 26.6733 177.334 27.1L175.094 27.8C175.054 27.3867 174.967 26.9 174.834 26.34C174.714 25.7667 174.567 25.18 174.394 24.58C174.221 23.9667 174.041 23.3933 173.854 22.86ZM172.734 31.82L173.934 30.22C174.547 30.6333 175.187 31.1067 175.854 31.64C176.534 32.16 177.174 32.68 177.774 33.2C178.387 33.72 178.867 34.2 179.214 34.64L177.914 36.48C177.567 36.0267 177.101 35.5267 176.514 34.98C175.941 34.42 175.321 33.8667 174.654 33.32C173.987 32.76 173.347 32.26 172.734 31.82ZM170.334 29.62H172.614V40.6H170.334V29.62ZM179.234 29.58H181.594V40.56H179.234V29.58ZM171.414 37.32H180.354V39.5H171.414V37.32ZM179.454 22.56L181.954 23.1C181.741 23.8733 181.481 24.6467 181.174 25.42C180.881 26.1933 180.561 26.92 180.214 27.6C179.881 28.28 179.547 28.88 179.214 29.4C179.041 29.28 178.807 29.1533 178.514 29.02C178.221 28.8867 177.927 28.76 177.634 28.64C177.354 28.5067 177.101 28.4 176.874 28.32C177.234 27.8533 177.574 27.3067 177.894 26.68C178.227 26.0533 178.527 25.3867 178.794 24.68C179.061 23.96 179.281 23.2533 179.454 22.56ZM176.474 29.14L178.594 29.6C178.154 31.12 177.561 32.56 176.814 33.92C176.081 35.28 175.274 36.42 174.394 37.34C174.274 37.22 174.101 37.0733 173.874 36.9C173.661 36.7267 173.441 36.56 173.214 36.4C173.001 36.2267 172.814 36.0867 172.654 35.98C173.507 35.1933 174.267 34.2 174.934 33C175.601 31.7867 176.114 30.5 176.474 29.14ZM165.974 22H168.274V40.78H165.974V22ZM164.074 25.96L165.674 26.18C165.674 26.8067 165.641 27.4733 165.574 28.18C165.507 28.8733 165.401 29.5467 165.254 30.2C165.121 30.84 164.934 31.4133 164.694 31.92L163.134 31.22C163.334 30.7933 163.501 30.2867 163.634 29.7C163.781 29.1133 163.887 28.4933 163.954 27.84C164.034 27.1867 164.074 26.56 164.074 25.96ZM167.894 26L169.374 25.36C169.694 25.9467 169.994 26.58 170.274 27.26C170.554 27.94 170.741 28.5267 170.834 29.02L169.254 29.76C169.201 29.4267 169.101 29.0467 168.954 28.62C168.821 28.1933 168.661 27.7533 168.474 27.3C168.287 26.8333 168.094 26.4 167.894 26ZM188.223 39.4492C187.474 39.4492 186.751 39.2148 186.055 38.7461C185.365 38.2773 184.808 37.6654 184.385 36.9102C183.962 36.1549 183.75 35.3737 183.75 34.5664C183.75 33.707 184.007 32.9551 184.521 32.3105C185.036 31.6595 185.781 31.1387 186.758 30.748C187.741 30.3509 188.916 30.1035 190.283 30.0059C190.348 29.1009 190.391 28.0365 190.41 26.8125H184.551V24.6641H193.027V24.8398C193.027 26.7409 192.969 28.4596 192.852 29.9961C193.88 30.0547 194.919 30.2142 195.967 30.4746L195.977 28.5508V25.1719H198.457V28.668C198.457 29.638 198.447 30.5202 198.428 31.3145C199.333 31.7051 200.189 32.151 200.996 32.6523L200.098 34.8203C199.388 34.3646 198.783 34.0098 198.281 33.7559C198.177 34.8366 198.005 35.7318 197.764 36.4414C197.529 37.1445 197.21 37.7533 196.807 38.2676C196.403 38.7819 195.859 39.293 195.176 39.8008L193.379 37.9844C193.971 37.5482 194.427 37.125 194.746 36.7148C195.072 36.3047 195.322 35.7969 195.498 35.1914C195.68 34.5794 195.807 33.7721 195.879 32.7695C194.883 32.4635 193.796 32.2747 192.617 32.2031C192.292 34.625 191.761 36.4382 191.025 37.6426C190.296 38.847 189.362 39.4492 188.223 39.4492ZM186.172 34.5664C186.172 34.9049 186.26 35.2565 186.436 35.6211C186.618 35.9792 186.842 36.2786 187.109 36.5195C187.376 36.7539 187.637 36.8711 187.891 36.8711C188.392 36.8711 188.825 36.4772 189.189 35.6895C189.561 34.9017 189.85 33.7591 190.059 32.2617C188.815 32.3789 187.855 32.6361 187.178 33.0332C186.507 33.4303 186.172 33.9414 186.172 34.5664ZM202.363 39.0977C203.203 36.8841 203.864 35.0156 204.346 33.4922C204.834 31.9688 205.26 30.3802 205.625 28.7266H202.188V26.5H206.084C206.253 25.6211 206.432 24.612 206.621 23.4727L209.121 23.7461C208.958 24.7682 208.799 25.6862 208.643 26.5H209.824C211.406 26.5 212.523 26.6237 213.174 26.8711C213.825 27.112 214.255 27.61 214.463 28.3652C214.678 29.1204 214.785 30.4128 214.785 32.2422C214.785 33.9089 214.665 35.2663 214.424 36.3145C214.189 37.3561 213.818 38.1276 213.311 38.6289C212.809 39.1237 212.155 39.3711 211.348 39.3711C210.853 39.3711 210.199 39.2832 209.385 39.1074C208.571 38.9382 207.806 38.7266 207.09 38.4727L207.637 36.3438C208.223 36.5391 208.799 36.7018 209.365 36.832C209.932 36.9622 210.352 37.0273 210.625 37.0273C211.003 37.0273 211.309 36.8613 211.543 36.5293C211.777 36.1908 211.95 35.6504 212.061 34.9082C212.171 34.166 212.227 33.1732 212.227 31.9297C212.227 30.9661 212.174 30.2695 212.07 29.8398C211.973 29.4036 211.777 29.1107 211.484 28.9609C211.198 28.8047 210.729 28.7266 210.078 28.7266H208.184C207.793 30.5169 207.331 32.2617 206.797 33.9609C206.263 35.6602 205.573 37.6198 204.727 39.8398L202.363 39.0977ZM217.461 36.6172C217.292 35.4844 217.054 34.2539 216.748 32.9258C216.449 31.5911 216.113 30.3281 215.742 29.1367L218.145 28.4922C218.522 29.7031 218.864 30.9857 219.17 32.3398C219.482 33.694 219.727 34.9766 219.902 36.1875L217.461 36.6172ZM215.684 28.1406C215.352 27.4635 215.023 26.8548 214.697 26.3145C214.378 25.7741 214.023 25.237 213.633 24.7031L215.195 23.8242C215.599 24.3385 215.96 24.8757 216.279 25.4355C216.605 25.9954 216.934 26.6367 217.266 27.3594L215.684 28.1406ZM218.34 27.125C218.04 26.4544 217.738 25.8457 217.432 25.2988C217.126 24.7454 216.784 24.1953 216.406 23.6484L217.949 22.8281C218.333 23.3685 218.682 23.9219 218.994 24.4883C219.313 25.0547 219.629 25.6927 219.941 26.4023L218.34 27.125ZM225.074 26.98L226.674 25.64C227.087 25.8267 227.521 26.0467 227.974 26.3C228.427 26.5533 228.854 26.8133 229.254 27.08C229.667 27.3467 230.001 27.6 230.254 27.84L228.574 29.32C228.334 29.08 228.014 28.82 227.614 28.54C227.214 28.26 226.794 27.98 226.354 27.7C225.914 27.42 225.487 27.18 225.074 26.98ZM234.094 23.52H234.534L234.934 23.4L236.474 24.32C235.834 25.52 235.014 26.5933 234.014 27.54C233.014 28.4733 231.887 29.2867 230.634 29.98C229.394 30.6733 228.074 31.2667 226.674 31.76C225.274 32.24 223.854 32.6267 222.414 32.92C222.307 32.6133 222.147 32.26 221.934 31.86C221.734 31.4467 221.527 31.1133 221.314 30.86C222.661 30.6467 223.987 30.34 225.294 29.94C226.601 29.5267 227.827 29.0267 228.974 28.44C230.121 27.8533 231.134 27.18 232.014 26.42C232.894 25.6467 233.587 24.7933 234.094 23.86V23.52ZM227.754 23.52H234.634V25.48H227.754V23.52ZM228.874 21.94L231.494 22.5C230.467 23.66 229.267 24.7133 227.894 25.66C226.534 26.6067 224.927 27.4533 223.074 28.2C222.954 28.0133 222.801 27.8067 222.614 27.58C222.441 27.3533 222.247 27.1333 222.034 26.92C221.834 26.7067 221.647 26.54 221.474 26.42C222.647 26.0467 223.707 25.6133 224.654 25.12C225.601 24.6267 226.427 24.1133 227.134 23.58C227.841 23.0333 228.421 22.4867 228.874 21.94ZM227.794 34.56L229.534 33.2C229.947 33.4267 230.381 33.68 230.834 33.96C231.287 34.24 231.721 34.5333 232.134 34.84C232.547 35.1333 232.881 35.4067 233.134 35.66L231.274 37.14C231.047 36.8867 230.734 36.6067 230.334 36.3C229.947 35.9933 229.527 35.6867 229.074 35.38C228.634 35.0733 228.207 34.8 227.794 34.56ZM236.614 30.8H237.094L237.514 30.7L239.094 31.52C238.481 33.0133 237.674 34.2933 236.674 35.36C235.687 36.4267 234.534 37.32 233.214 38.04C231.907 38.76 230.474 39.34 228.914 39.78C227.367 40.22 225.734 40.56 224.014 40.8C223.921 40.48 223.774 40.1067 223.574 39.68C223.374 39.2533 223.174 38.9 222.974 38.62C224.561 38.46 226.074 38.2 227.514 37.84C228.954 37.48 230.274 37.0067 231.474 36.42C232.674 35.82 233.707 35.0867 234.574 34.22C235.454 33.34 236.134 32.3133 236.614 31.14V30.8ZM230.714 30.8H237.254V32.8H230.714V30.8ZM232.114 28.86L234.734 29.46C233.627 30.78 232.281 31.9733 230.694 33.04C229.121 34.0933 227.221 35.02 224.994 35.82C224.914 35.62 224.787 35.4067 224.614 35.18C224.441 34.94 224.261 34.7067 224.074 34.48C223.887 34.2533 223.707 34.0733 223.534 33.94C224.934 33.5133 226.181 33.0333 227.274 32.5C228.381 31.9533 229.334 31.3733 230.134 30.76C230.947 30.1333 231.607 29.5 232.114 28.86ZM246.25 39.3125C245.384 39.3125 244.606 38.974 243.916 38.2969C243.232 37.6133 242.699 36.666 242.314 35.4551C241.93 34.2376 241.738 32.8607 241.738 31.3242C241.738 29.5469 242.064 27.4831 242.715 25.1328L245.254 25.4258C244.642 27.4896 244.336 29.3646 244.336 31.0508C244.336 32.0534 244.43 32.9779 244.619 33.8242C244.814 34.6641 245.075 35.3314 245.4 35.8262C245.732 36.3145 246.087 36.5586 246.465 36.5586C246.823 36.5586 247.24 36.347 247.715 35.9238C248.197 35.5007 248.665 34.944 249.121 34.2539C249.583 33.5573 249.961 32.8216 250.254 32.0469L252.539 33.2383C252.135 34.3711 251.589 35.3997 250.898 36.3242C250.208 37.2487 249.453 37.9779 248.633 38.5117C247.812 39.0456 247.018 39.3125 246.25 39.3125ZM255.43 37.4766C255.43 35.3411 255.218 33.2318 254.795 31.1484C254.378 29.0586 253.789 27.1771 253.027 25.5039L255.43 24.8203C256.27 26.5651 256.911 28.5182 257.354 30.6797C257.803 32.8346 258.027 35.1003 258.027 37.4766H255.43ZM266.641 34.5469C266.647 33.7656 266.719 33.1341 266.855 32.6523C266.992 32.1641 267.188 31.7734 267.441 31.4805C267.702 31.1875 268.047 30.9076 268.477 30.6406C268.952 30.3281 269.316 30.0124 269.57 29.6934C269.831 29.3743 269.961 29.0065 269.961 28.5898C269.961 28.2708 269.886 27.9909 269.736 27.75C269.587 27.5026 269.382 27.3105 269.121 27.1738C268.861 27.0371 268.574 26.9688 268.262 26.9688C267.949 26.9688 267.656 27.0371 267.383 27.1738C267.116 27.3105 266.898 27.5124 266.729 27.7793C266.566 28.0397 266.478 28.3555 266.465 28.7266H263.691C263.711 27.8411 263.923 27.0957 264.326 26.4902C264.736 25.8783 265.283 25.4225 265.967 25.123C266.657 24.8171 267.428 24.6641 268.281 24.6641C269.186 24.6641 269.99 24.8171 270.693 25.123C271.396 25.429 271.943 25.8717 272.334 26.4512C272.731 27.0241 272.93 27.7044 272.93 28.4922C272.93 29.2604 272.747 29.918 272.383 30.4648C272.025 31.0117 271.504 31.487 270.82 31.8906C270.436 32.125 270.13 32.3594 269.902 32.5938C269.681 32.8216 269.512 33.0918 269.395 33.4043C269.284 33.7168 269.225 34.0977 269.219 34.5469V34.7617H266.641V34.5469ZM267.988 39.1758C267.689 39.1758 267.412 39.1009 267.158 38.9512C266.904 38.8014 266.702 38.6029 266.553 38.3555C266.41 38.1016 266.341 37.8281 266.348 37.5352C266.341 37.2422 266.41 36.972 266.553 36.7246C266.702 36.4772 266.904 36.2819 267.158 36.1387C267.412 35.9889 267.689 35.9141 267.988 35.9141C268.268 35.9141 268.532 35.9889 268.779 36.1387C269.033 36.2819 269.235 36.4772 269.385 36.7246C269.535 36.972 269.609 37.2422 269.609 37.5352C269.609 37.8281 269.535 38.1016 269.385 38.3555C269.235 38.6029 269.033 38.8014 268.779 38.9512C268.532 39.1009 268.268 39.1758 267.988 39.1758Z" fill="white"/>
<path d="M70.17 26.66H87.35V30.62H84.97V28.48H72.45V30.34H70.17V26.66ZM84.79 21.98L86.39 23.58C85.3633 23.7933 84.23 23.98 82.99 24.14C81.75 24.2867 80.4633 24.4133 79.13 24.52C77.7967 24.6133 76.45 24.6933 75.09 24.76C73.7433 24.8133 72.4433 24.8533 71.19 24.88C71.1633 24.6133 71.1033 24.3067 71.01 23.96C70.9167 23.6133 70.8167 23.3333 70.71 23.12C71.95 23.0933 73.2233 23.0533 74.53 23C75.8367 22.9333 77.1167 22.8533 78.37 22.76C79.6233 22.6667 80.7967 22.56 81.89 22.44C82.9967 22.3067 83.9633 22.1533 84.79 21.98ZM72.59 24.94L74.49 24.14C74.77 24.4733 75.0433 24.8533 75.31 25.28C75.5767 25.6933 75.7567 26.0667 75.85 26.4L73.85 27.26C73.7567 26.94 73.59 26.56 73.35 26.12C73.11 25.68 72.8567 25.2867 72.59 24.94ZM76.93 24.52L78.85 23.82C79.1167 24.1933 79.3633 24.6067 79.59 25.06C79.83 25.5133 79.9967 25.9133 80.09 26.26L78.05 27.02C77.9833 26.6733 77.8433 26.2667 77.63 25.8C77.4167 25.3333 77.1833 24.9067 76.93 24.52ZM81.93 30.12L83.53 28.98C83.93 29.2733 84.33 29.6 84.73 29.96C85.1433 30.3067 85.5233 30.6667 85.87 31.04C86.23 31.4 86.51 31.74 86.71 32.06L84.99 33.34C84.8033 33.02 84.5433 32.6733 84.21 32.3C83.8767 31.9133 83.51 31.5333 83.11 31.16C82.71 30.7733 82.3167 30.4267 81.93 30.12ZM76.81 28.98L77.95 27.76C78.4567 27.9467 78.99 28.1933 79.55 28.5C80.11 28.8067 80.55 29.0933 80.87 29.36L79.67 30.7C79.3633 30.4333 78.9367 30.1333 78.39 29.8C77.8567 29.4667 77.33 29.1933 76.81 28.98ZM83.27 23.84L85.61 24.6C85.25 25.1333 84.8833 25.6533 84.51 26.16C84.15 26.6533 83.81 27.0733 83.49 27.42L81.71 26.74C81.8833 26.4733 82.07 26.1733 82.27 25.84C82.47 25.4933 82.6567 25.1467 82.83 24.8C83.0033 24.44 83.15 24.12 83.27 23.84ZM82.15 33.84H82.63L83.03 33.76L84.53 34.72C83.9033 35.6933 83.1167 36.5333 82.17 37.24C81.2233 37.9467 80.1567 38.5333 78.97 39C77.7833 39.48 76.51 39.8667 75.15 40.16C73.8033 40.4667 72.41 40.6933 70.97 40.84C70.9033 40.6533 70.7967 40.4333 70.65 40.18C70.5167 39.94 70.3633 39.7 70.19 39.46C70.03 39.22 69.8767 39.0267 69.73 38.88C71.13 38.7733 72.47 38.6133 73.75 38.4C75.0433 38.1733 76.2367 37.8733 77.33 37.5C78.4233 37.1267 79.3833 36.6667 80.21 36.12C81.0367 35.5733 81.6833 34.9267 82.15 34.18V33.84ZM75.67 34.96C76.23 35.5333 76.9233 36.04 77.75 36.48C78.59 36.92 79.5367 37.2933 80.59 37.6C81.6567 37.8933 82.81 38.1333 84.05 38.32C85.29 38.4933 86.59 38.6133 87.95 38.68C87.79 38.8533 87.6233 39.0667 87.45 39.32C87.2767 39.5733 87.11 39.8333 86.95 40.1C86.8033 40.3667 86.6767 40.6067 86.57 40.82C85.1833 40.7 83.8633 40.5067 82.61 40.24C81.3567 39.9867 80.19 39.6533 79.11 39.24C78.03 38.84 77.0433 38.3467 76.15 37.76C75.2567 37.1733 74.47 36.4867 73.79 35.7L75.67 34.96ZM76.69 32.22L78.77 32.94C78.21 33.6333 77.5433 34.28 76.77 34.88C76.01 35.48 75.2033 36.0133 74.35 36.48C73.4967 36.9467 72.6367 37.3467 71.77 37.68C71.65 37.5467 71.49 37.38 71.29 37.18C71.1033 36.98 70.9033 36.7867 70.69 36.6C70.49 36.4 70.31 36.24 70.15 36.12C71.03 35.8533 71.8767 35.5267 72.69 35.14C73.5167 34.74 74.2767 34.3 74.97 33.82C75.6633 33.3267 76.2367 32.7933 76.69 32.22ZM75.09 29.36H77.31V30.74C77.31 30.98 77.3567 31.1267 77.45 31.18C77.5567 31.2333 77.7833 31.26 78.13 31.26C78.1967 31.26 78.3233 31.26 78.51 31.26C78.6967 31.26 78.9033 31.26 79.13 31.26C79.3567 31.26 79.57 31.26 79.77 31.26C79.97 31.26 80.1167 31.26 80.21 31.26C80.3833 31.26 80.5167 31.24 80.61 31.2C80.7033 31.1467 80.77 31.0533 80.81 30.92C80.8633 30.7867 80.9033 30.5867 80.93 30.32C81.1433 30.44 81.43 30.56 81.79 30.68C82.15 30.8 82.47 30.8867 82.75 30.94C82.6833 31.46 82.5633 31.8667 82.39 32.16C82.23 32.44 81.9967 32.64 81.69 32.76C81.3833 32.8667 80.9833 32.92 80.49 32.92C80.3833 32.92 80.2433 32.92 80.07 32.92C79.8967 32.92 79.6967 32.92 79.47 32.92C79.2567 32.92 79.0367 32.92 78.81 32.92C78.5967 32.92 78.4033 32.92 78.23 32.92C78.0567 32.92 77.9167 32.92 77.81 32.92C77.09 32.92 76.53 32.86 76.13 32.74C75.73 32.6067 75.4567 32.3867 75.31 32.08C75.1633 31.76 75.09 31.32 75.09 30.76V29.36ZM73.27 29.34L75.07 30.12C74.79 30.76 74.4367 31.3867 74.01 32C73.5833 32.6 73.0367 33.1067 72.37 33.52L70.73 32.2C71.3033 31.88 71.81 31.4667 72.25 30.96C72.69 30.44 73.03 29.9 73.27 29.34ZM76.19 33.84H82.71V35.48H74.55L76.19 33.84Z" fill="#F50087"/>
<path d="M112.82 29.8V37.18H110.52V32.02H108.26V29.8H112.82ZM112.82 36.22C113.207 36.8867 113.753 37.38 114.46 37.7C115.167 38.0067 116.027 38.18 117.04 38.22C117.64 38.2467 118.36 38.2667 119.2 38.28C120.053 38.28 120.94 38.2733 121.86 38.26C122.793 38.2467 123.7 38.2267 124.58 38.2C125.473 38.16 126.273 38.1067 126.98 38.04C126.887 38.2133 126.787 38.4467 126.68 38.74C126.587 39.02 126.493 39.3067 126.4 39.6C126.32 39.8933 126.26 40.1533 126.22 40.38C125.607 40.42 124.9 40.4467 124.1 40.46C123.3 40.4733 122.473 40.48 121.62 40.48C120.767 40.4933 119.94 40.4933 119.14 40.48C118.34 40.48 117.633 40.4667 117.02 40.44C115.82 40.3867 114.8 40.1933 113.96 39.86C113.12 39.5267 112.4 38.9733 111.8 38.2C111.413 38.6 111 38.9933 110.56 39.38C110.133 39.78 109.667 40.1933 109.16 40.62L108.02 38.24C108.447 37.96 108.893 37.6467 109.36 37.3C109.84 36.9533 110.3 36.5933 110.74 36.22H112.82ZM108.34 23.88L110.16 22.52C110.547 22.8133 110.947 23.1467 111.36 23.52C111.773 23.8933 112.153 24.2667 112.5 24.64C112.847 25.0133 113.127 25.3667 113.34 25.7L111.36 27.22C111.173 26.8867 110.913 26.5267 110.58 26.14C110.26 25.74 109.9 25.3467 109.5 24.96C109.1 24.56 108.713 24.2 108.34 23.88ZM121 22.24L123.64 22.72C123.307 23.4133 122.967 24.1 122.62 24.78C122.273 25.4467 121.953 26.0133 121.66 26.48L119.66 25.98C119.833 25.62 120 25.2267 120.16 24.8C120.333 24.3733 120.493 23.94 120.64 23.5C120.787 23.0467 120.907 22.6267 121 22.24ZM117.22 24.88H126.1V26.9H117.22V35.78H114.9V26.7L116.74 24.88H117.22ZM116.24 28.18H125.56V30.1H116.24V28.18ZM116.24 31.4H125.48V33.34H116.24V31.4ZM114.9 34.72H126.44V36.72H114.9V34.72ZM119.84 25.74H122.12V35.62H119.84V25.74ZM116.5 22.08L118.9 22.76C118.513 23.7067 118.047 24.6333 117.5 25.54C116.967 26.4333 116.387 27.2733 115.76 28.06C115.133 28.8333 114.487 29.5067 113.82 30.08C113.7 29.92 113.533 29.72 113.32 29.48C113.107 29.24 112.887 29 112.66 28.76C112.433 28.52 112.233 28.3333 112.06 28.2C112.993 27.48 113.853 26.58 114.64 25.5C115.427 24.42 116.047 23.28 116.5 22.08ZM138.38 38H144.68V40.06H138.38V38ZM139.24 23.9H144.32V25.94H139.24V23.9ZM137.4 33.32H145.68V40.68H143.38V35.34H139.6V40.74H137.4V33.32ZM143.48 23.9H143.9L144.32 23.82L145.84 24.48C145.48 25.72 145.007 26.86 144.42 27.9C143.833 28.9267 143.153 29.8533 142.38 30.68C141.607 31.4933 140.76 32.2133 139.84 32.84C138.933 33.4533 137.967 33.9733 136.94 34.4C136.807 34.1333 136.607 33.82 136.34 33.46C136.073 33.1 135.827 32.8133 135.6 32.6C136.493 32.2667 137.353 31.8333 138.18 31.3C139.02 30.7533 139.787 30.1267 140.48 29.42C141.173 28.7 141.773 27.9133 142.28 27.06C142.8 26.1933 143.2 25.2733 143.48 24.3V23.9ZM139.32 21.98L141.6 22.56C141.307 23.4533 140.953 24.3267 140.54 25.18C140.127 26.0333 139.667 26.8333 139.16 27.58C138.667 28.3133 138.147 28.9533 137.6 29.5C137.467 29.3533 137.287 29.18 137.06 28.98C136.833 28.78 136.6 28.5867 136.36 28.4C136.133 28.2 135.927 28.0467 135.74 27.94C136.527 27.2467 137.233 26.3733 137.86 25.32C138.487 24.2667 138.973 23.1533 139.32 21.98ZM139.38 25.02C139.66 25.7 140.033 26.3933 140.5 27.1C140.98 27.7933 141.547 28.46 142.2 29.1C142.853 29.74 143.6 30.32 144.44 30.84C145.28 31.36 146.207 31.78 147.22 32.1C147.06 32.2467 146.88 32.4467 146.68 32.7C146.493 32.94 146.313 33.1867 146.14 33.44C145.98 33.6933 145.84 33.92 145.72 34.12C144.693 33.72 143.753 33.22 142.9 32.62C142.06 32.0067 141.313 31.34 140.66 30.62C140.007 29.8867 139.433 29.1333 138.94 28.36C138.46 27.5733 138.067 26.8133 137.76 26.08L139.38 25.02ZM128.92 30.82H130.86V38.1H128.92V30.82ZM131.14 24.8V27.36H133.78V24.8H131.14ZM129.06 22.76H135.98V29.4H129.06V22.76ZM131.86 28.58H133.98V37.52H131.86V28.58ZM128.02 37.72C128.727 37.6 129.533 37.4467 130.44 37.26C131.36 37.0733 132.327 36.8733 133.34 36.66C134.353 36.4333 135.353 36.2067 136.34 35.98L136.58 38.1C135.167 38.4333 133.74 38.7733 132.3 39.12C130.86 39.4667 129.573 39.7733 128.44 40.04L128.02 37.72ZM132.72 31.74H136.18V33.84H132.72V31.74Z" fill="#5B9037"/>
<path d="M24.2578 73.125C26.6927 73.112 28.6426 72.8874 30.1074 72.4512C31.5788 72.015 32.6497 71.3346 33.3203 70.4102C33.9974 69.4792 34.3359 68.2487 34.3359 66.7188V64.4531H24.3555V68.9258H21.7969V62.2266H27.9688V59.4141H30.5273V62.2266H36.9531V66.7188C36.9531 68.6914 36.5137 70.319 35.6348 71.6016C34.7559 72.8841 33.4147 73.8477 31.6113 74.4922C29.8079 75.1302 27.5065 75.4622 24.707 75.4883L24.2578 73.125ZM41.5625 68.7305C42.8971 68.5352 44.3099 68.1445 45.8008 67.5586C47.2982 66.9727 48.7142 66.2598 50.0488 65.4199C51.3835 64.5801 52.487 63.6979 53.3594 62.7734L54.8438 64.5117C54.2448 65.1302 53.5384 65.7357 52.7246 66.3281C51.9108 66.9206 51.0286 67.4805 50.0781 68.0078V75.918H47.5586V69.248C45.5534 70.1139 43.6784 70.6771 41.9336 70.9375L41.5625 68.7305ZM59.6875 66.7773H74.0625V69.082H59.6875V66.7773ZM78.5352 73.125C82.0768 72.9948 84.7786 72.1549 86.6406 70.6055C88.5026 69.0495 89.5475 66.7643 89.7754 63.75H77.6758V61.3281H89.5996C89.3522 60.7357 89.056 60.1237 88.7109 59.4922L90.3906 58.8672C90.8138 59.6289 91.1882 60.4492 91.5137 61.3281H92.2656L92.4414 62.4609C92.4349 65.2148 91.9206 67.5488 90.8984 69.4629C89.8763 71.377 88.3626 72.8418 86.3574 73.8574C84.3587 74.8665 81.8945 75.4102 78.9648 75.4883L78.5352 73.125ZM93.1641 62.8906C92.9622 62.181 92.7474 61.5365 92.5195 60.957C92.2982 60.3711 92.0378 59.7786 91.7383 59.1797L93.3984 58.6328C93.7044 59.2318 93.9714 59.834 94.1992 60.4395C94.4271 61.0384 94.6419 61.6992 94.8438 62.4219L93.1641 62.8906ZM104.941 75.1758C104.453 75.1758 103.802 75.0911 102.988 74.9219C102.174 74.7526 101.406 74.5443 100.684 74.2969L101.23 72.1484C101.836 72.3503 102.419 72.5195 102.979 72.6562C103.538 72.7865 103.952 72.8516 104.219 72.8516C104.596 72.8516 104.899 72.6855 105.127 72.3535C105.361 72.015 105.531 71.4746 105.635 70.7324C105.745 69.9837 105.801 68.9909 105.801 67.7539C105.801 66.7773 105.752 66.0742 105.654 65.6445C105.557 65.2148 105.365 64.9251 105.078 64.7754C104.792 64.6257 104.323 64.5508 103.672 64.5508H101.68C101.289 66.3411 100.827 68.0892 100.293 69.7949C99.7591 71.4941 99.069 73.444 98.2227 75.6445L95.8594 74.9023C96.6862 72.7279 97.3438 70.8757 97.832 69.3457C98.3203 67.8158 98.75 66.2174 99.1211 64.5508H95.6836V62.3242H99.5801C99.7428 61.4714 99.9219 60.4557 100.117 59.2773L102.617 59.5508C102.487 60.3711 102.324 61.2956 102.129 62.3242H103.418C105 62.3242 106.113 62.4447 106.758 62.6855C107.409 62.9264 107.839 63.4245 108.047 64.1797C108.255 64.9284 108.359 66.2174 108.359 68.0469C108.359 69.7135 108.242 71.071 108.008 72.1191C107.773 73.1608 107.406 73.9323 106.904 74.4336C106.403 74.9284 105.749 75.1758 104.941 75.1758ZM110.996 71.4258C110.807 69.9609 110.482 68.3333 110.02 66.543C109.564 64.7461 109.076 63.1641 108.555 61.7969L110.957 61.2109C111.491 62.5846 111.982 64.1602 112.432 65.9375C112.887 67.7083 113.229 69.375 113.457 70.9375L110.996 71.4258ZM123.047 75.4688C122.005 75.4688 120.866 75.4036 119.629 75.2734C118.398 75.1497 117.357 74.9935 116.504 74.8047L116.719 72.5586C117.819 72.7604 118.936 72.9232 120.068 73.0469C121.201 73.1641 122.194 73.2227 123.047 73.2227C124.727 73.2227 125.993 72.9818 126.846 72.5C127.699 72.0182 128.125 71.3021 128.125 70.3516C128.125 69.5703 127.829 68.9746 127.236 68.5645C126.65 68.1543 125.794 67.9492 124.668 67.9492C123.49 67.9492 122.311 68.1478 121.133 68.5449C119.961 68.9421 118.952 69.4857 118.105 70.1758L115.801 69.6875C116.048 68.4831 116.247 67.4219 116.396 66.5039C116.553 65.5859 116.68 64.6875 116.777 63.8086L119.258 64.0039C119.16 65.0065 119.01 66.1133 118.809 67.3242C119.733 66.7839 120.69 66.3835 121.68 66.123C122.676 65.8561 123.724 65.7227 124.824 65.7227C126.784 65.7227 128.258 66.1068 129.248 66.875C130.244 67.6367 130.742 68.776 130.742 70.293C130.742 72.0117 130.098 73.304 128.809 74.1699C127.526 75.0358 125.605 75.4688 123.047 75.4688ZM128.594 62.8906C128.294 62.8906 128.073 62.8971 127.93 62.9102H127.285C125.788 62.9102 124.329 62.8646 122.91 62.7734C121.491 62.6758 120.007 62.526 118.457 62.3242L118.75 60.0977C121.875 60.4622 125.156 60.6445 128.594 60.6445V62.8906ZM137.58 66.54H147.36V68.2H137.58V66.54ZM140.24 69H144.8V70.32H140.24V69ZM140.24 71.18H144.8V72.5H140.24V71.18ZM144 67.4H146.16V76.24H144V67.4ZM138.76 67.42H140.86V74.26H138.76V67.42ZM137.36 73.76C138.027 73.72 138.787 73.68 139.64 73.64C140.507 73.5867 141.42 73.5333 142.38 73.48C143.34 73.4133 144.3 73.3467 145.26 73.28L145.28 74.94C143.88 75.06 142.493 75.1667 141.12 75.26C139.747 75.3533 138.527 75.4467 137.46 75.54L137.36 73.76ZM135.28 61.44H140.3V62.98H135.28V61.44ZM144.56 61.44H149.6V62.98H144.56V61.44ZM148.66 58.78H151.02V74.02C151.02 74.6067 150.953 75.08 150.82 75.44C150.7 75.8 150.467 76.08 150.12 76.28C149.76 76.48 149.32 76.6067 148.8 76.66C148.293 76.7133 147.673 76.7333 146.94 76.72C146.913 76.5067 146.867 76.2533 146.8 75.96C146.733 75.68 146.647 75.3933 146.54 75.1C146.447 74.8067 146.347 74.56 146.24 74.36C146.653 74.3733 147.06 74.3867 147.46 74.4C147.873 74.4 148.153 74.3933 148.3 74.38C148.433 74.38 148.527 74.3533 148.58 74.3C148.633 74.2333 148.66 74.1333 148.66 74V58.78ZM135.5 58.78H141.82V65.7H135.5V64.02H139.58V60.46H135.5V58.78ZM149.9 58.78V60.46H145.4V64.06H149.9V65.76H143.12V58.78H149.9ZM134.08 58.78H136.42V76.8H134.08V58.78ZM158.496 75.3125C157.63 75.3125 156.852 74.974 156.162 74.2969C155.479 73.6133 154.945 72.666 154.561 71.4551C154.176 70.2376 153.984 68.8607 153.984 67.3242C153.984 65.5469 154.31 63.4831 154.961 61.1328L157.5 61.4258C156.888 63.4896 156.582 65.3646 156.582 67.0508C156.582 68.0534 156.676 68.9779 156.865 69.8242C157.061 70.6641 157.321 71.3314 157.646 71.8262C157.979 72.3145 158.333 72.5586 158.711 72.5586C159.069 72.5586 159.486 72.347 159.961 71.9238C160.443 71.5007 160.911 70.944 161.367 70.2539C161.829 69.5573 162.207 68.8216 162.5 68.0469L164.785 69.2383C164.382 70.3711 163.835 71.3997 163.145 72.3242C162.454 73.2487 161.699 73.9779 160.879 74.5117C160.059 75.0456 159.264 75.3125 158.496 75.3125ZM167.676 73.4766C167.676 71.3411 167.464 69.2318 167.041 67.1484C166.624 65.0586 166.035 63.1771 165.273 61.5039L167.676 60.8203C168.516 62.5651 169.157 64.5182 169.6 66.6797C170.049 68.8346 170.273 71.1003 170.273 73.4766H167.676ZM184.258 75.4102C182.728 75.4102 181.39 75.153 180.244 74.6387C179.105 74.1243 178.226 73.3952 177.607 72.4512C176.989 71.5007 176.68 70.3906 176.68 69.1211C176.68 67.9297 176.953 66.8392 177.5 65.8496C178.053 64.8535 178.822 64.0527 179.805 63.4473L172.539 63.6133V61.3086L188.418 60.9375V63.2227L186.035 63.2812C184.792 63.3138 183.665 63.5645 182.656 64.0332C181.654 64.502 180.863 65.153 180.283 65.9863C179.704 66.8132 179.414 67.7669 179.414 68.8477C179.414 69.7266 179.606 70.4818 179.99 71.1133C180.381 71.7383 180.941 72.2168 181.67 72.5488C182.399 72.8809 183.268 73.0469 184.277 73.0469C184.661 73.0469 185.075 73.0306 185.518 72.998C185.96 72.9655 186.348 72.9167 186.68 72.8516L186.953 75.2148C186.152 75.3451 185.254 75.4102 184.258 75.4102ZM200.625 70.7617H198.125L197.871 60.8594H200.879L200.625 70.7617ZM199.395 75.1758C199.095 75.1758 198.818 75.1009 198.564 74.9512C198.311 74.8014 198.109 74.6029 197.959 74.3555C197.816 74.1016 197.747 73.8281 197.754 73.5352C197.747 73.2422 197.816 72.972 197.959 72.7246C198.109 72.4772 198.311 72.2819 198.564 72.1387C198.818 71.9889 199.095 71.9141 199.395 71.9141C199.674 71.9141 199.938 71.9889 200.186 72.1387C200.439 72.2819 200.641 72.4772 200.791 72.7246C200.941 72.972 201.016 73.2422 201.016 73.5352C201.016 73.8281 200.941 74.1016 200.791 74.3555C200.641 74.6029 200.439 74.8014 200.186 74.9512C199.938 75.1009 199.674 75.1758 199.395 75.1758Z" fill="white"/>
</g>
<defs>
<clipPath id="clip0_1712_2782">
<rect width="350" height="100" fill="white"/>
</clipPath>
<clipPath id="clip1_1712_2782">
<rect width="87.5868" height="107.732" fill="white" transform="translate(273 20)"/>
</clipPath>
<clipPath id="clip2_1712_2782">
<rect width="87.5868" height="103.352" fill="white" transform="translate(215 42.332) rotate(-4.1457)"/>
</clipPath>
</defs>
</svg>
