<svg width="350" height="100" viewBox="0 0 350 100" fill="none" xmlns="http://www.w3.org/2000/svg">
<g clip-path="url(#clip0_1712_2683)">
<rect width="350" height="100" fill="#53CB8A"/>
<g clip-path="url(#clip1_1712_2683)">
<path d="M14.6653 92.7212L25.6136 93.5971L22.5481 111.99L30.431 115.275H12.4756L14.6653 92.7212Z" fill="#345FAD"/>
<path d="M31.0605 93.8474L41.1834 89.585L46.9291 107.324L55.439 106.611L39.4995 114.877L31.0605 93.8474Z" fill="#345FAD"/>
<path d="M76.2348 10.9214L-11.0781 4L-17.9995 91.3129L69.3134 98.2343L76.2348 10.9214Z" fill="#345FAD"/>
<path d="M37.6006 33.5832L37.2568 27.0232" stroke="#051042" stroke-width="1.75174"/>
<path d="M46.3477 33.1245L46.0039 26.5645" stroke="#051042" stroke-width="1.75174"/>
<path d="M29.878 36.8383L54.8061 35.5318C57.2414 35.4042 59.3335 37.1956 59.6133 39.5838C59.4802 39.552 59.3102 39.5138 59.1211 39.4767C58.6744 39.3892 58.0994 39.3037 57.6351 39.3304C57.1788 39.3565 56.8381 39.4938 56.5289 39.6183L56.5118 39.6253C56.1974 39.7518 55.9136 39.8632 55.5296 39.8793C55.1643 39.8945 54.8858 39.816 54.577 39.7264L54.5604 39.7215C54.2565 39.6332 53.9215 39.5358 53.487 39.5478C52.9904 39.5615 52.6199 39.706 52.281 39.8381L52.277 39.8397C51.9367 39.9723 51.628 40.0918 51.2128 40.1055C50.8353 40.118 50.5472 40.0375 50.2292 39.948L50.2253 39.9468C49.9082 39.8576 49.5623 39.7601 49.1116 39.7771C48.6264 39.7953 48.2651 39.9367 47.9345 40.0661L47.9305 40.0677C47.5986 40.1976 47.2977 40.3146 46.8917 40.3319C46.505 40.3485 46.209 40.2666 45.8827 40.1755L45.8784 40.1743C45.5534 40.0836 45.1978 39.9845 44.7358 40.0064C44.2628 40.0289 43.9107 40.1674 43.5884 40.2941L43.5845 40.2957C43.2608 40.423 42.9674 40.5376 42.5711 40.5584C42.1752 40.5791 41.8713 40.4957 41.5362 40.403L41.5319 40.4019C41.1982 40.3095 40.8334 40.2085 40.3604 40.2357C39.8988 40.2622 39.5559 40.3979 39.2419 40.5222L39.238 40.5237C38.9227 40.6485 38.6367 40.7608 38.2504 40.7848C37.8449 40.81 37.5335 40.725 37.1897 40.6306L37.1854 40.6294C36.8433 40.5353 36.4693 40.4325 35.985 40.465C35.5401 40.495 35.2081 40.6294 34.9072 40.7515L34.8906 40.7582C34.5849 40.8821 34.3081 40.9914 33.9337 41.011C33.5593 41.0306 33.2729 40.9509 32.9558 40.8596L32.9387 40.8546C32.6265 40.7648 32.2823 40.6657 31.8369 40.6824C31.3521 40.7007 30.9903 40.8421 30.6601 40.9714L30.6558 40.973C30.3238 41.1029 30.023 41.2199 29.6174 41.2373C29.2303 41.2538 28.9342 41.1719 28.608 41.0808L28.604 41.0797C28.2787 40.9889 27.9231 40.8898 27.4615 40.9117C26.9968 40.9338 26.4336 41.0789 25.9988 41.2126C25.8144 41.2693 25.6498 41.3249 25.5205 41.3706C25.5494 38.9661 27.4426 36.9659 29.878 36.8383Z" fill="#051042" stroke="#051042" stroke-width="0.437934"/>
<path d="M42.6175 37.2668C44.0666 37.1909 45.2055 36.444 45.1612 35.5987C45.1169 34.7533 43.9062 34.1296 42.457 34.2055C41.0078 34.2814 39.8689 35.0283 39.9132 35.8737C39.9575 36.7191 41.1683 37.3428 42.6175 37.2668Z" fill="#EE9CC4"/>
</g>
<g clip-path="url(#clip2_1712_2683)">
<path d="M85.1683 17.6175L121.171 112.53L37.6981 107.158L85.1683 17.6175Z" fill="#05A552"/>
<path d="M72.4999 54.5666C72.4999 54.5666 78.6493 59.3601 78.2975 60.3307C78.0275 61.0753 70.0883 60.9269 70.0883 60.9269" stroke="#005227" stroke-width="1.75174"/>
<path d="M92.7231 55.8441C92.7231 55.8441 86.2916 60.4098 86.4919 61.1363C86.6922 61.863 94.6291 62.3738 94.6291 62.3738" stroke="#005227" stroke-width="1.75174"/>
<path d="M72.4483 64.9668C72.4601 64.7828 72.6188 64.6434 72.8027 64.6552L91.366 65.8499C91.55 65.8618 91.6894 66.0204 91.6776 66.2044C91.4409 69.8824 88.2676 72.672 84.5895 72.4353L78.6792 72.0549C75.0012 71.8182 72.2116 68.6449 72.4483 64.9668Z" fill="#051042"/>
<path d="M75.9668 64.8589L87.7666 65.6183C87.7044 66.5837 86.8713 67.3161 85.9059 67.2539L77.6024 66.7195C76.6369 66.6574 75.9047 65.8243 75.9668 64.8589Z" fill="white"/>
</g>
<g clip-path="url(#clip3_1712_2683)">
<path d="M-11.497 117.934L31.1653 132.523L66.0925 104.008L66.0913 104.009L58.2777 60.4728L15.6928 46.314L-19.3107 74.398L-11.497 117.934Z" fill="#EE9CC4"/>
<path d="M38.4922 79.738C38.4922 79.738 37.9563 82.8563 34.2002 83.5836C30.444 84.3108 29.1019 81.556 29.1019 81.556" stroke="#781B4E" stroke-width="1.75174"/>
<path d="M39.5718 74.739L38.6434 69.5665" stroke="#781B4E" stroke-width="1.75174"/>
<path d="M26.1236 77.1526L25.1952 71.98" stroke="#781B4E" stroke-width="1.75174"/>
<path d="M48.4054 69.4162C48.4054 69.4162 49.5195 75.6233 42.7951 76.8302C36.0708 78.037 35.1424 72.8645 35.1424 72.8645L29.9699 73.7928C29.9699 73.7928 30.8982 78.9654 24.1739 80.1722C17.4495 81.3791 16.3355 75.172 16.3355 75.172" stroke="#781B4E" stroke-width="1.75174"/>
</g>
<path d="M153.68 24.8594H165.262V27.2812H160.926V39H158.016V27.2812H153.68V24.8594ZM170.281 39.2148C169.207 39.2148 168.276 38.9935 167.488 38.5508C166.707 38.1081 166.105 37.4766 165.682 36.6562C165.258 35.8294 165.047 34.8594 165.047 33.7461C165.047 32.6589 165.255 31.7018 165.672 30.875C166.095 30.0417 166.694 29.3971 167.469 28.9414C168.243 28.4857 169.142 28.2578 170.164 28.2578C171.115 28.2578 171.964 28.4596 172.713 28.8633C173.468 29.2604 174.061 29.8626 174.49 30.6699C174.926 31.4772 175.145 32.4635 175.145 33.6289V34.4492H167.898C167.898 34.9766 167.996 35.4355 168.191 35.8262C168.393 36.2168 168.676 36.5195 169.041 36.7344C169.412 36.9427 169.845 37.0469 170.34 37.0469C170.815 37.0469 171.225 36.9525 171.57 36.7637C171.915 36.5684 172.163 36.3047 172.312 35.9727H175.066C174.93 36.6237 174.65 37.1934 174.227 37.6816C173.803 38.1699 173.253 38.5475 172.576 38.8145C171.906 39.0814 171.141 39.2148 170.281 39.2148ZM172.41 32.6328C172.41 32.2096 172.316 31.832 172.127 31.5C171.945 31.1615 171.688 30.8978 171.355 30.709C171.023 30.5202 170.646 30.4258 170.223 30.4258C169.793 30.4258 169.402 30.5234 169.051 30.7188C168.706 30.9141 168.429 31.181 168.221 31.5195C168.019 31.8581 167.911 32.2292 167.898 32.6328H172.41ZM179.852 39H176.961V24.8594H179.852V39ZM184.988 39H182.098V24.8594H184.988V39ZM198.641 28.3945H201.531V39H198.758V37.0859H198.641C198.387 37.7174 197.98 38.2188 197.42 38.5898C196.867 38.9544 196.199 39.1367 195.418 39.1367C194.708 39.1367 194.083 38.9772 193.543 38.6582C193.009 38.3392 192.592 37.8802 192.293 37.2812C191.993 36.6758 191.844 35.9661 191.844 35.1523V28.3945H194.734V34.6445C194.734 35.2695 194.9 35.7676 195.232 36.1387C195.571 36.5098 196.023 36.6953 196.59 36.6953C196.954 36.6953 197.293 36.6107 197.605 36.4414C197.918 36.2656 198.169 36.0117 198.357 35.6797C198.546 35.3477 198.641 34.9505 198.641 34.4883V28.3945ZM209.832 31.5391C209.773 31.168 209.588 30.8717 209.275 30.6504C208.963 30.4225 208.569 30.3086 208.094 30.3086C207.781 30.3086 207.498 30.3574 207.244 30.4551C206.997 30.5462 206.801 30.6764 206.658 30.8457C206.515 31.0085 206.447 31.194 206.453 31.4023C206.434 31.9036 206.889 32.2552 207.82 32.457L209.715 32.8477C210.743 33.0625 211.508 33.4043 212.01 33.873C212.518 34.3418 212.775 34.957 212.781 35.7188C212.775 36.4089 212.573 37.0176 212.176 37.5449C211.785 38.0723 211.235 38.4824 210.525 38.7754C209.816 39.0684 208.999 39.2148 208.074 39.2148C207.13 39.2148 206.313 39.0814 205.623 38.8145C204.933 38.541 204.389 38.1536 203.992 37.6523C203.602 37.1445 203.367 36.5456 203.289 35.8555H206.199C206.264 36.2721 206.46 36.5879 206.785 36.8027C207.111 37.0176 207.54 37.125 208.074 37.125C208.602 37.125 209.025 37.0241 209.344 36.8223C209.669 36.6204 209.832 36.3503 209.832 36.0117C209.832 35.7383 209.715 35.5169 209.48 35.3477C209.253 35.1719 208.888 35.0286 208.387 34.918L206.629 34.5664C205.626 34.3711 204.865 34.0163 204.344 33.502C203.823 32.9876 203.569 32.3398 203.582 31.5586C203.576 30.888 203.755 30.3053 204.119 29.8105C204.484 29.3092 205.005 28.9251 205.682 28.6582C206.359 28.3913 207.15 28.2578 208.055 28.2578C208.934 28.2578 209.702 28.3913 210.359 28.6582C211.017 28.9251 211.531 29.306 211.902 29.8008C212.28 30.2891 212.495 30.8685 212.547 31.5391H209.832ZM220.867 42.9844C220.262 42.9844 219.773 42.9648 219.402 42.9258V40.6797C219.897 40.7057 220.288 40.7188 220.574 40.7188C220.802 40.7188 220.991 40.6992 221.141 40.6602C221.297 40.6211 221.443 40.5299 221.58 40.3867C221.723 40.2435 221.85 40.0286 221.961 39.7422L222.137 39.293L218.328 28.3945H221.355L223.582 36.207H223.699L225.945 28.3945H229.012L224.871 40.1719C224.552 41.0768 224.074 41.7702 223.436 42.252C222.798 42.7402 221.941 42.9844 220.867 42.9844ZM234.832 39.2148C233.777 39.2148 232.859 38.987 232.078 38.5312C231.297 38.0755 230.695 37.4342 230.271 36.6074C229.848 35.7741 229.637 34.8138 229.637 33.7266C229.637 32.6393 229.845 31.6823 230.262 30.8555C230.685 30.0286 231.287 29.3906 232.068 28.9414C232.856 28.4857 233.777 28.2578 234.832 28.2578C235.887 28.2578 236.808 28.4857 237.596 28.9414C238.383 29.3906 238.989 30.0286 239.412 30.8555C239.835 31.6823 240.047 32.6393 240.047 33.7266C240.047 34.8138 239.835 35.7741 239.412 36.6074C238.989 37.4342 238.383 38.0755 237.596 38.5312C236.808 38.987 235.887 39.2148 234.832 39.2148ZM234.852 36.9688C235.333 36.9688 235.743 36.832 236.082 36.5586C236.421 36.2786 236.674 35.8945 236.844 35.4062C237.013 34.918 237.098 34.3581 237.098 33.7266C237.098 33.0951 237.013 32.5352 236.844 32.0469C236.674 31.5521 236.421 31.1647 236.082 30.8848C235.743 30.6048 235.333 30.4648 234.852 30.4648C234.363 30.4648 233.947 30.6048 233.602 30.8848C233.263 31.1647 233.006 31.5521 232.83 32.0469C232.654 32.5352 232.566 33.0951 232.566 33.7266C232.566 34.3516 232.654 34.9115 232.83 35.4062C233.006 35.8945 233.263 36.2786 233.602 36.5586C233.947 36.832 234.363 36.9688 234.852 36.9688ZM248.66 28.3945H251.551V39H248.777V37.0859H248.66C248.406 37.7174 247.999 38.2188 247.439 38.5898C246.886 38.9544 246.219 39.1367 245.438 39.1367C244.728 39.1367 244.103 38.9772 243.562 38.6582C243.029 38.3392 242.612 37.8802 242.312 37.2812C242.013 36.6758 241.863 35.9661 241.863 35.1523V28.3945H244.754V34.6445C244.754 35.2695 244.92 35.7676 245.252 36.1387C245.59 36.5098 246.043 36.6953 246.609 36.6953C246.974 36.6953 247.312 36.6107 247.625 36.4414C247.938 36.2656 248.188 36.0117 248.377 35.6797C248.566 35.3477 248.66 34.9505 248.66 34.4883V28.3945ZM253.797 28.3945H256.59V30.2305H256.707C256.896 29.5859 257.218 29.0944 257.674 28.7559C258.13 28.4108 258.66 28.2383 259.266 28.2383C259.598 28.2383 259.904 28.2708 260.184 28.3359V30.9141C260.04 30.875 259.848 30.8392 259.607 30.8066C259.367 30.7741 259.148 30.7578 258.953 30.7578C258.523 30.7578 258.136 30.8522 257.791 31.041C257.446 31.2298 257.176 31.4935 256.98 31.832C256.785 32.1641 256.688 32.5417 256.688 32.9648V39H253.797V28.3945ZM265.398 28.3945H268.328L269.988 35.5625H270.086L271.824 28.3945H274.695L276.453 35.5234H276.551L278.191 28.3945H281.121L278.211 39H275.164L273.328 32.2617H273.191L271.355 39H268.289L265.398 28.3945ZM287.078 39.2148C286.023 39.2148 285.105 38.987 284.324 38.5312C283.543 38.0755 282.941 37.4342 282.518 36.6074C282.094 35.7741 281.883 34.8138 281.883 33.7266C281.883 32.6393 282.091 31.6823 282.508 30.8555C282.931 30.0286 283.533 29.3906 284.314 28.9414C285.102 28.4857 286.023 28.2578 287.078 28.2578C288.133 28.2578 289.054 28.4857 289.842 28.9414C290.63 29.3906 291.235 30.0286 291.658 30.8555C292.081 31.6823 292.293 32.6393 292.293 33.7266C292.293 34.8138 292.081 35.7741 291.658 36.6074C291.235 37.4342 290.63 38.0755 289.842 38.5312C289.054 38.987 288.133 39.2148 287.078 39.2148ZM287.098 36.9688C287.579 36.9688 287.99 36.832 288.328 36.5586C288.667 36.2786 288.921 35.8945 289.09 35.4062C289.259 34.918 289.344 34.3581 289.344 33.7266C289.344 33.0951 289.259 32.5352 289.09 32.0469C288.921 31.5521 288.667 31.1647 288.328 30.8848C287.99 30.6048 287.579 30.4648 287.098 30.4648C286.609 30.4648 286.193 30.6048 285.848 30.8848C285.509 31.1647 285.252 31.5521 285.076 32.0469C284.9 32.5352 284.812 33.0951 284.812 33.7266C284.812 34.3516 284.9 34.9115 285.076 35.4062C285.252 35.8945 285.509 36.2786 285.848 36.5586C286.193 36.832 286.609 36.9688 287.098 36.9688ZM294.109 28.3945H296.902V30.2305H297.02C297.208 29.5859 297.531 29.0944 297.986 28.7559C298.442 28.4108 298.973 28.2383 299.578 28.2383C299.91 28.2383 300.216 28.2708 300.496 28.3359V30.9141C300.353 30.875 300.161 30.8392 299.92 30.8066C299.679 30.7741 299.461 30.7578 299.266 30.7578C298.836 30.7578 298.449 30.8522 298.104 31.041C297.758 31.2298 297.488 31.4935 297.293 31.832C297.098 32.1641 297 32.5417 297 32.9648V39H294.109V28.3945ZM301.902 28.3945H304.695V30.2305H304.812C305.001 29.5859 305.324 29.0944 305.779 28.7559C306.235 28.4108 306.766 28.2383 307.371 28.2383C307.703 28.2383 308.009 28.2708 308.289 28.3359V30.9141C308.146 30.875 307.954 30.8392 307.713 30.8066C307.472 30.7741 307.254 30.7578 307.059 30.7578C306.629 30.7578 306.242 30.8522 305.896 31.041C305.551 31.2298 305.281 31.4935 305.086 31.832C304.891 32.1641 304.793 32.5417 304.793 32.9648V39H301.902V28.3945ZM309.695 28.3945H312.586V39H309.695V28.3945ZM311.141 27.0078C310.854 27.0078 310.587 26.9427 310.34 26.8125C310.099 26.6758 309.907 26.4967 309.764 26.2754C309.627 26.0475 309.559 25.8034 309.559 25.543C309.559 25.276 309.627 25.0286 309.764 24.8008C309.907 24.5729 310.099 24.3939 310.34 24.2637C310.587 24.127 310.854 24.0586 311.141 24.0586C311.421 24.0586 311.681 24.127 311.922 24.2637C312.163 24.3939 312.352 24.5729 312.488 24.8008C312.632 25.0286 312.703 25.276 312.703 25.543C312.703 25.8034 312.632 26.0475 312.488 26.2754C312.352 26.4967 312.163 26.6758 311.922 26.8125C311.681 26.9427 311.421 27.0078 311.141 27.0078ZM319.637 39.2148C318.562 39.2148 317.632 38.9935 316.844 38.5508C316.062 38.1081 315.46 37.4766 315.037 36.6562C314.614 35.8294 314.402 34.8594 314.402 33.7461C314.402 32.6589 314.611 31.7018 315.027 30.875C315.451 30.0417 316.049 29.3971 316.824 28.9414C317.599 28.4857 318.497 28.2578 319.52 28.2578C320.47 28.2578 321.32 28.4596 322.068 28.8633C322.824 29.2604 323.416 29.8626 323.846 30.6699C324.282 31.4772 324.5 32.4635 324.5 33.6289V34.4492H317.254C317.254 34.9766 317.352 35.4355 317.547 35.8262C317.749 36.2168 318.032 36.5195 318.396 36.7344C318.768 36.9427 319.201 37.0469 319.695 37.0469C320.171 37.0469 320.581 36.9525 320.926 36.7637C321.271 36.5684 321.518 36.3047 321.668 35.9727H324.422C324.285 36.6237 324.005 37.1934 323.582 37.6816C323.159 38.1699 322.609 38.5475 321.932 38.8145C321.261 39.0814 320.496 39.2148 319.637 39.2148ZM321.766 32.6328C321.766 32.2096 321.671 31.832 321.482 31.5C321.3 31.1615 321.043 30.8978 320.711 30.709C320.379 30.5202 320.001 30.4258 319.578 30.4258C319.148 30.4258 318.758 30.5234 318.406 30.7188C318.061 30.9141 317.785 31.181 317.576 31.5195C317.374 31.8581 317.267 32.2292 317.254 32.6328H321.766ZM332.371 31.5391C332.312 31.168 332.127 30.8717 331.814 30.6504C331.502 30.4225 331.108 30.3086 330.633 30.3086C330.32 30.3086 330.037 30.3574 329.783 30.4551C329.536 30.5462 329.34 30.6764 329.197 30.8457C329.054 31.0085 328.986 31.194 328.992 31.4023C328.973 31.9036 329.428 32.2552 330.359 32.457L332.254 32.8477C333.283 33.0625 334.048 33.4043 334.549 33.873C335.057 34.3418 335.314 34.957 335.32 35.7188C335.314 36.4089 335.112 37.0176 334.715 37.5449C334.324 38.0723 333.774 38.4824 333.064 38.7754C332.355 39.0684 331.538 39.2148 330.613 39.2148C329.669 39.2148 328.852 39.0814 328.162 38.8145C327.472 38.541 326.928 38.1536 326.531 37.6523C326.141 37.1445 325.906 36.5456 325.828 35.8555H328.738C328.803 36.2721 328.999 36.5879 329.324 36.8027C329.65 37.0176 330.079 37.125 330.613 37.125C331.141 37.125 331.564 37.0241 331.883 36.8223C332.208 36.6204 332.371 36.3503 332.371 36.0117C332.371 35.7383 332.254 35.5169 332.02 35.3477C331.792 35.1719 331.427 35.0286 330.926 34.918L329.168 34.5664C328.165 34.3711 327.404 34.0163 326.883 33.502C326.362 32.9876 326.108 32.3398 326.121 31.5586C326.115 30.888 326.294 30.3053 326.658 29.8105C327.023 29.3092 327.544 28.9251 328.221 28.6582C328.898 28.3913 329.689 28.2578 330.594 28.2578C331.473 28.2578 332.241 28.3913 332.898 28.6582C333.556 28.9251 334.07 29.306 334.441 29.8008C334.819 30.2891 335.034 30.8685 335.086 31.5391H332.371Z" fill="white"/>
<path d="M132.031 65.4102C131.836 64.7396 131.475 64.2155 130.947 63.8379C130.426 63.4538 129.785 63.2617 129.023 63.2617C128.294 63.2617 127.653 63.444 127.1 63.8086C126.546 64.1732 126.117 64.707 125.811 65.4102C125.505 66.1068 125.352 66.9401 125.352 67.9102C125.352 68.8932 125.501 69.7363 125.801 70.4395C126.107 71.1426 126.536 71.6797 127.09 72.0508C127.643 72.4154 128.294 72.5977 129.043 72.5977C129.707 72.5977 130.28 72.4805 130.762 72.2461C131.25 72.0052 131.624 71.6634 131.885 71.2207C132.152 70.778 132.292 70.2604 132.305 69.668H129.238V67.4609H135.137V69.2188C135.137 70.4362 134.876 71.4974 134.355 72.4023C133.841 73.3008 133.122 73.9909 132.197 74.4727C131.273 74.9544 130.215 75.1953 129.023 75.1953C127.708 75.1953 126.546 74.9023 125.537 74.3164C124.535 73.724 123.753 72.8841 123.193 71.7969C122.64 70.7031 122.363 69.4206 122.363 67.9492C122.363 66.4583 122.65 65.1628 123.223 64.0625C123.796 62.9622 124.583 62.1224 125.586 61.543C126.589 60.957 127.715 60.6641 128.965 60.6641C130.013 60.6641 130.97 60.8659 131.836 61.2695C132.708 61.6667 133.421 62.2266 133.975 62.9492C134.528 63.6654 134.87 64.4857 135 65.4102H132.031ZM137.227 64.3945H140.02V66.2305H140.137C140.326 65.5859 140.648 65.0944 141.104 64.7559C141.559 64.4108 142.09 64.2383 142.695 64.2383C143.027 64.2383 143.333 64.2708 143.613 64.3359V66.9141C143.47 66.875 143.278 66.8392 143.037 66.8066C142.796 66.7741 142.578 66.7578 142.383 66.7578C141.953 66.7578 141.566 66.8522 141.221 67.041C140.876 67.2298 140.605 67.4935 140.41 67.832C140.215 68.1641 140.117 68.5417 140.117 68.9648V75H137.227V64.3945ZM144.219 72.0312C144.219 70.9375 144.587 70.1367 145.322 69.6289C146.058 69.1211 147.005 68.8346 148.164 68.7695C148.88 68.724 149.759 68.6784 150.801 68.6328V67.7734C150.788 67.3307 150.635 66.9857 150.342 66.7383C150.049 66.4909 149.635 66.3672 149.102 66.3672C148.62 66.3672 148.226 66.4714 147.92 66.6797C147.614 66.888 147.422 67.1745 147.344 67.5391H144.59C144.648 66.9141 144.863 66.3542 145.234 65.8594C145.612 65.3646 146.136 64.974 146.807 64.6875C147.477 64.401 148.268 64.2578 149.18 64.2578C149.987 64.2578 150.729 64.3848 151.406 64.6387C152.09 64.8926 152.637 65.2897 153.047 65.8301C153.464 66.3639 153.672 67.0378 153.672 67.8516V75H150.938V73.5352H150.859C150.579 74.0495 150.179 74.4564 149.658 74.7559C149.144 75.0488 148.509 75.1953 147.754 75.1953C147.064 75.1953 146.452 75.0781 145.918 74.8438C145.391 74.6029 144.974 74.2448 144.668 73.7695C144.368 73.2943 144.219 72.7148 144.219 72.0312ZM146.992 71.9531C146.992 72.3503 147.135 72.6595 147.422 72.8809C147.715 73.0957 148.099 73.2031 148.574 73.2031C149.004 73.2031 149.388 73.1152 149.727 72.9395C150.072 72.7637 150.339 72.5228 150.527 72.2168C150.716 71.9108 150.807 71.5755 150.801 71.2109V70.4395C150.495 70.446 150.117 70.4622 149.668 70.4883C149.219 70.5143 148.874 70.5404 148.633 70.5664C148.125 70.6185 147.725 70.7617 147.432 70.9961C147.139 71.2305 146.992 71.5495 146.992 71.9531ZM158.77 75H155.879V64.3945H158.633V66.25H158.75C158.997 65.625 159.398 65.1367 159.951 64.7852C160.505 64.4336 161.165 64.2578 161.934 64.2578C162.669 64.2578 163.314 64.4173 163.867 64.7363C164.421 65.0553 164.847 65.5176 165.146 66.123C165.446 66.722 165.592 67.4284 165.586 68.2422V75H162.715V68.75C162.715 68.099 162.546 67.5879 162.207 67.2168C161.868 66.8457 161.4 66.6602 160.801 66.6602C160.182 66.6602 159.688 66.8555 159.316 67.2461C158.952 67.6367 158.77 68.1771 158.77 68.8672V75ZM171.738 75.1758C170.918 75.1758 170.182 74.9642 169.531 74.541C168.88 74.1113 168.366 73.4863 167.988 72.666C167.611 71.8392 167.422 70.8529 167.422 69.707C167.422 68.5352 167.614 67.5423 167.998 66.7285C168.382 65.9082 168.9 65.293 169.551 64.8828C170.208 64.4661 170.938 64.2578 171.738 64.2578C172.539 64.2578 173.18 64.4434 173.662 64.8145C174.144 65.1855 174.505 65.638 174.746 66.1719H174.844V60.8594H177.734V75H174.883V73.3008H174.746C174.499 73.8281 174.131 74.2741 173.643 74.6387C173.154 74.9967 172.52 75.1758 171.738 75.1758ZM172.637 72.8711C173.112 72.8711 173.519 72.7409 173.857 72.4805C174.196 72.2135 174.453 71.8424 174.629 71.3672C174.811 70.8854 174.902 70.3255 174.902 69.6875C174.902 68.724 174.704 67.9622 174.307 67.4023C173.91 66.8424 173.353 66.5625 172.637 66.5625C171.921 66.5625 171.367 66.8457 170.977 67.4121C170.586 67.9785 170.391 68.737 170.391 69.6875C170.391 70.651 170.586 71.4225 170.977 72.002C171.367 72.5814 171.921 72.8711 172.637 72.8711ZM180.059 64.3945H182.91V66.1719H183.027C183.268 65.638 183.633 65.1855 184.121 64.8145C184.609 64.4434 185.254 64.2578 186.055 64.2578C186.855 64.2578 187.581 64.4661 188.232 64.8828C188.883 65.293 189.398 65.9082 189.775 66.7285C190.16 67.5423 190.352 68.5352 190.352 69.707C190.352 70.8529 190.163 71.8392 189.785 72.666C189.414 73.4863 188.903 74.1113 188.252 74.541C187.607 74.9642 186.875 75.1758 186.055 75.1758C185.267 75.1758 184.626 74.9967 184.131 74.6387C183.643 74.2741 183.275 73.8281 183.027 73.3008H182.949V78.9844H180.059V64.3945ZM182.891 69.6875C182.891 70.3255 182.979 70.8854 183.154 71.3672C183.33 71.8424 183.587 72.2135 183.926 72.4805C184.264 72.7409 184.668 72.8711 185.137 72.8711C185.859 72.8711 186.416 72.5814 186.807 72.002C187.204 71.4225 187.402 70.651 187.402 69.6875C187.402 68.737 187.204 67.9785 186.807 67.4121C186.416 66.8457 185.859 66.5625 185.137 66.5625C184.421 66.5625 183.867 66.8424 183.477 67.4023C183.086 67.9557 182.891 68.7174 182.891 69.6875ZM191.719 72.0312C191.719 70.9375 192.087 70.1367 192.822 69.6289C193.558 69.1211 194.505 68.8346 195.664 68.7695C196.38 68.724 197.259 68.6784 198.301 68.6328V67.7734C198.288 67.3307 198.135 66.9857 197.842 66.7383C197.549 66.4909 197.135 66.3672 196.602 66.3672C196.12 66.3672 195.726 66.4714 195.42 66.6797C195.114 66.888 194.922 67.1745 194.844 67.5391H192.09C192.148 66.9141 192.363 66.3542 192.734 65.8594C193.112 65.3646 193.636 64.974 194.307 64.6875C194.977 64.401 195.768 64.2578 196.68 64.2578C197.487 64.2578 198.229 64.3848 198.906 64.6387C199.59 64.8926 200.137 65.2897 200.547 65.8301C200.964 66.3639 201.172 67.0378 201.172 67.8516V75H198.438V73.5352H198.359C198.079 74.0495 197.679 74.4564 197.158 74.7559C196.644 75.0488 196.009 75.1953 195.254 75.1953C194.564 75.1953 193.952 75.0781 193.418 74.8438C192.891 74.6029 192.474 74.2448 192.168 73.7695C191.868 73.2943 191.719 72.7148 191.719 72.0312ZM194.492 71.9531C194.492 72.3503 194.635 72.6595 194.922 72.8809C195.215 73.0957 195.599 73.2031 196.074 73.2031C196.504 73.2031 196.888 73.1152 197.227 72.9395C197.572 72.7637 197.839 72.5228 198.027 72.2168C198.216 71.9108 198.307 71.5755 198.301 71.2109V70.4395C197.995 70.446 197.617 70.4622 197.168 70.4883C196.719 70.5143 196.374 70.5404 196.133 70.5664C195.625 70.6185 195.225 70.7617 194.932 70.9961C194.639 71.2305 194.492 71.5495 194.492 71.9531ZM203.379 64.3945H206.172V66.2305H206.289C206.478 65.5859 206.8 65.0944 207.256 64.7559C207.712 64.4108 208.242 64.2383 208.848 64.2383C209.18 64.2383 209.486 64.2708 209.766 64.3359V66.9141C209.622 66.875 209.43 66.8392 209.189 66.8066C208.949 66.7741 208.73 66.7578 208.535 66.7578C208.105 66.7578 207.718 66.8522 207.373 67.041C207.028 67.2298 206.758 67.4935 206.562 67.832C206.367 68.1641 206.27 68.5417 206.27 68.9648V75H203.379V64.3945ZM215.645 75.2148C214.57 75.2148 213.639 74.9935 212.852 74.5508C212.07 74.1081 211.468 73.4766 211.045 72.6562C210.622 71.8294 210.41 70.8594 210.41 69.7461C210.41 68.6589 210.618 67.7018 211.035 66.875C211.458 66.0417 212.057 65.3971 212.832 64.9414C213.607 64.4857 214.505 64.2578 215.527 64.2578C216.478 64.2578 217.327 64.4596 218.076 64.8633C218.831 65.2604 219.424 65.8626 219.854 66.6699C220.29 67.4772 220.508 68.4635 220.508 69.6289V70.4492H213.262C213.262 70.9766 213.359 71.4355 213.555 71.8262C213.757 72.2168 214.04 72.5195 214.404 72.7344C214.775 72.9427 215.208 73.0469 215.703 73.0469C216.178 73.0469 216.589 72.9525 216.934 72.7637C217.279 72.5684 217.526 72.3047 217.676 71.9727H220.43C220.293 72.6237 220.013 73.1934 219.59 73.6816C219.167 74.1699 218.617 74.5475 217.939 74.8145C217.269 75.0814 216.504 75.2148 215.645 75.2148ZM217.773 68.6328C217.773 68.2096 217.679 67.832 217.49 67.5C217.308 67.1615 217.051 66.8978 216.719 66.709C216.387 66.5202 216.009 66.4258 215.586 66.4258C215.156 66.4258 214.766 66.5234 214.414 66.7188C214.069 66.9141 213.792 67.181 213.584 67.5195C213.382 67.8581 213.275 68.2292 213.262 68.6328H217.773ZM225.215 75H222.324V64.3945H225.078V66.25H225.195C225.443 65.625 225.843 65.1367 226.396 64.7852C226.95 64.4336 227.611 64.2578 228.379 64.2578C229.115 64.2578 229.759 64.4173 230.312 64.7363C230.866 65.0553 231.292 65.5176 231.592 66.123C231.891 66.722 232.038 67.4284 232.031 68.2422V75H229.16V68.75C229.16 68.099 228.991 67.5879 228.652 67.2168C228.314 66.8457 227.845 66.6602 227.246 66.6602C226.628 66.6602 226.133 66.8555 225.762 67.2461C225.397 67.6367 225.215 68.1771 225.215 68.8672V75ZM239.863 66.5625H237.871V71.7383C237.871 72.1289 237.956 72.4023 238.125 72.5586C238.294 72.7148 238.542 72.7995 238.867 72.8125C239.284 72.8125 239.668 72.793 240.02 72.7539V75.0391C239.674 75.1042 239.16 75.1367 238.477 75.1367C237.389 75.1367 236.533 74.8861 235.908 74.3848C235.283 73.8835 234.974 73.138 234.98 72.1484V66.5625H233.516V64.3945H234.98V61.8555H237.871V64.3945H239.863V66.5625ZM247.578 67.5391C247.52 67.168 247.334 66.8717 247.021 66.6504C246.709 66.4225 246.315 66.3086 245.84 66.3086C245.527 66.3086 245.244 66.3574 244.99 66.4551C244.743 66.5462 244.548 66.6764 244.404 66.8457C244.261 67.0085 244.193 67.194 244.199 67.4023C244.18 67.9036 244.635 68.2552 245.566 68.457L247.461 68.8477C248.49 69.0625 249.255 69.4043 249.756 69.873C250.264 70.3418 250.521 70.957 250.527 71.7188C250.521 72.4089 250.319 73.0176 249.922 73.5449C249.531 74.0723 248.981 74.4824 248.271 74.7754C247.562 75.0684 246.745 75.2148 245.82 75.2148C244.876 75.2148 244.059 75.0814 243.369 74.8145C242.679 74.541 242.135 74.1536 241.738 73.6523C241.348 73.1445 241.113 72.5456 241.035 71.8555H243.945C244.01 72.2721 244.206 72.5879 244.531 72.8027C244.857 73.0176 245.286 73.125 245.82 73.125C246.348 73.125 246.771 73.0241 247.09 72.8223C247.415 72.6204 247.578 72.3503 247.578 72.0117C247.578 71.7383 247.461 71.5169 247.227 71.3477C246.999 71.1719 246.634 71.0286 246.133 70.918L244.375 70.5664C243.372 70.3711 242.611 70.0163 242.09 69.502C241.569 68.9876 241.315 68.3398 241.328 67.5586C241.322 66.888 241.501 66.3053 241.865 65.8105C242.23 65.3092 242.751 64.9251 243.428 64.6582C244.105 64.3913 244.896 64.2578 245.801 64.2578C246.68 64.2578 247.448 64.3913 248.105 64.6582C248.763 64.9251 249.277 65.306 249.648 65.8008C250.026 66.2891 250.241 66.8685 250.293 67.5391H247.578Z" fill="#F565AB"/>
<path d="M256.406 72.0312C256.406 70.9375 256.774 70.1367 257.51 69.6289C258.245 69.1211 259.193 68.8346 260.352 68.7695C261.068 68.724 261.947 68.6784 262.988 68.6328V67.7734C262.975 67.3307 262.822 66.9857 262.529 66.7383C262.236 66.4909 261.823 66.3672 261.289 66.3672C260.807 66.3672 260.413 66.4714 260.107 66.6797C259.801 66.888 259.609 67.1745 259.531 67.5391H256.777C256.836 66.9141 257.051 66.3542 257.422 65.8594C257.799 65.3646 258.324 64.974 258.994 64.6875C259.665 64.401 260.456 64.2578 261.367 64.2578C262.174 64.2578 262.917 64.3848 263.594 64.6387C264.277 64.8926 264.824 65.2897 265.234 65.8301C265.651 66.3639 265.859 67.0378 265.859 67.8516V75H263.125V73.5352H263.047C262.767 74.0495 262.367 74.4564 261.846 74.7559C261.331 75.0488 260.697 75.1953 259.941 75.1953C259.251 75.1953 258.639 75.0781 258.105 74.8438C257.578 74.6029 257.161 74.2448 256.855 73.7695C256.556 73.2943 256.406 72.7148 256.406 72.0312ZM259.18 71.9531C259.18 72.3503 259.323 72.6595 259.609 72.8809C259.902 73.0957 260.286 73.2031 260.762 73.2031C261.191 73.2031 261.576 73.1152 261.914 72.9395C262.259 72.7637 262.526 72.5228 262.715 72.2168C262.904 71.9108 262.995 71.5755 262.988 71.2109V70.4395C262.682 70.446 262.305 70.4622 261.855 70.4883C261.406 70.5143 261.061 70.5404 260.82 70.5664C260.312 70.6185 259.912 70.7617 259.619 70.9961C259.326 71.2305 259.18 71.5495 259.18 71.9531ZM268.066 64.3945H270.859V66.2305H270.977C271.165 65.5859 271.488 65.0944 271.943 64.7559C272.399 64.4108 272.93 64.2383 273.535 64.2383C273.867 64.2383 274.173 64.2708 274.453 64.3359V66.9141C274.31 66.875 274.118 66.8392 273.877 66.8066C273.636 66.7741 273.418 66.7578 273.223 66.7578C272.793 66.7578 272.406 66.8522 272.061 67.041C271.715 67.2298 271.445 67.4935 271.25 67.832C271.055 68.1641 270.957 68.5417 270.957 68.9648V75H268.066V64.3945ZM280.332 75.2148C279.258 75.2148 278.327 74.9935 277.539 74.5508C276.758 74.1081 276.156 73.4766 275.732 72.6562C275.309 71.8294 275.098 70.8594 275.098 69.7461C275.098 68.6589 275.306 67.7018 275.723 66.875C276.146 66.0417 276.745 65.3971 277.52 64.9414C278.294 64.4857 279.193 64.2578 280.215 64.2578C281.165 64.2578 282.015 64.4596 282.764 64.8633C283.519 65.2604 284.111 65.8626 284.541 66.6699C284.977 67.4772 285.195 68.4635 285.195 69.6289V70.4492H277.949C277.949 70.9766 278.047 71.4355 278.242 71.8262C278.444 72.2168 278.727 72.5195 279.092 72.7344C279.463 72.9427 279.896 73.0469 280.391 73.0469C280.866 73.0469 281.276 72.9525 281.621 72.7637C281.966 72.5684 282.214 72.3047 282.363 71.9727H285.117C284.98 72.6237 284.701 73.1934 284.277 73.6816C283.854 74.1699 283.304 74.5475 282.627 74.8145C281.956 75.0814 281.191 75.2148 280.332 75.2148ZM282.461 68.6328C282.461 68.2096 282.367 67.832 282.178 67.5C281.995 67.1615 281.738 66.8978 281.406 66.709C281.074 66.5202 280.697 66.4258 280.273 66.4258C279.844 66.4258 279.453 66.5234 279.102 66.7188C278.757 66.9141 278.48 67.181 278.271 67.5195C278.07 67.8581 277.962 68.2292 277.949 68.6328H282.461ZM294.512 75H291.621V60.8594H294.434V66.25H294.551C294.798 65.6185 295.192 65.1302 295.732 64.7852C296.273 64.4336 296.934 64.2578 297.715 64.2578C298.451 64.2578 299.095 64.4173 299.648 64.7363C300.202 65.0553 300.628 65.5143 300.928 66.1133C301.234 66.7122 301.387 67.4219 301.387 68.2422V75H298.496V68.75C298.496 68.0924 298.327 67.5814 297.988 67.2168C297.656 66.8457 297.188 66.6602 296.582 66.6602C296.178 66.6602 295.82 66.748 295.508 66.9238C295.195 67.0931 294.951 67.3438 294.775 67.6758C294.6 68.0078 294.512 68.4049 294.512 68.8672V75ZM308.418 75.2148C307.344 75.2148 306.413 74.9935 305.625 74.5508C304.844 74.1081 304.242 73.4766 303.818 72.6562C303.395 71.8294 303.184 70.8594 303.184 69.7461C303.184 68.6589 303.392 67.7018 303.809 66.875C304.232 66.0417 304.831 65.3971 305.605 64.9414C306.38 64.4857 307.279 64.2578 308.301 64.2578C309.251 64.2578 310.101 64.4596 310.85 64.8633C311.605 65.2604 312.197 65.8626 312.627 66.6699C313.063 67.4772 313.281 68.4635 313.281 69.6289V70.4492H306.035C306.035 70.9766 306.133 71.4355 306.328 71.8262C306.53 72.2168 306.813 72.5195 307.178 72.7344C307.549 72.9427 307.982 73.0469 308.477 73.0469C308.952 73.0469 309.362 72.9525 309.707 72.7637C310.052 72.5684 310.299 72.3047 310.449 71.9727H313.203C313.066 72.6237 312.786 73.1934 312.363 73.6816C311.94 74.1699 311.39 74.5475 310.713 74.8145C310.042 75.0814 309.277 75.2148 308.418 75.2148ZM310.547 68.6328C310.547 68.2096 310.452 67.832 310.264 67.5C310.081 67.1615 309.824 66.8978 309.492 66.709C309.16 66.5202 308.783 66.4258 308.359 66.4258C307.93 66.4258 307.539 66.5234 307.188 66.7188C306.842 66.9141 306.566 67.181 306.357 67.5195C306.156 67.8581 306.048 68.2292 306.035 68.6328H310.547ZM315.098 64.3945H317.891V66.2305H318.008C318.197 65.5859 318.519 65.0944 318.975 64.7559C319.43 64.4108 319.961 64.2383 320.566 64.2383C320.898 64.2383 321.204 64.2708 321.484 64.3359V66.9141C321.341 66.875 321.149 66.8392 320.908 66.8066C320.667 66.7741 320.449 66.7578 320.254 66.7578C319.824 66.7578 319.437 66.8522 319.092 67.041C318.747 67.2298 318.477 67.4935 318.281 67.832C318.086 68.1641 317.988 68.5417 317.988 68.9648V75H315.098V64.3945ZM327.363 75.2148C326.289 75.2148 325.358 74.9935 324.57 74.5508C323.789 74.1081 323.187 73.4766 322.764 72.6562C322.34 71.8294 322.129 70.8594 322.129 69.7461C322.129 68.6589 322.337 67.7018 322.754 66.875C323.177 66.0417 323.776 65.3971 324.551 64.9414C325.326 64.4857 326.224 64.2578 327.246 64.2578C328.197 64.2578 329.046 64.4596 329.795 64.8633C330.55 65.2604 331.143 65.8626 331.572 66.6699C332.008 67.4772 332.227 68.4635 332.227 69.6289V70.4492H324.98C324.98 70.9766 325.078 71.4355 325.273 71.8262C325.475 72.2168 325.758 72.5195 326.123 72.7344C326.494 72.9427 326.927 73.0469 327.422 73.0469C327.897 73.0469 328.307 72.9525 328.652 72.7637C328.997 72.5684 329.245 72.3047 329.395 71.9727H332.148C332.012 72.6237 331.732 73.1934 331.309 73.6816C330.885 74.1699 330.335 74.5475 329.658 74.8145C328.988 75.0814 328.223 75.2148 327.363 75.2148ZM329.492 68.6328C329.492 68.2096 329.398 67.832 329.209 67.5C329.027 67.1615 328.77 66.8978 328.438 66.709C328.105 66.5202 327.728 66.4258 327.305 66.4258C326.875 66.4258 326.484 66.5234 326.133 66.7188C325.788 66.9141 325.511 67.181 325.303 67.5195C325.101 67.8581 324.993 68.2292 324.98 68.6328H329.492ZM335.742 75.1758C335.443 75.1758 335.166 75.1009 334.912 74.9512C334.658 74.8014 334.456 74.6029 334.307 74.3555C334.163 74.1016 334.095 73.8281 334.102 73.5352C334.095 73.2422 334.163 72.972 334.307 72.7246C334.456 72.4772 334.658 72.2819 334.912 72.1387C335.166 71.9889 335.443 71.9141 335.742 71.9141C336.022 71.9141 336.286 71.9889 336.533 72.1387C336.787 72.2819 336.989 72.4772 337.139 72.7246C337.288 72.972 337.363 73.2422 337.363 73.5352C337.363 73.8281 337.288 74.1016 337.139 74.3555C336.989 74.6029 336.787 74.8014 336.533 74.9512C336.286 75.1009 336.022 75.1758 335.742 75.1758Z" fill="white"/>
</g>
<defs>
<clipPath id="clip0_1712_2683">
<rect width="350" height="100" fill="white"/>
</clipPath>
<clipPath id="clip1_1712_2683">
<rect width="94.5938" height="111.673" fill="white" transform="translate(-18 4)"/>
</clipPath>
<clipPath id="clip2_1712_2683">
<rect width="83.6454" height="113.863" fill="white" transform="translate(43.6328 14.9443) rotate(3.68242)"/>
</clipPath>
<clipPath id="clip3_1712_2683">
<rect width="87.5868" height="109.921" fill="white" transform="matrix(-0.995924 0.0901949 0.0901949 0.995924 63.4512 38.2739)"/>
</clipPath>
</defs>
</svg>
