<svg width="350" height="100" viewBox="0 0 350 100" fill="none" xmlns="http://www.w3.org/2000/svg">
<g clip-path="url(#clip0_1712_2689)">
<rect width="350" height="100" fill="#FF9B70"/>
<g clip-path="url(#clip1_1712_2689)">
<path d="M316.793 107.587C340.98 107.587 360.587 87.9799 360.587 63.7934C360.587 39.607 340.98 20 316.793 20C292.607 20 273 39.607 273 63.7934C273 87.9799 292.607 107.587 316.793 107.587Z" fill="#F26F3A"/>
<path d="M307.159 42.2048C307.159 42.2048 310.032 39.6409 311.976 40.2341C312.861 40.504 313.947 41.5479 313.947 41.5479" stroke="#791C0A" stroke-width="1.75174"/>
<path d="M327.085 42.2048C327.085 42.2048 324.212 39.6409 322.268 40.2341C321.383 40.504 320.297 41.5479 320.297 41.5479" stroke="#791C0A" stroke-width="1.75174"/>
<path d="M306.721 49.6753C306.721 47.0251 309.169 45.0435 311.793 45.4128C313.467 45.6482 315.285 45.8382 316.793 45.8382C318.302 45.8382 320.12 45.6482 321.794 45.4128C324.418 45.0435 326.866 47.0251 326.866 49.6753V49.8874C326.866 51.6583 325.744 53.2368 324.023 53.6547C322.133 54.1136 319.543 54.5969 317.012 54.5969C314.434 54.5969 311.668 54.0952 309.653 53.6288C307.891 53.2207 306.721 51.6175 306.721 49.8083V49.6753Z" fill="#051042"/>
<path fill-rule="evenodd" clip-rule="evenodd" d="M322.308 54.0307C320.703 54.3441 318.842 54.5968 317.013 54.5968C315.406 54.5968 313.726 54.4018 312.2 54.1421C312.055 53.8008 311.977 53.4389 311.977 53.064C311.977 51.0082 314.329 49.3416 317.232 49.3416C320.134 49.3416 322.487 51.0082 322.487 53.064C322.487 53.3984 322.425 53.7224 322.308 54.0307Z" fill="#EE9CC4"/>
</g>
<g clip-path="url(#clip2_1712_2689)">
<path d="M238.487 124.055L217.216 72.9072L258.679 39.1661L304.574 66.5753L290.901 120.256L238.487 124.055Z" fill="#F8C811"/>
<path d="M255.083 78.3591C255.083 78.3591 256.358 76.1432 256.331 74.5948C256.307 73.2718 255.313 71.3631 255.313 71.3631" stroke="#873F19" stroke-width="1.75174"/>
<path d="M275.648 71.8112C275.648 71.8112 269.199 73.7292 264.94 74.2125C261.516 74.6012 256.118 74.4469 256.118 74.4469" stroke="#873F19" stroke-width="1.75174"/>
<path d="M259.812 60.9409L261.008 67.4002" stroke="#873F19" stroke-width="1.75174"/>
<path d="M268.049 59.4658L269.244 65.9252" stroke="#873F19" stroke-width="1.75174"/>
<path d="M252.188 67.7378C252.791 67.6941 253.244 67.1698 253.201 66.5667C253.157 65.9637 252.633 65.5102 252.029 65.5539C251.426 65.5976 250.973 66.1219 251.017 66.725C251.06 67.3281 251.585 67.7816 252.188 67.7378Z" fill="#873F19"/>
<path d="M250.321 72.264C250.924 72.2203 251.377 71.6959 251.333 71.0929C251.29 70.4898 250.765 70.0363 250.162 70.08C249.559 70.1237 249.106 70.6481 249.149 71.2512C249.193 71.8542 249.718 72.3077 250.321 72.264Z" fill="#873F19"/>
<path d="M247.447 68.9598C248.05 68.9161 248.503 68.3917 248.459 67.7887C248.416 67.1856 247.891 66.7321 247.288 66.7758C246.685 66.8195 246.232 67.3439 246.275 67.947C246.319 68.55 246.843 69.0035 247.447 68.9598Z" fill="#873F19"/>
</g>
<path d="M15.1914 24.8594H18.1211V36.5781H24.2148V39H15.1914V24.8594ZM26.0508 28.3945H28.9414V39H26.0508V28.3945ZM27.4961 27.0078C27.2096 27.0078 26.9427 26.9427 26.6953 26.8125C26.4544 26.6758 26.2624 26.4967 26.1191 26.2754C25.9824 26.0475 25.9141 25.8034 25.9141 25.543C25.9141 25.276 25.9824 25.0286 26.1191 24.8008C26.2624 24.5729 26.4544 24.3939 26.6953 24.2637C26.9427 24.127 27.2096 24.0586 27.4961 24.0586C27.776 24.0586 28.0365 24.127 28.2773 24.2637C28.5182 24.3939 28.707 24.5729 28.8438 24.8008C28.987 25.0286 29.0586 25.276 29.0586 25.543C29.0586 25.8034 28.987 26.0475 28.8438 26.2754C28.707 26.4967 28.5182 26.6758 28.2773 26.8125C28.0365 26.9427 27.776 27.0078 27.4961 27.0078ZM36.832 30.5625H34.7227V39H31.832V30.5625H30.3281V28.3945H31.832V27.5938C31.832 26.5 32.1413 25.6602 32.7598 25.0742C33.3783 24.4883 34.2279 24.1953 35.3086 24.1953C35.9466 24.1953 36.5195 24.2539 37.0273 24.3711V26.5586C36.6172 26.5195 36.3242 26.5 36.1484 26.5C35.6732 26.5 35.3151 26.6009 35.0742 26.8027C34.8398 27.0046 34.7227 27.3203 34.7227 27.75V28.3945H36.832V30.5625ZM42.9453 39.2148C41.8711 39.2148 40.9401 38.9935 40.1523 38.5508C39.3711 38.1081 38.7689 37.4766 38.3457 36.6562C37.9225 35.8294 37.7109 34.8594 37.7109 33.7461C37.7109 32.6589 37.9193 31.7018 38.3359 30.875C38.7591 30.0417 39.3581 29.3971 40.1328 28.9414C40.9076 28.4857 41.806 28.2578 42.8281 28.2578C43.7786 28.2578 44.6283 28.4596 45.377 28.8633C46.1322 29.2604 46.7246 29.8626 47.1543 30.6699C47.5905 31.4772 47.8086 32.4635 47.8086 33.6289V34.4492H40.5625C40.5625 34.9766 40.6602 35.4355 40.8555 35.8262C41.0573 36.2168 41.3405 36.5195 41.7051 36.7344C42.0762 36.9427 42.5091 37.0469 43.0039 37.0469C43.4792 37.0469 43.8893 36.9525 44.2344 36.7637C44.5794 36.5684 44.8268 36.3047 44.9766 35.9727H47.7305C47.5938 36.6237 47.3138 37.1934 46.8906 37.6816C46.4674 38.1699 45.9173 38.5475 45.2402 38.8145C44.5697 39.0814 43.8047 39.2148 42.9453 39.2148ZM45.0742 32.6328C45.0742 32.2096 44.9798 31.832 44.791 31.5C44.6087 31.1615 44.3516 30.8978 44.0195 30.709C43.6875 30.5202 43.3099 30.4258 42.8867 30.4258C42.457 30.4258 42.0664 30.5234 41.7148 30.7188C41.3698 30.9141 41.0931 31.181 40.8848 31.5195C40.6829 31.8581 40.5755 32.2292 40.5625 32.6328H45.0742Z" fill="#FFD900"/>
<path d="M51.0898 43.1211H49.0195L49.9961 37.5547H52.7695L51.0898 43.1211ZM105.543 43.1211H103.473L104.449 37.5547H107.223L105.543 43.1211ZM183.941 39.1758C183.642 39.1758 183.365 39.1009 183.111 38.9512C182.857 38.8014 182.656 38.6029 182.506 38.3555C182.363 38.1016 182.294 37.8281 182.301 37.5352C182.294 37.2422 182.363 36.972 182.506 36.7246C182.656 36.4772 182.857 36.2819 183.111 36.1387C183.365 35.9889 183.642 35.9141 183.941 35.9141C184.221 35.9141 184.485 35.9889 184.732 36.1387C184.986 36.2819 185.188 36.4772 185.338 36.7246C185.488 36.972 185.562 37.2422 185.562 37.5352C185.562 37.8281 185.488 38.1016 185.338 38.3555C185.188 38.6029 184.986 38.8014 184.732 38.9512C184.485 39.1009 184.221 39.1758 183.941 39.1758ZM189.586 39.1758C189.286 39.1758 189.01 39.1009 188.756 38.9512C188.502 38.8014 188.3 38.6029 188.15 38.3555C188.007 38.1016 187.939 37.8281 187.945 37.5352C187.939 37.2422 188.007 36.972 188.15 36.7246C188.3 36.4772 188.502 36.2819 188.756 36.1387C189.01 35.9889 189.286 35.9141 189.586 35.9141C189.866 35.9141 190.13 35.9889 190.377 36.1387C190.631 36.2819 190.833 36.4772 190.982 36.7246C191.132 36.972 191.207 37.2422 191.207 37.5352C191.207 37.8281 191.132 38.1016 190.982 38.3555C190.833 38.6029 190.631 38.8014 190.377 38.9512C190.13 39.1009 189.866 39.1758 189.586 39.1758Z" fill="white"/>
<path d="M59.3906 24.8594H62.3203V36.5781H68.4141V39H59.3906V24.8594ZM75.0156 39.2148C73.9609 39.2148 73.043 38.987 72.2617 38.5312C71.4805 38.0755 70.8783 37.4342 70.4551 36.6074C70.0319 35.7741 69.8203 34.8138 69.8203 33.7266C69.8203 32.6393 70.0286 31.6823 70.4453 30.8555C70.8685 30.0286 71.4707 29.3906 72.252 28.9414C73.0397 28.4857 73.9609 28.2578 75.0156 28.2578C76.0703 28.2578 76.9915 28.4857 77.7793 28.9414C78.5671 29.3906 79.1725 30.0286 79.5957 30.8555C80.0189 31.6823 80.2305 32.6393 80.2305 33.7266C80.2305 34.8138 80.0189 35.7741 79.5957 36.6074C79.1725 37.4342 78.5671 38.0755 77.7793 38.5312C76.9915 38.987 76.0703 39.2148 75.0156 39.2148ZM75.0352 36.9688C75.5169 36.9688 75.9271 36.832 76.2656 36.5586C76.6042 36.2786 76.8581 35.8945 77.0273 35.4062C77.1966 34.918 77.2812 34.3581 77.2812 33.7266C77.2812 33.0951 77.1966 32.5352 77.0273 32.0469C76.8581 31.5521 76.6042 31.1647 76.2656 30.8848C75.9271 30.6048 75.5169 30.4648 75.0352 30.4648C74.5469 30.4648 74.1302 30.6048 73.7852 30.8848C73.4466 31.1647 73.1895 31.5521 73.0137 32.0469C72.8379 32.5352 72.75 33.0951 72.75 33.7266C72.75 34.3516 72.8379 34.9115 73.0137 35.4062C73.1895 35.8945 73.4466 36.2786 73.7852 36.5586C74.1302 36.832 74.5469 36.9688 75.0352 36.9688ZM87.8086 39H84.5664L80.8555 28.3945H83.9023L86.1289 36.0117H86.2461L88.4727 28.3945H91.5391L87.8086 39ZM97.3984 39.2148C96.3242 39.2148 95.3932 38.9935 94.6055 38.5508C93.8242 38.1081 93.222 37.4766 92.7988 36.6562C92.3757 35.8294 92.1641 34.8594 92.1641 33.7461C92.1641 32.6589 92.3724 31.7018 92.7891 30.875C93.2122 30.0417 93.8112 29.3971 94.5859 28.9414C95.3607 28.4857 96.2591 28.2578 97.2812 28.2578C98.2318 28.2578 99.0814 28.4596 99.8301 28.8633C100.585 29.2604 101.178 29.8626 101.607 30.6699C102.044 31.4772 102.262 32.4635 102.262 33.6289V34.4492H95.0156C95.0156 34.9766 95.1133 35.4355 95.3086 35.8262C95.5104 36.2168 95.7936 36.5195 96.1582 36.7344C96.5293 36.9427 96.9622 37.0469 97.457 37.0469C97.9323 37.0469 98.3424 36.9525 98.6875 36.7637C99.0326 36.5684 99.2799 36.3047 99.4297 35.9727H102.184C102.047 36.6237 101.767 37.1934 101.344 37.6816C100.921 38.1699 100.37 38.5475 99.6934 38.8145C99.0228 39.0814 98.2578 39.2148 97.3984 39.2148ZM99.5273 32.6328C99.5273 32.2096 99.4329 31.832 99.2441 31.5C99.0618 31.1615 98.8047 30.8978 98.4727 30.709C98.1406 30.5202 97.763 30.4258 97.3398 30.4258C96.9102 30.4258 96.5195 30.5234 96.168 30.7188C95.8229 30.9141 95.5462 31.181 95.3379 31.5195C95.1361 31.8581 95.0286 32.2292 95.0156 32.6328H99.5273Z" fill="#F50087"/>
<path d="M123.297 29.7812C123.219 29.2669 123.04 28.821 122.76 28.4434C122.48 28.0592 122.122 27.7663 121.686 27.5645C121.249 27.3626 120.758 27.2617 120.211 27.2617C119.475 27.2617 118.831 27.4473 118.277 27.8184C117.73 28.1829 117.307 28.7168 117.008 29.4199C116.708 30.1165 116.559 30.9531 116.559 31.9297C116.559 32.9258 116.708 33.7754 117.008 34.4785C117.307 35.1751 117.73 35.7025 118.277 36.0605C118.824 36.4186 119.462 36.5977 120.191 36.5977C121.005 36.5977 121.689 36.3828 122.242 35.9531C122.802 35.5234 123.154 34.931 123.297 34.1758L126.266 34.1953C126.155 35.0872 125.839 35.9141 125.318 36.6758C124.798 37.4375 124.094 38.0495 123.209 38.5117C122.324 38.9674 121.305 39.1953 120.152 39.1953C118.883 39.1953 117.75 38.9089 116.754 38.3359C115.758 37.7565 114.977 36.9199 114.41 35.8262C113.85 34.7324 113.57 33.4336 113.57 31.9297C113.57 30.4323 113.854 29.1367 114.42 28.043C114.993 26.9427 115.777 26.1061 116.773 25.5332C117.776 24.9538 118.902 24.6641 120.152 24.6641C121.24 24.6641 122.223 24.8659 123.102 25.2695C123.98 25.6732 124.693 26.2624 125.24 27.0371C125.794 27.8053 126.135 28.7201 126.266 29.7812H123.297ZM127.75 36.0312C127.75 34.9375 128.118 34.1367 128.854 33.6289C129.589 33.1211 130.536 32.8346 131.695 32.7695C132.411 32.724 133.29 32.6784 134.332 32.6328V31.7734C134.319 31.3307 134.166 30.9857 133.873 30.7383C133.58 30.4909 133.167 30.3672 132.633 30.3672C132.151 30.3672 131.757 30.4714 131.451 30.6797C131.145 30.888 130.953 31.1745 130.875 31.5391H128.121C128.18 30.9141 128.395 30.3542 128.766 29.8594C129.143 29.3646 129.667 28.974 130.338 28.6875C131.008 28.401 131.799 28.2578 132.711 28.2578C133.518 28.2578 134.26 28.3848 134.938 28.6387C135.621 28.8926 136.168 29.2897 136.578 29.8301C136.995 30.3639 137.203 31.0378 137.203 31.8516V39H134.469V37.5352H134.391C134.111 38.0495 133.71 38.4564 133.189 38.7559C132.675 39.0488 132.04 39.1953 131.285 39.1953C130.595 39.1953 129.983 39.0781 129.449 38.8438C128.922 38.6029 128.505 38.2448 128.199 37.7695C127.9 37.2943 127.75 36.7148 127.75 36.0312ZM130.523 35.9531C130.523 36.3503 130.667 36.6595 130.953 36.8809C131.246 37.0957 131.63 37.2031 132.105 37.2031C132.535 37.2031 132.919 37.1152 133.258 36.9395C133.603 36.7637 133.87 36.5228 134.059 36.2168C134.247 35.9108 134.339 35.5755 134.332 35.2109V34.4395C134.026 34.446 133.648 34.4622 133.199 34.4883C132.75 34.5143 132.405 34.5404 132.164 34.5664C131.656 34.6185 131.256 34.7617 130.963 34.9961C130.67 35.2305 130.523 35.5495 130.523 35.9531ZM139.41 28.3945H142.203V30.2305H142.32C142.509 29.5859 142.831 29.0944 143.287 28.7559C143.743 28.4108 144.273 28.2383 144.879 28.2383C145.211 28.2383 145.517 28.2708 145.797 28.3359V30.9141C145.654 30.875 145.462 30.8392 145.221 30.8066C144.98 30.7741 144.762 30.7578 144.566 30.7578C144.137 30.7578 143.749 30.8522 143.404 31.041C143.059 31.2298 142.789 31.4935 142.594 31.832C142.398 32.1641 142.301 32.5417 142.301 32.9648V39H139.41V28.3945ZM151.676 39.2148C150.602 39.2148 149.671 38.9935 148.883 38.5508C148.102 38.1081 147.499 37.4766 147.076 36.6562C146.653 35.8294 146.441 34.8594 146.441 33.7461C146.441 32.6589 146.65 31.7018 147.066 30.875C147.49 30.0417 148.089 29.3971 148.863 28.9414C149.638 28.4857 150.536 28.2578 151.559 28.2578C152.509 28.2578 153.359 28.4596 154.107 28.8633C154.863 29.2604 155.455 29.8626 155.885 30.6699C156.321 31.4772 156.539 32.4635 156.539 33.6289V34.4492H149.293C149.293 34.9766 149.391 35.4355 149.586 35.8262C149.788 36.2168 150.071 36.5195 150.436 36.7344C150.807 36.9427 151.24 37.0469 151.734 37.0469C152.21 37.0469 152.62 36.9525 152.965 36.7637C153.31 36.5684 153.557 36.3047 153.707 35.9727H156.461C156.324 36.6237 156.044 37.1934 155.621 37.6816C155.198 38.1699 154.648 38.5475 153.971 38.8145C153.3 39.0814 152.535 39.2148 151.676 39.2148ZM153.805 32.6328C153.805 32.2096 153.71 31.832 153.521 31.5C153.339 31.1615 153.082 30.8978 152.75 30.709C152.418 30.5202 152.04 30.4258 151.617 30.4258C151.188 30.4258 150.797 30.5234 150.445 30.7188C150.1 30.9141 149.824 31.181 149.615 31.5195C149.413 31.8581 149.306 32.2292 149.293 32.6328H153.805ZM163.16 39.2148C162.086 39.2148 161.155 38.9935 160.367 38.5508C159.586 38.1081 158.984 37.4766 158.561 36.6562C158.137 35.8294 157.926 34.8594 157.926 33.7461C157.926 32.6589 158.134 31.7018 158.551 30.875C158.974 30.0417 159.573 29.3971 160.348 28.9414C161.122 28.4857 162.021 28.2578 163.043 28.2578C163.993 28.2578 164.843 28.4596 165.592 28.8633C166.347 29.2604 166.939 29.8626 167.369 30.6699C167.805 31.4772 168.023 32.4635 168.023 33.6289V34.4492H160.777C160.777 34.9766 160.875 35.4355 161.07 35.8262C161.272 36.2168 161.555 36.5195 161.92 36.7344C162.291 36.9427 162.724 37.0469 163.219 37.0469C163.694 37.0469 164.104 36.9525 164.449 36.7637C164.794 36.5684 165.042 36.3047 165.191 35.9727H167.945C167.809 36.6237 167.529 37.1934 167.105 37.6816C166.682 38.1699 166.132 38.5475 165.455 38.8145C164.785 39.0814 164.02 39.2148 163.16 39.2148ZM165.289 32.6328C165.289 32.2096 165.195 31.832 165.006 31.5C164.824 31.1615 164.566 30.8978 164.234 30.709C163.902 30.5202 163.525 30.4258 163.102 30.4258C162.672 30.4258 162.281 30.5234 161.93 30.7188C161.585 30.9141 161.308 31.181 161.1 31.5195C160.898 31.8581 160.79 32.2292 160.777 32.6328H165.289ZM169.84 28.3945H172.633V30.2305H172.75C172.939 29.5859 173.261 29.0944 173.717 28.7559C174.173 28.4108 174.703 28.2383 175.309 28.2383C175.641 28.2383 175.947 28.2708 176.227 28.3359V30.9141C176.083 30.875 175.891 30.8392 175.65 30.8066C175.41 30.7741 175.191 30.7578 174.996 30.7578C174.566 30.7578 174.179 30.8522 173.834 31.041C173.489 31.2298 173.219 31.4935 173.023 31.832C172.828 32.1641 172.73 32.5417 172.73 32.9648V39H169.84V28.3945Z" fill="#5B9037"/>
<path d="M44.3906 75L49.293 60.8594H53.0625L57.9453 75H54.8008L53.7363 71.7383H48.6191L47.5547 75H44.3906ZM52.9941 69.4531L51.2266 64.043H51.1289L49.3613 69.4531H52.9941ZM65.3086 67.5391C65.25 67.168 65.0645 66.8717 64.752 66.6504C64.4395 66.4225 64.0456 66.3086 63.5703 66.3086C63.2578 66.3086 62.9746 66.3574 62.7207 66.4551C62.4733 66.5462 62.278 66.6764 62.1348 66.8457C61.9915 67.0085 61.9232 67.194 61.9297 67.4023C61.9102 67.9036 62.3659 68.2552 63.2969 68.457L65.1914 68.8477C66.2201 69.0625 66.985 69.4043 67.4863 69.873C67.9941 70.3418 68.2513 70.957 68.2578 71.7188C68.2513 72.4089 68.0495 73.0176 67.6523 73.5449C67.2617 74.0723 66.7116 74.4824 66.002 74.7754C65.2923 75.0684 64.4753 75.2148 63.5508 75.2148C62.6068 75.2148 61.7897 75.0814 61.0996 74.8145C60.4095 74.541 59.8659 74.1536 59.4688 73.6523C59.0781 73.1445 58.8438 72.5456 58.7656 71.8555H61.6758C61.7409 72.2721 61.9362 72.5879 62.2617 72.8027C62.5872 73.0176 63.0169 73.125 63.5508 73.125C64.0781 73.125 64.5013 73.0241 64.8203 72.8223C65.1458 72.6204 65.3086 72.3503 65.3086 72.0117C65.3086 71.7383 65.1914 71.5169 64.957 71.3477C64.7292 71.1719 64.3646 71.0286 63.8633 70.918L62.1055 70.5664C61.1029 70.3711 60.3411 70.0163 59.8203 69.502C59.2995 68.9876 59.0456 68.3398 59.0586 67.5586C59.0521 66.888 59.2311 66.3053 59.5957 65.8105C59.9603 65.3092 60.4811 64.9251 61.1582 64.6582C61.8353 64.3913 62.6263 64.2578 63.5312 64.2578C64.4102 64.2578 65.1784 64.3913 65.8359 64.6582C66.4935 64.9251 67.0078 65.306 67.3789 65.8008C67.7565 66.2891 67.9714 66.8685 68.0234 67.5391H65.3086ZM70.0352 60.8594H72.9258V68.457H73.082L76.5195 64.3945H79.8398L75.8848 68.9844L80.0547 75H76.6562L73.7363 70.6836L72.9258 71.6016V75H70.0352V60.8594ZM85.2891 72.0312C85.2891 70.9375 85.6569 70.1367 86.3926 69.6289C87.1283 69.1211 88.0755 68.8346 89.2344 68.7695C89.9505 68.724 90.8294 68.6784 91.8711 68.6328V67.7734C91.8581 67.3307 91.7051 66.9857 91.4121 66.7383C91.1191 66.4909 90.7057 66.3672 90.1719 66.3672C89.6901 66.3672 89.2962 66.4714 88.9902 66.6797C88.6842 66.888 88.4922 67.1745 88.4141 67.5391H85.6602C85.7188 66.9141 85.9336 66.3542 86.3047 65.8594C86.6823 65.3646 87.2064 64.974 87.877 64.6875C88.5475 64.401 89.3385 64.2578 90.25 64.2578C91.0573 64.2578 91.7995 64.3848 92.4766 64.6387C93.1602 64.8926 93.707 65.2897 94.1172 65.8301C94.5339 66.3639 94.7422 67.0378 94.7422 67.8516V75H92.0078V73.5352H91.9297C91.6497 74.0495 91.2493 74.4564 90.7285 74.7559C90.2142 75.0488 89.5794 75.1953 88.8242 75.1953C88.1341 75.1953 87.5221 75.0781 86.9883 74.8438C86.4609 74.6029 86.0443 74.2448 85.7383 73.7695C85.4388 73.2943 85.2891 72.7148 85.2891 72.0312ZM88.0625 71.9531C88.0625 72.3503 88.2057 72.6595 88.4922 72.8809C88.7852 73.0957 89.1693 73.2031 89.6445 73.2031C90.0742 73.2031 90.4583 73.1152 90.7969 72.9395C91.1419 72.7637 91.4089 72.5228 91.5977 72.2168C91.7865 71.9108 91.8776 71.5755 91.8711 71.2109V70.4395C91.5651 70.446 91.1875 70.4622 90.7383 70.4883C90.2891 70.5143 89.944 70.5404 89.7031 70.5664C89.1953 70.6185 88.7949 70.7617 88.502 70.9961C88.209 71.2305 88.0625 71.5495 88.0625 71.9531ZM102.535 66.5625H100.543V71.7383C100.543 72.1289 100.628 72.4023 100.797 72.5586C100.966 72.7148 101.214 72.7995 101.539 72.8125C101.956 72.8125 102.34 72.793 102.691 72.7539V75.0391C102.346 75.1042 101.832 75.1367 101.148 75.1367C100.061 75.1367 99.2051 74.8861 98.5801 74.3848C97.9551 73.8835 97.6458 73.138 97.6523 72.1484V66.5625H96.1875V64.3945H97.6523V61.8555H100.543V64.3945H102.535V66.5625ZM110.27 60.8594H112.34L111.363 66.4258H108.59L110.27 60.8594ZM113.414 60.8594H116.617L119 70.7422H119.117L121.715 60.8594H124.469L127.066 70.7617H127.184L129.566 60.8594H132.77L128.727 75H125.855L123.16 65.6641H123.043L120.328 75H117.457L113.414 60.8594ZM134.273 60.8594H143.766V63.2812H137.203V66.7188H143.277V69.1406H137.203V72.5781H143.785V75H134.273V60.8594ZM151.969 71.6406H152.105L155.562 60.8594H158.805L153.922 75H150.152L145.25 60.8594H148.531L151.969 71.6406ZM160.406 60.8594H169.898V63.2812H163.336V66.7188H169.41V69.1406H163.336V72.5781H169.918V75H160.406V60.8594ZM173.824 66.4258H171.754L172.73 60.8594H175.504L173.824 66.4258ZM180.582 70.7617H178.082L177.828 60.8594H180.836L180.582 70.7617ZM179.352 75.1758C179.052 75.1758 178.775 75.1009 178.521 74.9512C178.268 74.8014 178.066 74.6029 177.916 74.3555C177.773 74.1016 177.704 73.8281 177.711 73.5352C177.704 73.2422 177.773 72.972 177.916 72.7246C178.066 72.4772 178.268 72.2819 178.521 72.1387C178.775 71.9889 179.052 71.9141 179.352 71.9141C179.632 71.9141 179.895 71.9889 180.143 72.1387C180.396 72.2819 180.598 72.4772 180.748 72.7246C180.898 72.972 180.973 73.2422 180.973 73.5352C180.973 73.8281 180.898 74.1016 180.748 74.3555C180.598 74.6029 180.396 74.8014 180.143 74.9512C179.895 75.1009 179.632 75.1758 179.352 75.1758Z" fill="white"/>
</g>
<defs>
<clipPath id="clip0_1712_2689">
<rect width="350" height="100" fill="white"/>
</clipPath>
<clipPath id="clip1_1712_2689">
<rect width="87.5868" height="107.732" fill="white" transform="translate(273 20)"/>
</clipPath>
<clipPath id="clip2_1712_2689">
<rect width="87.5868" height="103.352" fill="white" transform="translate(215 42.332) rotate(-4.1457)"/>
</clipPath>
</defs>
</svg>
