<svg width="350" height="100" viewBox="0 0 350 100" fill="none" xmlns="http://www.w3.org/2000/svg">
<g clip-path="url(#clip0_1712_2737)">
<rect width="350" height="100" fill="#53CB8A"/>
<g clip-path="url(#clip1_1712_2737)">
<path d="M14.6653 92.7212L25.6136 93.5971L22.5481 111.99L30.431 115.275H12.4756L14.6653 92.7212Z" fill="#345FAD"/>
<path d="M31.0605 93.8474L41.1834 89.585L46.9291 107.324L55.439 106.611L39.4995 114.877L31.0605 93.8474Z" fill="#345FAD"/>
<path d="M76.2348 10.9214L-11.0781 4L-17.9995 91.3129L69.3134 98.2343L76.2348 10.9214Z" fill="#345FAD"/>
<path d="M37.6006 33.5832L37.2568 27.0232" stroke="#051042" stroke-width="1.75174"/>
<path d="M46.3477 33.1245L46.0039 26.5645" stroke="#051042" stroke-width="1.75174"/>
<path d="M29.878 36.8383L54.8061 35.5318C57.2414 35.4042 59.3335 37.1956 59.6133 39.5838C59.4802 39.552 59.3102 39.5138 59.1211 39.4767C58.6744 39.3892 58.0994 39.3037 57.6351 39.3304C57.1788 39.3565 56.8381 39.4938 56.5289 39.6183L56.5118 39.6253C56.1974 39.7518 55.9136 39.8632 55.5296 39.8793C55.1643 39.8945 54.8858 39.816 54.577 39.7264L54.5604 39.7215C54.2565 39.6332 53.9215 39.5358 53.487 39.5478C52.9904 39.5615 52.6199 39.706 52.281 39.8381L52.277 39.8397C51.9367 39.9723 51.628 40.0918 51.2128 40.1055C50.8353 40.118 50.5472 40.0375 50.2292 39.948L50.2253 39.9468C49.9082 39.8576 49.5623 39.7601 49.1116 39.7771C48.6264 39.7953 48.2651 39.9367 47.9345 40.0661L47.9305 40.0677C47.5986 40.1976 47.2977 40.3146 46.8917 40.3319C46.505 40.3485 46.209 40.2666 45.8827 40.1755L45.8784 40.1743C45.5534 40.0836 45.1978 39.9845 44.7358 40.0064C44.2628 40.0289 43.9107 40.1674 43.5884 40.2941L43.5845 40.2957C43.2608 40.423 42.9674 40.5376 42.5711 40.5584C42.1752 40.5791 41.8713 40.4957 41.5362 40.403L41.5319 40.4019C41.1982 40.3095 40.8334 40.2085 40.3604 40.2357C39.8988 40.2622 39.5559 40.3979 39.2419 40.5222L39.238 40.5237C38.9227 40.6485 38.6367 40.7608 38.2504 40.7848C37.8449 40.81 37.5335 40.725 37.1897 40.6306L37.1854 40.6294C36.8433 40.5353 36.4693 40.4325 35.985 40.465C35.5401 40.495 35.2081 40.6294 34.9072 40.7515L34.8906 40.7582C34.5849 40.8821 34.3081 40.9914 33.9337 41.011C33.5593 41.0306 33.2729 40.9509 32.9558 40.8596L32.9387 40.8546C32.6265 40.7648 32.2823 40.6657 31.8369 40.6824C31.3521 40.7007 30.9903 40.8421 30.6601 40.9714L30.6558 40.973C30.3238 41.1029 30.023 41.2199 29.6174 41.2373C29.2303 41.2538 28.9342 41.1719 28.608 41.0808L28.604 41.0797C28.2787 40.9889 27.9231 40.8898 27.4615 40.9117C26.9968 40.9338 26.4336 41.0789 25.9988 41.2126C25.8144 41.2693 25.6498 41.3249 25.5205 41.3706C25.5494 38.9661 27.4426 36.9659 29.878 36.8383Z" fill="#051042" stroke="#051042" stroke-width="0.437934"/>
<path d="M42.6175 37.2668C44.0666 37.1909 45.2055 36.444 45.1612 35.5987C45.1169 34.7533 43.9062 34.1296 42.457 34.2055C41.0078 34.2814 39.8689 35.0283 39.9132 35.8737C39.9575 36.7191 41.1683 37.3428 42.6175 37.2668Z" fill="#EE9CC4"/>
</g>
<g clip-path="url(#clip2_1712_2737)">
<path d="M85.1683 17.6175L121.171 112.53L37.6981 107.158L85.1683 17.6175Z" fill="#05A552"/>
<path d="M72.4999 54.5666C72.4999 54.5666 78.6493 59.3601 78.2975 60.3307C78.0275 61.0753 70.0883 60.9269 70.0883 60.9269" stroke="#005227" stroke-width="1.75174"/>
<path d="M92.7231 55.8441C92.7231 55.8441 86.2916 60.4098 86.4919 61.1363C86.6922 61.863 94.6291 62.3738 94.6291 62.3738" stroke="#005227" stroke-width="1.75174"/>
<path d="M72.4483 64.9668C72.4601 64.7828 72.6188 64.6434 72.8027 64.6552L91.366 65.8499C91.55 65.8618 91.6894 66.0204 91.6776 66.2044C91.4409 69.8824 88.2676 72.672 84.5895 72.4353L78.6792 72.0549C75.0012 71.8182 72.2116 68.6449 72.4483 64.9668Z" fill="#051042"/>
<path d="M75.9668 64.8589L87.7666 65.6183C87.7044 66.5837 86.8713 67.3161 85.9059 67.2539L77.6024 66.7195C76.6369 66.6574 75.9047 65.8243 75.9668 64.8589Z" fill="white"/>
</g>
<g clip-path="url(#clip3_1712_2737)">
<path d="M-11.497 117.934L31.1653 132.523L66.0925 104.008L66.0913 104.009L58.2777 60.4728L15.6928 46.314L-19.3107 74.398L-11.497 117.934Z" fill="#EE9CC4"/>
<path d="M38.4922 79.738C38.4922 79.738 37.9563 82.8563 34.2002 83.5836C30.444 84.3108 29.1019 81.556 29.1019 81.556" stroke="#781B4E" stroke-width="1.75174"/>
<path d="M39.5718 74.739L38.6434 69.5665" stroke="#781B4E" stroke-width="1.75174"/>
<path d="M26.1236 77.1526L25.1952 71.98" stroke="#781B4E" stroke-width="1.75174"/>
<path d="M48.4054 69.4162C48.4054 69.4162 49.5195 75.6233 42.7951 76.8302C36.0708 78.037 35.1424 72.8645 35.1424 72.8645L29.9699 73.7928C29.9699 73.7928 30.8982 78.9654 24.1739 80.1722C17.4495 81.3791 16.3355 75.172 16.3355 75.172" stroke="#781B4E" stroke-width="1.75174"/>
</g>
<path d="M187.654 40.8359H185.174V30.543H180.311V28.5117H185.174V23.0234H187.654V40.8359ZM176.053 34.5762C178.501 34.5371 180.831 34.306 183.045 33.8828L183.318 35.9141C181.984 36.194 180.646 36.3893 179.305 36.5C177.97 36.6042 176.554 36.6562 175.057 36.6562H173.553V24.918H176.053V34.5762ZM195.682 24.2148C196.606 24.2083 197.443 24.3939 198.191 24.7715C198.947 25.1426 199.536 25.6602 199.959 26.3242C200.389 26.9883 200.604 27.737 200.604 28.5703C200.604 29.4102 200.389 30.1621 199.959 30.8262C199.536 31.4902 198.95 32.0111 198.201 32.3887C197.452 32.7598 196.613 32.9453 195.682 32.9453C194.751 32.9453 193.908 32.7598 193.152 32.3887C192.404 32.0111 191.814 31.4902 191.385 30.8262C190.955 30.1621 190.74 29.4102 190.74 28.5703C190.74 27.737 190.955 26.9883 191.385 26.3242C191.814 25.6602 192.407 25.1426 193.162 24.7715C193.917 24.3939 194.757 24.2083 195.682 24.2148ZM195.682 26.3633C195.213 26.3633 194.79 26.4512 194.412 26.627C194.035 26.8027 193.738 27.0599 193.523 27.3984C193.315 27.7305 193.214 28.1211 193.221 28.5703C193.214 29.026 193.315 29.4199 193.523 29.752C193.738 30.084 194.031 30.3379 194.402 30.5137C194.78 30.6895 195.206 30.7773 195.682 30.7773C196.157 30.7773 196.58 30.6895 196.951 30.5137C197.329 30.3379 197.625 30.084 197.84 29.752C198.061 29.4199 198.175 29.026 198.182 28.5703C198.175 28.1146 198.064 27.7207 197.85 27.3887C197.635 27.0566 197.339 26.8027 196.961 26.627C196.583 26.4512 196.157 26.3633 195.682 26.3633ZM204.861 40.8359H202.381V23.0234H204.861V40.8359ZM190.975 35.1719C195.148 35.1719 198.611 34.9831 201.365 34.6055L201.561 36.4023C199.816 36.7409 198.035 36.959 196.219 37.0566C194.402 37.1543 192.426 37.2031 190.291 37.2031L189.998 35.1719H190.975ZM226.463 26.2461C226.463 27.2552 226.45 28.1374 226.424 28.8926C226.404 29.6413 226.339 30.5137 226.229 31.5098C226.124 32.4993 225.962 33.5768 225.74 34.7422L223.24 34.4883C223.54 33.0039 223.732 31.6693 223.816 30.4844C223.901 29.2995 223.95 27.9844 223.963 26.5391H213.494V24.5664H226.463V26.2461ZM228.025 38.6289H211.814V36.5977H217.615V30.4844H220.096V36.5977H228.025V38.6289ZM238.689 33.0234H229.998V24.4492H238.689V33.0234ZM232.459 31.0508H236.209V26.4219H232.459V31.0508ZM243.982 35.6797H241.482V23.043H243.982V35.6797ZM244.451 40.4062H232.068V34.5078H234.588V38.3945H244.451V40.4062ZM254.49 23.2773C255.851 23.2773 257.013 23.3945 257.977 23.6289C258.94 23.8633 259.676 24.2083 260.184 24.6641C260.691 25.1133 260.949 25.6602 260.955 26.3047C260.949 26.9557 260.691 27.5091 260.184 27.9648C259.676 28.4206 258.94 28.7656 257.977 29C257.013 29.2344 255.851 29.3516 254.49 29.3516C253.123 29.3516 251.954 29.2344 250.984 29C250.014 28.7656 249.275 28.4206 248.768 27.9648C248.26 27.5091 248.006 26.9557 248.006 26.3047C248.006 25.6602 248.26 25.1133 248.768 24.6641C249.275 24.2083 250.014 23.8633 250.984 23.6289C251.954 23.3945 253.123 23.2773 254.49 23.2773ZM254.49 25.0938C253.195 25.0938 252.221 25.1979 251.57 25.4062C250.926 25.6081 250.61 25.9076 250.623 26.3047C250.617 26.7344 250.926 27.0436 251.551 27.2324C252.176 27.4212 253.156 27.5156 254.49 27.5156C255.831 27.5156 256.814 27.4212 257.439 27.2324C258.064 27.0436 258.377 26.7344 258.377 26.3047C258.377 25.9076 258.055 25.6081 257.41 25.4062C256.766 25.1979 255.792 25.0938 254.49 25.0938ZM262.596 32.1641H246.385V30.1914H262.596V32.1641ZM260.623 37.7305H250.721V38.8047H261.092V40.6797H248.279V35.9922H258.162V35.0156H248.26V33.1992H260.623V37.7305ZM282.381 26.4609H284.783V28.5117H282.381V31.9102H279.881V23.0234H282.381V26.4609ZM277.342 31.2461H268.807V23.8633H277.342V31.2461ZM271.268 29.2734H274.881V25.8164H271.268V29.2734ZM282.381 37.457H273.064V38.6484H282.889V40.6016H270.623V35.6602H279.9V34.5273H270.584V32.6133H282.381V37.457ZM294.139 27.7109H285.545V25.7383H288.631V23.5117H291.092V25.7383H294.139V27.7109ZM289.881 28.5117C290.63 28.5117 291.297 28.694 291.883 29.0586C292.475 29.4167 292.938 29.9147 293.27 30.5527C293.608 31.1908 293.781 31.9167 293.787 32.7305C293.781 33.5443 293.608 34.2734 293.27 34.918C292.938 35.5625 292.475 36.0671 291.883 36.4316C291.297 36.7897 290.63 36.9688 289.881 36.9688C289.132 36.9688 288.458 36.7897 287.859 36.4316C287.267 36.0671 286.801 35.5625 286.463 34.918C286.124 34.2734 285.955 33.5443 285.955 32.7305C285.955 31.9232 286.124 31.2005 286.463 30.5625C286.801 29.918 287.267 29.4167 287.859 29.0586C288.458 28.694 289.132 28.5117 289.881 28.5117ZM289.881 30.582C289.354 30.582 288.93 30.7741 288.611 31.1582C288.299 31.5423 288.143 32.0664 288.143 32.7305C288.143 33.3945 288.299 33.9154 288.611 34.293C288.93 34.6706 289.354 34.8594 289.881 34.8594C290.389 34.8594 290.799 34.6706 291.111 34.293C291.43 33.9154 291.593 33.3945 291.6 32.7305C291.593 32.0664 291.43 31.5423 291.111 31.1582C290.799 30.7741 290.389 30.582 289.881 30.582ZM300.936 40.7969H298.572V32.2422H297.127V40.0352H294.803V23.375H297.127V30.25H298.572V23.0234H300.936V40.7969ZM319.119 38.7266H302.85V36.6953H309.705V33.4141H304.568V24.1562H307.068V26.9102H314.822V24.1562H317.303V33.4141H312.186V36.6953H319.119V38.7266ZM314.822 31.4219V28.9023H307.068V31.4219H314.822ZM335.115 40.582H323.104V34.2539H335.115V40.582ZM325.584 38.6289H332.654V36.1875H325.584V38.6289ZM335.115 33.4727H332.635V30.9336H329.686V28.9219H332.635V27.2812H329.686V25.2695H332.635V23.043H335.115V33.4727ZM328.67 29.293H323.299V31.0215C324.751 31.0085 325.91 30.9792 326.775 30.9336C327.641 30.8815 328.501 30.7904 329.354 30.6602L329.549 32.6328C328.729 32.7826 327.895 32.8835 327.049 32.9355C326.209 32.9811 325.096 33.0039 323.709 33.0039H322.166H320.838V27.418H326.17V25.8164H320.799V23.8242H328.67V29.293Z" fill="white"/>
<path d="M130.76 62.8516H133.162V64.8438H130.76V68.6133H128.26V58.9844H130.76V62.8516ZM130.76 73.8281H121.443V74.8438H131.268V76.6797H119.002V72.1289H128.279V71.1328H118.963V69.3359H130.76V73.8281ZM127.205 62.2461H116.658V60.3516H120.701V58.9062H123.182V60.3516H127.205V62.2461ZM121.932 62.6758C122.811 62.6758 123.579 62.7962 124.236 63.0371C124.9 63.2715 125.411 63.61 125.77 64.0527C126.128 64.4889 126.307 65 126.307 65.5859C126.307 66.1849 126.128 66.7025 125.77 67.1387C125.411 67.5749 124.9 67.9102 124.236 68.1445C123.579 68.3789 122.811 68.4961 121.932 68.4961C121.046 68.4961 120.271 68.3789 119.607 68.1445C118.943 67.9102 118.429 67.5749 118.064 67.1387C117.7 66.7025 117.518 66.1849 117.518 65.5859C117.518 65 117.7 64.4889 118.064 64.0527C118.429 63.61 118.943 63.2715 119.607 63.0371C120.278 62.7962 121.053 62.6758 121.932 62.6758ZM121.932 64.4336C121.307 64.4336 120.818 64.5345 120.467 64.7363C120.122 64.9382 119.952 65.2214 119.959 65.5859C119.952 65.957 120.122 66.2402 120.467 66.4355C120.812 66.6243 121.3 66.7188 121.932 66.7188C122.563 66.7188 123.055 66.6243 123.406 66.4355C123.764 66.2402 123.943 65.957 123.943 65.5859C123.943 65.2214 123.764 64.9382 123.406 64.7363C123.048 64.5345 122.557 64.4336 121.932 64.4336ZM143.123 65.1758H146.482V59.0234H148.943V76.8359H146.482V67.1875H143.123V72.4609H134.607V60.6055H143.123V65.1758ZM137.088 70.5273H140.682V62.5391H137.088V70.5273ZM166.17 76.7969H163.689V59.0234H166.17V76.7969ZM154.646 70.2832C157.283 70.2376 159.816 69.9805 162.244 69.5117L162.557 71.5625C159.881 72.1224 157.055 72.4023 154.08 72.4023H153.748H152.186V60.7227H154.646V70.2832Z" fill="#F565AB"/>
<path d="M170.584 79.1211H168.514L169.49 73.5547H172.264L170.584 79.1211ZM261.385 65.8398H263.904V67.8906H261.385V76.7578H258.885V59.0234H261.385V65.8398ZM256.639 60.8398C256.626 63.6719 255.988 66.1751 254.725 68.3496C253.468 70.5176 251.417 72.2982 248.572 73.6914L247.166 71.7773C249.282 70.7161 250.906 69.4596 252.039 68.0078C253.178 66.556 253.865 64.8438 254.1 62.8711H248.182V60.8398H256.639ZM285.506 67.9102H269.256V65.957H285.506V67.9102ZM283.572 64.9805H271.287V59.375H283.436V61.3672H273.768V63.0273H283.572V64.9805ZM283.494 73.6133H273.592V74.707H283.963V76.6406H271.15V71.8359H281.033V70.8398H271.131V68.9648H283.494V73.6133ZM291.443 60.2734C292.238 60.2734 292.957 60.485 293.602 60.9082C294.246 61.3249 294.773 61.9238 295.184 62.7051C295.6 63.4798 295.867 64.3945 295.984 65.4492H299.08V59.0234H301.541V76.8359H299.08V67.4414H296.014C295.929 68.5677 295.682 69.5475 295.271 70.3809C294.861 71.2077 294.327 71.8424 293.67 72.2852C293.012 72.7279 292.27 72.9492 291.443 72.9492C290.545 72.9492 289.744 72.6921 289.041 72.1777C288.344 71.6569 287.801 70.918 287.41 69.9609C287.02 68.9974 286.827 67.8776 286.834 66.6016C286.827 65.332 287.02 64.222 287.41 63.2715C287.801 62.3145 288.344 61.5755 289.041 61.0547C289.744 60.5339 290.545 60.2734 291.443 60.2734ZM291.443 62.5195C291.001 62.5195 290.61 62.679 290.271 62.998C289.933 63.3105 289.669 63.776 289.48 64.3945C289.298 65.0065 289.21 65.7422 289.217 66.6016C289.21 67.4674 289.298 68.2064 289.48 68.8184C289.669 69.4303 289.93 69.8958 290.262 70.2148C290.6 70.5273 290.994 70.6836 291.443 70.6836C291.893 70.6836 292.283 70.5273 292.615 70.2148C292.954 69.9023 293.214 69.4401 293.396 68.8281C293.579 68.2161 293.67 67.474 293.67 66.6016C293.67 65.7357 293.579 64.9967 293.396 64.3848C293.214 63.7728 292.954 63.3105 292.615 62.998C292.283 62.679 291.893 62.5195 291.443 62.5195ZM320.037 68.0469H313.162V69.1992H318.064V73.75H308.162V74.8047H318.533V76.6797H305.721V72.0117H315.604V71.0547H305.701V69.1992H310.682V68.0469H303.826V66.0938H320.037V68.0469ZM318.572 61.4453H313.592C313.794 61.8164 314.139 62.1615 314.627 62.4805C315.122 62.7995 315.766 63.0697 316.561 63.291C317.355 63.5124 318.279 63.6589 319.334 63.7305L318.553 65.6055C316.938 65.4883 315.564 65.1888 314.432 64.707C313.299 64.2188 312.459 63.5938 311.912 62.832C311.365 63.5938 310.529 64.2188 309.402 64.707C308.283 65.1888 306.925 65.4883 305.33 65.6055L304.549 63.7305C306.105 63.6263 307.365 63.3659 308.328 62.9492C309.298 62.526 309.936 62.0247 310.242 61.4453H305.311V59.5312H318.572V61.4453ZM336.521 76.7969H334.178V59.0234H336.521V76.7969ZM332.732 76.0156H330.408V67.8516H327.498C326.977 68.8932 326.29 69.8503 325.438 70.7227C324.585 71.5951 323.54 72.3893 322.303 73.1055L320.896 71.3477C322.654 70.2995 323.966 69.1146 324.832 67.793C325.704 66.4714 326.229 64.9219 326.404 63.1445H321.873V61.1328H328.885C328.872 62.9362 328.667 64.5182 328.27 65.8789H330.408V59.4141H332.732V76.0156Z" fill="white"/>
<path d="M192.322 62.8516H194.725V64.8438H192.322V68.6133H189.822V58.9844H192.322V62.8516ZM192.322 73.8281H183.006V74.8438H192.83V76.6797H180.564V72.1289H189.842V71.1328H180.525V69.3359H192.322V73.8281ZM188.768 62.2461H178.221V60.3516H182.264V58.9062H184.744V60.3516H188.768V62.2461ZM183.494 62.6758C184.373 62.6758 185.141 62.7962 185.799 63.0371C186.463 63.2715 186.974 63.61 187.332 64.0527C187.69 64.4889 187.869 65 187.869 65.5859C187.869 66.1849 187.69 66.7025 187.332 67.1387C186.974 67.5749 186.463 67.9102 185.799 68.1445C185.141 68.3789 184.373 68.4961 183.494 68.4961C182.609 68.4961 181.834 68.3789 181.17 68.1445C180.506 67.9102 179.992 67.5749 179.627 67.1387C179.262 66.7025 179.08 66.1849 179.08 65.5859C179.08 65 179.262 64.4889 179.627 64.0527C179.992 63.61 180.506 63.2715 181.17 63.0371C181.84 62.7962 182.615 62.6758 183.494 62.6758ZM183.494 64.4336C182.869 64.4336 182.381 64.5345 182.029 64.7363C181.684 64.9382 181.515 65.2214 181.521 65.5859C181.515 65.957 181.684 66.2402 182.029 66.4355C182.374 66.6243 182.863 66.7188 183.494 66.7188C184.126 66.7188 184.617 66.6243 184.969 66.4355C185.327 66.2402 185.506 65.957 185.506 65.5859C185.506 65.2214 185.327 64.9382 184.969 64.7363C184.611 64.5345 184.119 64.4336 183.494 64.4336ZM200.291 60.2734C201.189 60.2734 201.993 60.5339 202.703 61.0547C203.413 61.569 203.966 62.3047 204.363 63.2617C204.767 64.2188 204.972 65.332 204.979 66.6016C204.972 67.8776 204.767 68.9974 204.363 69.9609C203.966 70.918 203.413 71.6569 202.703 72.1777C202 72.6921 201.196 72.9492 200.291 72.9492C199.386 72.9492 198.576 72.6921 197.859 72.1777C197.15 71.6569 196.593 70.918 196.189 69.9609C195.792 68.9974 195.597 67.8776 195.604 66.6016C195.597 65.3385 195.792 64.2285 196.189 63.2715C196.593 62.3145 197.15 61.5755 197.859 61.0547C198.576 60.5339 199.386 60.2734 200.291 60.2734ZM200.291 62.5195C199.835 62.5195 199.435 62.679 199.09 62.998C198.745 63.3105 198.478 63.7728 198.289 64.3848C198.1 64.9967 198.006 65.7357 198.006 66.6016C198.006 67.4674 198.1 68.2096 198.289 68.8281C198.478 69.4401 198.745 69.9023 199.09 70.2148C199.435 70.5273 199.835 70.6836 200.291 70.6836C200.753 70.6836 201.157 70.5273 201.502 70.2148C201.847 69.9023 202.114 69.4401 202.303 68.8281C202.492 68.2161 202.589 67.474 202.596 66.6016C202.589 65.7357 202.492 64.9967 202.303 64.3848C202.114 63.7728 201.847 63.3105 201.502 62.998C201.157 62.679 200.753 62.5195 200.291 62.5195ZM209.529 65.7227H212.146V67.793H209.529V76.7969H207.029V59.0234H209.529V65.7227ZM227.791 76.8359H225.33V67.3047H222.029V72.6172H213.455V60.3906H215.936V64.707H219.588V60.3906H222.029V65.293H225.33V59.0234H227.791V76.8359ZM219.588 70.625V66.6602H215.936V70.625H219.588ZM236.971 63.8672C236.971 64.8503 237.137 65.8171 237.469 66.7676C237.807 67.7116 238.312 68.5612 238.982 69.3164C239.653 70.0716 240.467 70.651 241.424 71.0547L240.076 73.0078C239.054 72.5781 238.178 71.9466 237.449 71.1133C236.72 70.2799 236.147 69.3066 235.73 68.1934C235.32 69.4043 234.744 70.4688 234.002 71.3867C233.26 72.2982 232.381 72.9883 231.365 73.457L229.939 71.4844C230.89 71.0612 231.701 70.446 232.371 69.6387C233.048 68.8314 233.556 67.9264 233.895 66.9238C234.24 65.9147 234.412 64.8958 234.412 63.8672V62.7734H230.643V60.7422H240.682V62.7734H236.971V63.8672ZM244.959 76.7969H242.439V59.0234H244.959V76.7969Z" fill="#345FAD"/>
</g>
<defs>
<clipPath id="clip0_1712_2737">
<rect width="350" height="100" fill="white"/>
</clipPath>
<clipPath id="clip1_1712_2737">
<rect width="94.5938" height="111.673" fill="white" transform="translate(-18 4)"/>
</clipPath>
<clipPath id="clip2_1712_2737">
<rect width="83.6454" height="113.863" fill="white" transform="translate(43.6328 14.9443) rotate(3.68242)"/>
</clipPath>
<clipPath id="clip3_1712_2737">
<rect width="87.5868" height="109.921" fill="white" transform="matrix(-0.995924 0.0901949 0.0901949 0.995924 63.4512 38.2739)"/>
</clipPath>
</defs>
</svg>
