<svg width="350" height="100" viewBox="0 0 350 100" fill="none" xmlns="http://www.w3.org/2000/svg">
<g clip-path="url(#clip0_1712_2787)">
<rect width="350" height="100" fill="#53CB8A"/>
<g clip-path="url(#clip1_1712_2787)">
<path d="M14.6653 92.7212L25.6136 93.5971L22.5481 111.99L30.431 115.275H12.4756L14.6653 92.7212Z" fill="#345FAD"/>
<path d="M31.0605 93.8474L41.1834 89.585L46.9291 107.324L55.439 106.611L39.4995 114.877L31.0605 93.8474Z" fill="#345FAD"/>
<path d="M76.2348 10.9214L-11.0781 4L-17.9995 91.3129L69.3134 98.2343L76.2348 10.9214Z" fill="#345FAD"/>
<path d="M37.6006 33.5832L37.2568 27.0232" stroke="#051042" stroke-width="1.75174"/>
<path d="M46.3477 33.1245L46.0039 26.5645" stroke="#051042" stroke-width="1.75174"/>
<path d="M29.878 36.8383L54.8061 35.5318C57.2414 35.4042 59.3335 37.1956 59.6133 39.5838C59.4802 39.552 59.3102 39.5138 59.1211 39.4767C58.6744 39.3892 58.0994 39.3037 57.6351 39.3304C57.1788 39.3565 56.8381 39.4938 56.5289 39.6183L56.5118 39.6253C56.1974 39.7518 55.9136 39.8632 55.5296 39.8793C55.1643 39.8945 54.8858 39.816 54.577 39.7264L54.5604 39.7215C54.2565 39.6332 53.9215 39.5358 53.487 39.5478C52.9904 39.5615 52.6199 39.706 52.281 39.8381L52.277 39.8397C51.9367 39.9723 51.628 40.0918 51.2128 40.1055C50.8353 40.118 50.5472 40.0375 50.2292 39.948L50.2253 39.9468C49.9082 39.8576 49.5623 39.7601 49.1116 39.7771C48.6264 39.7953 48.2651 39.9367 47.9345 40.0661L47.9305 40.0677C47.5986 40.1976 47.2977 40.3146 46.8917 40.3319C46.505 40.3485 46.209 40.2666 45.8827 40.1755L45.8784 40.1743C45.5534 40.0836 45.1978 39.9845 44.7358 40.0064C44.2628 40.0289 43.9107 40.1674 43.5884 40.2941L43.5845 40.2957C43.2608 40.423 42.9674 40.5376 42.5711 40.5584C42.1752 40.5791 41.8713 40.4957 41.5362 40.403L41.5319 40.4019C41.1982 40.3095 40.8334 40.2085 40.3604 40.2357C39.8988 40.2622 39.5559 40.3979 39.2419 40.5222L39.238 40.5237C38.9227 40.6485 38.6367 40.7608 38.2504 40.7848C37.8449 40.81 37.5335 40.725 37.1897 40.6306L37.1854 40.6294C36.8433 40.5353 36.4693 40.4325 35.985 40.465C35.5401 40.495 35.2081 40.6294 34.9072 40.7515L34.8906 40.7582C34.5849 40.8821 34.3081 40.9914 33.9337 41.011C33.5593 41.0306 33.2729 40.9509 32.9558 40.8596L32.9387 40.8546C32.6265 40.7648 32.2823 40.6657 31.8369 40.6824C31.3521 40.7007 30.9903 40.8421 30.6601 40.9714L30.6558 40.973C30.3238 41.1029 30.023 41.2199 29.6174 41.2373C29.2303 41.2538 28.9342 41.1719 28.608 41.0808L28.604 41.0797C28.2787 40.9889 27.9231 40.8898 27.4615 40.9117C26.9968 40.9338 26.4336 41.0789 25.9988 41.2126C25.8144 41.2693 25.6498 41.3249 25.5205 41.3706C25.5494 38.9661 27.4426 36.9659 29.878 36.8383Z" fill="#051042" stroke="#051042" stroke-width="0.437934"/>
<path d="M42.6175 37.2668C44.0666 37.1909 45.2055 36.444 45.1612 35.5987C45.1169 34.7533 43.9062 34.1296 42.457 34.2055C41.0078 34.2814 39.8689 35.0283 39.9132 35.8737C39.9575 36.7191 41.1683 37.3428 42.6175 37.2668Z" fill="#EE9CC4"/>
</g>
<g clip-path="url(#clip2_1712_2787)">
<path d="M85.1683 17.6175L121.171 112.53L37.6981 107.158L85.1683 17.6175Z" fill="#05A552"/>
<path d="M72.4999 54.5666C72.4999 54.5666 78.6493 59.3601 78.2975 60.3307C78.0275 61.0753 70.0883 60.9269 70.0883 60.9269" stroke="#005227" stroke-width="1.75174"/>
<path d="M92.7231 55.8441C92.7231 55.8441 86.2916 60.4098 86.4919 61.1363C86.6922 61.863 94.6291 62.3738 94.6291 62.3738" stroke="#005227" stroke-width="1.75174"/>
<path d="M72.4483 64.9668C72.4601 64.7828 72.6188 64.6434 72.8027 64.6552L91.366 65.8499C91.55 65.8618 91.6894 66.0204 91.6776 66.2044C91.4409 69.8824 88.2676 72.672 84.5895 72.4353L78.6792 72.0549C75.0012 71.8182 72.2116 68.6449 72.4483 64.9668Z" fill="#051042"/>
<path d="M75.9668 64.8589L87.7666 65.6183C87.7044 66.5837 86.8713 67.3161 85.9059 67.2539L77.6024 66.7195C76.6369 66.6574 75.9047 65.8243 75.9668 64.8589Z" fill="white"/>
</g>
<g clip-path="url(#clip3_1712_2787)">
<path d="M-11.497 117.934L31.1653 132.523L66.0925 104.008L66.0913 104.009L58.2777 60.4728L15.6928 46.314L-19.3107 74.398L-11.497 117.934Z" fill="#EE9CC4"/>
<path d="M38.4922 79.738C38.4922 79.738 37.9563 82.8563 34.2002 83.5836C30.444 84.3108 29.1019 81.556 29.1019 81.556" stroke="#781B4E" stroke-width="1.75174"/>
<path d="M39.5718 74.739L38.6434 69.5665" stroke="#781B4E" stroke-width="1.75174"/>
<path d="M26.1236 77.1526L25.1952 71.98" stroke="#781B4E" stroke-width="1.75174"/>
<path d="M48.4054 69.4162C48.4054 69.4162 49.5195 75.6233 42.7951 76.8302C36.0708 78.037 35.1424 72.8645 35.1424 72.8645L29.9699 73.7928C29.9699 73.7928 30.8982 78.9654 24.1739 80.1722C17.4495 81.3791 16.3355 75.172 16.3355 75.172" stroke="#781B4E" stroke-width="1.75174"/>
</g>
<path d="M72.7969 25.543H77.3086V23.4531H79.7305V25.543H87.9531V27.5938H79.7305V28.9316C80.1016 28.8991 80.4401 28.8828 80.7461 28.8828C82.3021 28.8828 83.64 29.0944 84.7598 29.5176C85.8796 29.9342 86.7324 30.543 87.3184 31.3438C87.9108 32.138 88.207 33.0885 88.207 34.1953C88.207 35.1198 87.9857 35.9824 87.543 36.7832C87.1003 37.584 86.4785 38.2546 85.6777 38.7949C84.8835 39.3353 83.9753 39.6966 82.9531 39.8789L82.0938 37.8477C82.8424 37.6979 83.4902 37.4505 84.0371 37.1055C84.5905 36.7604 85.0137 36.3372 85.3066 35.8359C85.5996 35.3346 85.7461 34.7812 85.7461 34.1758C85.7461 33.4336 85.515 32.7956 85.0527 32.2617C84.0371 33.6484 82.9629 34.8789 81.8301 35.9531C80.6973 37.0273 79.5905 37.8639 78.5098 38.4629C77.429 39.0553 76.4622 39.3516 75.6094 39.3516C74.9909 39.3516 74.4505 39.2018 73.9883 38.9023C73.526 38.5964 73.168 38.1634 72.9141 37.6035C72.6667 37.0371 72.543 36.3763 72.543 35.6211C72.543 34.6836 72.7383 33.8079 73.1289 32.9941C73.5195 32.1803 74.0729 31.4707 74.7891 30.8652C75.5052 30.2598 76.3451 29.7878 77.3086 29.4492V27.5938H72.7969V25.543ZM74.9453 35.543C74.9453 36.0638 75.0332 36.4674 75.209 36.7539C75.3913 37.0404 75.6484 37.1836 75.9805 37.1836C76.332 37.1836 76.8008 37.0241 77.3867 36.7051V31.7539C76.612 32.1706 76.0098 32.7044 75.5801 33.3555C75.1569 34.0065 74.9453 34.7357 74.9453 35.543ZM79.6523 35.0156C80.2448 34.4883 80.8405 33.8958 81.4395 33.2383C82.0449 32.5742 82.6211 31.8776 83.168 31.1484C82.569 30.9792 81.8984 30.8945 81.1562 30.8945C80.6354 30.8945 80.1341 30.9336 79.6523 31.0117V35.0156ZM99.2812 39.7812C98.3438 39.7812 97.5365 39.6315 96.8594 39.332C96.1823 39.0391 95.6647 38.6126 95.3066 38.0527C94.9486 37.4863 94.7695 36.8125 94.7695 36.0312C94.7695 35.2435 94.9486 34.5729 95.3066 34.0195C95.6712 33.4596 96.1986 33.0332 96.8887 32.7402C97.5853 32.4473 98.4219 32.3008 99.3984 32.3008C100.115 32.3008 100.831 32.4342 101.547 32.7012V25.9922C103.663 25.9922 105.648 26.0508 107.504 26.168L107.367 28.4141C106.41 28.3424 105.303 28.2904 104.047 28.2578V34.1074C105.056 34.8366 106.221 35.888 107.543 37.2617L106.02 38.9609C105.134 38.0885 104.424 37.4017 103.891 36.9004C103.65 37.8574 103.142 38.5768 102.367 39.0586C101.599 39.5404 100.57 39.7812 99.2812 39.7812ZM90.5508 36.793C91.5729 33.9479 92.4583 31.0964 93.207 28.2383H90.4336V25.9922H93.7637C94.0046 24.918 94.1966 24.0456 94.3398 23.375L96.7812 23.5898C96.5794 24.5859 96.4102 25.3867 96.2734 25.9922H99.9453V28.2383H95.7461C94.9583 31.4023 94.0208 34.4883 92.9336 37.4961L90.5508 36.793ZM97.1914 35.9727C97.1914 37.1055 97.888 37.6719 99.2812 37.6719C100.03 37.6719 100.593 37.5091 100.971 37.1836C101.355 36.8581 101.547 36.3828 101.547 35.7578V34.9668C101.163 34.7259 100.808 34.5599 100.482 34.4688C100.157 34.3776 99.7956 34.332 99.3984 34.332C98.6367 34.332 98.0768 34.4655 97.7188 34.7324C97.3672 34.9928 97.1914 35.4062 97.1914 35.9727ZM110.082 39.4492C111.189 35.7448 112.081 31.9362 112.758 28.0234H109.809V25.7773H113.129C113.272 24.7747 113.376 24.0195 113.441 23.5117L116 23.6289C115.876 24.612 115.782 25.3281 115.717 25.7773H123.148V28.0234H115.375C114.711 32.0534 113.799 36.0182 112.641 39.918L110.082 39.4492ZM121.82 39.5469C120.661 39.5469 119.652 39.4102 118.793 39.1367C117.934 38.8698 117.273 38.4857 116.811 37.9844C116.348 37.4766 116.117 36.8776 116.117 36.1875C116.117 35.6992 116.273 35.2207 116.586 34.752C116.898 34.2767 117.387 33.7917 118.051 33.2969L120.199 34.293C119.737 34.599 119.385 34.8919 119.145 35.1719C118.91 35.4453 118.793 35.6992 118.793 35.9336C118.793 36.2005 118.917 36.4316 119.164 36.627C119.411 36.8223 119.763 36.9753 120.219 37.0859C120.681 37.1901 121.215 37.2422 121.82 37.2422C122.973 37.2422 124.197 37.1185 125.492 36.8711L125.766 39.1758C125.076 39.3125 124.421 39.4069 123.803 39.459C123.184 39.5176 122.523 39.5469 121.82 39.5469ZM116.898 29.8984C119.848 29.625 122.725 29.4883 125.531 29.4883V31.7148C122.693 31.7148 119.861 31.8581 117.035 32.1445L116.898 29.8984ZM138.109 37.1055C138.975 36.9948 139.74 36.7018 140.404 36.2266C141.075 35.7513 141.596 35.1393 141.967 34.3906C142.338 33.6354 142.523 32.8021 142.523 31.8906C142.523 31.0182 142.341 30.2402 141.977 29.5566C141.618 28.873 141.111 28.3197 140.453 27.8965C139.802 27.4668 139.044 27.1868 138.178 27.0566C137.794 29.8952 137.348 32.1803 136.84 33.9121C136.332 35.6374 135.733 36.9004 135.043 37.7012C134.359 38.502 133.546 38.9023 132.602 38.9023C131.788 38.9023 131.049 38.6387 130.385 38.1113C129.721 37.584 129.197 36.8646 128.812 35.9531C128.435 35.0352 128.246 34.013 128.246 32.8867C128.246 31.3112 128.627 29.9017 129.389 28.6582C130.15 27.4082 131.205 26.4349 132.553 25.7383C133.907 25.0352 135.44 24.6836 137.152 24.6836C138.682 24.6836 140.04 24.9733 141.225 25.5527C142.416 26.1257 143.347 26.9557 144.018 28.043C144.688 29.1302 145.023 30.4128 145.023 31.8906C145.023 33.2057 144.763 34.4004 144.242 35.4746C143.728 36.5488 143.002 37.4245 142.064 38.1016C141.127 38.7786 140.049 39.1953 138.832 39.3516L138.109 37.1055ZM130.59 32.8867C130.59 33.4401 130.681 33.987 130.863 34.5273C131.052 35.0612 131.29 35.4974 131.576 35.8359C131.869 36.1745 132.165 36.3438 132.465 36.3438C132.875 36.3438 133.272 35.9824 133.656 35.2598C134.047 34.5371 134.411 33.4889 134.75 32.1152C135.089 30.735 135.388 29.0781 135.648 27.1445C134.685 27.3464 133.819 27.724 133.051 28.2773C132.283 28.8307 131.68 29.5078 131.244 30.3086C130.808 31.1094 130.59 31.9688 130.59 32.8867ZM153.14 23.7L155.18 22.98C155.433 23.46 155.687 23.9867 155.94 24.56C156.193 25.1333 156.42 25.6933 156.62 26.24C156.82 26.7733 156.96 27.2533 157.04 27.68L154.84 28.54C154.773 28.1133 154.653 27.62 154.48 27.06C154.307 26.5 154.1 25.9267 153.86 25.34C153.633 24.7533 153.393 24.2067 153.14 23.7ZM157.1 22.86L159.18 22.28C159.393 22.7867 159.593 23.3333 159.78 23.92C159.967 24.5067 160.133 25.08 160.28 25.64C160.427 26.1867 160.527 26.6733 160.58 27.1L158.34 27.8C158.3 27.3867 158.213 26.9 158.08 26.34C157.96 25.7667 157.813 25.18 157.64 24.58C157.467 23.9667 157.287 23.3933 157.1 22.86ZM155.98 31.82L157.18 30.22C157.793 30.6333 158.433 31.1067 159.1 31.64C159.78 32.16 160.42 32.68 161.02 33.2C161.633 33.72 162.113 34.2 162.46 34.64L161.16 36.48C160.813 36.0267 160.347 35.5267 159.76 34.98C159.187 34.42 158.567 33.8667 157.9 33.32C157.233 32.76 156.593 32.26 155.98 31.82ZM153.58 29.62H155.86V40.6H153.58V29.62ZM162.48 29.58H164.84V40.56H162.48V29.58ZM154.66 37.32H163.6V39.5H154.66V37.32ZM162.7 22.56L165.2 23.1C164.987 23.8733 164.727 24.6467 164.42 25.42C164.127 26.1933 163.807 26.92 163.46 27.6C163.127 28.28 162.793 28.88 162.46 29.4C162.287 29.28 162.053 29.1533 161.76 29.02C161.467 28.8867 161.173 28.76 160.88 28.64C160.6 28.5067 160.347 28.4 160.12 28.32C160.48 27.8533 160.82 27.3067 161.14 26.68C161.473 26.0533 161.773 25.3867 162.04 24.68C162.307 23.96 162.527 23.2533 162.7 22.56ZM159.72 29.14L161.84 29.6C161.4 31.12 160.807 32.56 160.06 33.92C159.327 35.28 158.52 36.42 157.64 37.34C157.52 37.22 157.347 37.0733 157.12 36.9C156.907 36.7267 156.687 36.56 156.46 36.4C156.247 36.2267 156.06 36.0867 155.9 35.98C156.753 35.1933 157.513 34.2 158.18 33C158.847 31.7867 159.36 30.5 159.72 29.14ZM149.22 22H151.52V40.78H149.22V22ZM147.32 25.96L148.92 26.18C148.92 26.8067 148.887 27.4733 148.82 28.18C148.753 28.8733 148.647 29.5467 148.5 30.2C148.367 30.84 148.18 31.4133 147.94 31.92L146.38 31.22C146.58 30.7933 146.747 30.2867 146.88 29.7C147.027 29.1133 147.133 28.4933 147.2 27.84C147.28 27.1867 147.32 26.56 147.32 25.96ZM151.14 26L152.62 25.36C152.94 25.9467 153.24 26.58 153.52 27.26C153.8 27.94 153.987 28.5267 154.08 29.02L152.5 29.76C152.447 29.4267 152.347 29.0467 152.2 28.62C152.067 28.1933 151.907 27.7533 151.72 27.3C151.533 26.8333 151.34 26.4 151.14 26ZM171.469 39.4492C170.72 39.4492 169.997 39.2148 169.301 38.7461C168.611 38.2773 168.054 37.6654 167.631 36.9102C167.208 36.1549 166.996 35.3737 166.996 34.5664C166.996 33.707 167.253 32.9551 167.768 32.3105C168.282 31.6595 169.027 31.1387 170.004 30.748C170.987 30.3509 172.162 30.1035 173.529 30.0059C173.594 29.1009 173.637 28.0365 173.656 26.8125H167.797V24.6641H176.273V24.8398C176.273 26.7409 176.215 28.4596 176.098 29.9961C177.126 30.0547 178.165 30.2142 179.213 30.4746L179.223 28.5508V25.1719H181.703V28.668C181.703 29.638 181.693 30.5202 181.674 31.3145C182.579 31.7051 183.435 32.151 184.242 32.6523L183.344 34.8203C182.634 34.3646 182.029 34.0098 181.527 33.7559C181.423 34.8366 181.251 35.7318 181.01 36.4414C180.775 37.1445 180.456 37.7533 180.053 38.2676C179.649 38.7819 179.105 39.293 178.422 39.8008L176.625 37.9844C177.217 37.5482 177.673 37.125 177.992 36.7148C178.318 36.3047 178.568 35.7969 178.744 35.1914C178.926 34.5794 179.053 33.7721 179.125 32.7695C178.129 32.4635 177.042 32.2747 175.863 32.2031C175.538 34.625 175.007 36.4382 174.271 37.6426C173.542 38.847 172.608 39.4492 171.469 39.4492ZM169.418 34.5664C169.418 34.9049 169.506 35.2565 169.682 35.6211C169.864 35.9792 170.089 36.2786 170.355 36.5195C170.622 36.7539 170.883 36.8711 171.137 36.8711C171.638 36.8711 172.071 36.4772 172.436 35.6895C172.807 34.9017 173.096 33.7591 173.305 32.2617C172.061 32.3789 171.101 32.6361 170.424 33.0332C169.753 33.4303 169.418 33.9414 169.418 34.5664ZM195.492 35.9336C195.492 34.8008 195.447 33.8893 195.355 33.1992C194.21 33.694 193.331 34.2018 192.719 34.7227C192.107 35.237 191.801 35.7383 191.801 36.2266C191.801 36.7148 192.11 37.0892 192.729 37.3496C193.354 37.6035 194.255 37.7305 195.434 37.7305C196.957 37.7305 198.852 37.5286 201.117 37.125L201.449 39.2734C200.473 39.4427 199.424 39.5827 198.305 39.6934C197.185 39.804 196.221 39.8594 195.414 39.8594C194.125 39.8594 193.018 39.7227 192.094 39.4492C191.169 39.1823 190.463 38.7917 189.975 38.2773C189.486 37.763 189.242 37.151 189.242 36.4414C189.242 35.4583 189.714 34.5143 190.658 33.6094C191.609 32.6979 192.969 31.8743 194.74 31.1387C194.551 30.8392 194.311 30.6243 194.018 30.4941C193.725 30.3574 193.37 30.2891 192.953 30.2891C192.341 30.2891 191.768 30.4323 191.234 30.7188C190.701 30.9987 190.163 31.4479 189.623 32.0664C189.083 32.6784 188.493 33.5052 187.855 34.5469L185.746 33.3359C186.547 32.1315 187.221 31.0508 187.768 30.0938C188.321 29.1367 188.812 28.1797 189.242 27.2227H185.844V25.1719H190.092C190.313 24.5794 190.531 23.9544 190.746 23.2969L193.285 23.7266C193.109 24.2083 192.934 24.6901 192.758 25.1719H200.844V27.2227H191.898C191.605 27.8672 191.309 28.4759 191.01 29.0488C191.439 28.8535 191.885 28.707 192.348 28.6094C192.81 28.5052 193.266 28.4531 193.715 28.4531C194.516 28.4531 195.189 28.6029 195.736 28.9023C196.29 29.1953 196.739 29.6576 197.084 30.2891C198.412 29.8789 199.809 29.5273 201.273 29.2344L201.645 31.3242C200.154 31.6432 198.858 31.9785 197.758 32.3301C197.94 33.3001 198.031 34.5013 198.031 35.9336H195.492ZM205.86 30.26H211.54V32.12H205.86V30.26ZM204.88 23.82H211.34V25.84H204.88V23.82ZM204.2 27.2H213.98V29.26H204.2V27.2ZM207.16 22H209.38V28.22H207.16V22ZM212.6 22.5L214.82 23.12C213.833 25.6 212.527 27.7867 210.9 29.68C209.287 31.5733 207.44 33.1067 205.36 34.28C205.267 34.12 205.12 33.9267 204.92 33.7C204.72 33.46 204.513 33.2267 204.3 33C204.087 32.7733 203.907 32.5867 203.76 32.44C205.787 31.44 207.553 30.0867 209.06 28.38C210.58 26.6733 211.76 24.7133 212.6 22.5ZM208.06 33.12H210.32V38.54C210.32 39.0467 210.26 39.4533 210.14 39.76C210.02 40.0667 209.78 40.3 209.42 40.46C209.06 40.6067 208.64 40.7 208.16 40.74C207.693 40.78 207.14 40.8 206.5 40.8C206.46 40.4933 206.373 40.1467 206.24 39.76C206.107 39.3733 205.967 39.04 205.82 38.76C206.22 38.7733 206.607 38.78 206.98 38.78C207.353 38.78 207.6 38.78 207.72 38.78C207.867 38.7667 207.96 38.74 208 38.7C208.04 38.66 208.06 38.5867 208.06 38.48V33.12ZM211.04 30.26H211.54L211.98 30.14L213.26 31.18C212.78 31.78 212.22 32.3867 211.58 33C210.953 33.6133 210.327 34.1333 209.7 34.56C209.58 34.3733 209.4 34.16 209.16 33.92C208.933 33.68 208.74 33.4867 208.58 33.34C208.873 33.1 209.18 32.8267 209.5 32.52C209.82 32.2 210.113 31.8733 210.38 31.54C210.66 31.2067 210.88 30.9067 211.04 30.64V30.26ZM204.04 34.98C204.88 34.9133 205.84 34.84 206.92 34.76C208.013 34.68 209.16 34.5933 210.36 34.5C211.573 34.4067 212.767 34.3067 213.94 34.2V36.26C212.82 36.3667 211.68 36.4733 210.52 36.58C209.36 36.6733 208.247 36.7667 207.18 36.86C206.113 36.9533 205.147 37.0333 204.28 37.1L204.04 34.98ZM215.54 25.66H222.9V27.88H215.54V25.66ZM215.82 22L218.26 22.38C218.033 23.7 217.74 24.9933 217.38 26.26C217.02 27.5133 216.6 28.68 216.12 29.76C215.64 30.84 215.087 31.78 214.46 32.58C214.34 32.42 214.16 32.2333 213.92 32.02C213.693 31.8067 213.453 31.5933 213.2 31.38C212.947 31.1667 212.727 31 212.54 30.88C213.113 30.2 213.613 29.3933 214.04 28.46C214.467 27.5133 214.827 26.4933 215.12 25.4C215.413 24.2933 215.647 23.16 215.82 22ZM219.34 27L221.8 27.22C221.507 29.5 221.053 31.5133 220.44 33.26C219.84 34.9933 219.007 36.4867 217.94 37.74C216.873 38.9933 215.5 40.04 213.82 40.88C213.74 40.6933 213.62 40.46 213.46 40.18C213.3 39.9 213.127 39.62 212.94 39.34C212.753 39.0733 212.58 38.86 212.42 38.7C213.94 38.02 215.167 37.1533 216.1 36.1C217.047 35.0333 217.773 33.7467 218.28 32.24C218.787 30.72 219.14 28.9733 219.34 27ZM216.86 27.38C217.14 29.0733 217.527 30.6667 218.02 32.16C218.527 33.64 219.193 34.9467 220.02 36.08C220.847 37.2 221.873 38.08 223.1 38.72C222.927 38.88 222.733 39.08 222.52 39.32C222.307 39.5733 222.1 39.8267 221.9 40.08C221.713 40.3467 221.56 40.5933 221.44 40.82C220.093 40.0067 218.98 38.9667 218.1 37.7C217.233 36.42 216.533 34.94 216 33.26C215.467 31.58 215.033 29.74 214.7 27.74L216.86 27.38ZM225.16 37.9062L234.779 30.5234H225.922V28.2773H238.422V30.5234L235.15 33.1113C235.378 33.235 235.557 33.401 235.688 33.6094C235.824 33.8177 235.925 34.0391 235.99 34.2734C236.055 34.5013 236.117 34.7878 236.176 35.1328C236.26 35.5885 236.352 35.9531 236.449 36.2266C236.547 36.4935 236.716 36.7181 236.957 36.9004C237.198 37.0762 237.536 37.1641 237.973 37.1641C238.279 37.1641 238.741 37.1283 239.359 37.0566C239.978 36.9785 240.505 36.8971 240.941 36.8125L241.156 39.0391C240.577 39.1758 239.981 39.2799 239.369 39.3516C238.757 39.4297 238.214 39.4688 237.738 39.4688C236.781 39.4688 236.039 39.3125 235.512 39C234.991 38.694 234.633 38.3392 234.438 37.9355C234.242 37.5319 234.073 37.0273 233.93 36.4219C233.858 36.0768 233.793 35.8164 233.734 35.6406C233.676 35.4648 233.588 35.3249 233.471 35.2207C233.354 35.11 233.194 35.0547 232.992 35.0547C232.888 35.0547 232.787 35.0742 232.689 35.1133C232.598 35.1523 232.475 35.2305 232.318 35.3477C232.162 35.4583 231.924 35.6406 231.605 35.8945L226.684 39.7812L225.16 37.9062ZM238.012 26.7539C236.605 26.7539 234.952 26.7051 233.051 26.6074C231.15 26.5033 229.288 26.3633 227.465 26.1875L227.738 23.9023C229.639 24.0977 231.479 24.2507 233.256 24.3613C235.04 24.472 236.625 24.5273 238.012 24.5273V26.7539ZM255.258 39.4102C253.728 39.4102 252.39 39.153 251.244 38.6387C250.105 38.1243 249.226 37.3952 248.607 36.4512C247.989 35.5007 247.68 34.3906 247.68 33.1211C247.68 31.9297 247.953 30.8392 248.5 29.8496C249.053 28.8535 249.822 28.0527 250.805 27.4473L243.539 27.6133V25.3086L259.418 24.9375V27.2227L257.035 27.2812C255.792 27.3138 254.665 27.5645 253.656 28.0332C252.654 28.502 251.863 29.153 251.283 29.9863C250.704 30.8132 250.414 31.7669 250.414 32.8477C250.414 33.7266 250.606 34.4818 250.99 35.1133C251.381 35.7383 251.941 36.2168 252.67 36.5488C253.399 36.8809 254.268 37.0469 255.277 37.0469C255.661 37.0469 256.075 37.0306 256.518 36.998C256.96 36.9655 257.348 36.9167 257.68 36.8516L257.953 39.2148C257.152 39.3451 256.254 39.4102 255.258 39.4102ZM274.848 40.543C273.389 39.5013 272.11 38.6322 271.01 37.9355C269.916 37.2324 268.552 36.3893 266.918 35.4062L266.566 35.1914C265.479 34.5469 264.704 34.0586 264.242 33.7266C263.78 33.388 263.464 33.0788 263.295 32.7988C263.132 32.5189 263.051 32.1641 263.051 31.7344C263.051 31.2917 263.139 30.9238 263.314 30.6309C263.497 30.3314 263.829 30.0189 264.311 29.6934C264.792 29.3678 265.57 28.9089 266.645 28.3164C267.895 27.6328 269.193 26.8874 270.541 26.0801C271.895 25.2663 273.155 24.4622 274.32 23.668L275.727 25.7578C274.105 26.8385 271.71 28.2383 268.539 29.957L268.051 30.2305C267.452 30.5495 267.012 30.7904 266.732 30.9531C266.459 31.1159 266.264 31.2559 266.146 31.373C266.036 31.4902 265.98 31.6107 265.98 31.7344C265.98 31.8646 266.02 31.9785 266.098 32.0762C266.176 32.1738 266.335 32.3008 266.576 32.457C266.824 32.6133 267.25 32.8607 267.855 33.1992C268.806 33.7135 270.134 34.4915 271.84 35.5332C273.552 36.5749 275.043 37.5482 276.312 38.4531L274.848 40.543ZM281.137 39.6445C282.23 36.0247 283.129 32.2096 283.832 28.1992H280.863V25.9531H284.193C284.311 25.1849 284.418 24.4297 284.516 23.6875L287.074 23.8047C287.009 24.3451 286.915 25.0612 286.791 25.9531H292.914C292.549 25.3281 292.146 24.7227 291.703 24.1367L293.246 23.2383C293.643 23.7461 294.008 24.2832 294.34 24.8496C294.678 25.4095 295.017 26.0378 295.355 26.7344L293.773 27.5742L293.363 26.7734V28.1992H286.439C285.756 32.3268 284.841 36.2917 283.695 40.0938L281.137 39.6445ZM292.895 39.7422C291.729 39.7422 290.717 39.6055 289.857 39.332C288.998 39.0651 288.334 38.681 287.865 38.1797C287.403 37.6719 287.172 37.0729 287.172 36.3828C287.172 35.888 287.328 35.4095 287.641 34.9473C287.96 34.4785 288.448 33.9935 289.105 33.4922L291.254 34.4883C290.805 34.7747 290.46 35.0612 290.219 35.3477C289.984 35.6276 289.867 35.888 289.867 36.1289C289.867 36.3893 289.991 36.6172 290.238 36.8125C290.486 37.0078 290.837 37.1608 291.293 37.2715C291.749 37.3822 292.283 37.4375 292.895 37.4375C294.034 37.4375 295.251 37.3138 296.547 37.0664L296.84 39.3711C296.156 39.5013 295.502 39.5957 294.877 39.6543C294.252 39.7129 293.591 39.7422 292.895 39.7422ZM287.973 30.0938C291.039 29.8073 293.917 29.6641 296.605 29.6641V31.8906C293.767 31.8906 290.935 32.0339 288.109 32.3203L287.973 30.0938ZM296.625 26.9492C296.326 26.2526 296.026 25.6276 295.727 25.0742C295.427 24.5208 295.089 23.9805 294.711 23.4531L296.254 22.6328C296.645 23.1862 296.996 23.7493 297.309 24.3223C297.621 24.8952 297.927 25.5299 298.227 26.2266L296.625 26.9492ZM308.773 39.625C307.152 39.625 305.743 39.4329 304.545 39.0488C303.354 38.6647 302.439 38.1146 301.801 37.3984C301.163 36.6823 300.844 35.8359 300.844 34.8594C300.844 34.0456 301.078 33.2513 301.547 32.4766C302.016 31.6953 302.693 30.9661 303.578 30.2891L305.785 31.3438C305.049 31.9622 304.493 32.5612 304.115 33.1406C303.744 33.7201 303.559 34.2669 303.559 34.7812C303.559 35.5951 303.998 36.2168 304.877 36.6465C305.756 37.0697 307.035 37.2812 308.715 37.2812C309.639 37.2812 310.596 37.2227 311.586 37.1055C312.576 36.9883 313.546 36.819 314.496 36.5977L314.828 38.9414C313.78 39.1562 312.735 39.3223 311.693 39.4395C310.652 39.5632 309.678 39.625 308.773 39.625ZM300.16 26.2461L308.451 26.0508C308.347 25.25 308.272 24.4883 308.227 23.7656L310.766 23.6484C310.824 24.4818 310.906 25.2598 311.01 25.9824L315.59 25.875V28.043L311.42 28.1406C311.882 30.1458 312.602 32.1706 313.578 34.2148L310.961 34.8984C309.997 32.7891 309.278 30.5592 308.803 28.209L300.16 28.4141V26.2461ZM323.246 39.3125C322.38 39.3125 321.602 38.974 320.912 38.2969C320.229 37.6133 319.695 36.666 319.311 35.4551C318.926 34.2376 318.734 32.8607 318.734 31.3242C318.734 29.5469 319.06 27.4831 319.711 25.1328L322.25 25.4258C321.638 27.4896 321.332 29.3646 321.332 31.0508C321.332 32.0534 321.426 32.9779 321.615 33.8242C321.811 34.6641 322.071 35.3314 322.396 35.8262C322.729 36.3145 323.083 36.5586 323.461 36.5586C323.819 36.5586 324.236 36.347 324.711 35.9238C325.193 35.5007 325.661 34.944 326.117 34.2539C326.579 33.5573 326.957 32.8216 327.25 32.0469L329.535 33.2383C329.132 34.3711 328.585 35.3997 327.895 36.3242C327.204 37.2487 326.449 37.9779 325.629 38.5117C324.809 39.0456 324.014 39.3125 323.246 39.3125ZM332.426 37.4766C332.426 35.3411 332.214 33.2318 331.791 31.1484C331.374 29.0586 330.785 27.1771 330.023 25.5039L332.426 24.8203C333.266 26.5651 333.907 28.5182 334.35 30.6797C334.799 32.8346 335.023 35.1003 335.023 37.4766H332.426Z" fill="white"/>
<path d="M174.905 63.98H180.945V66.08H174.905V63.98ZM174.905 68.98H180.945V71.06H174.905V68.98ZM171.425 74.06H183.545V76.22H171.425V74.06ZM173.625 59.04H182.085V75.4H179.665V61.18H175.905V75.4H173.625V59.04ZM165.125 61.72H171.225V63.88H165.125V61.72ZM167.725 68.54L170.065 65.74V76.8H167.725V68.54ZM167.725 58.02H170.065V62.72H167.725V58.02ZM170.005 66.18C170.165 66.3 170.398 66.5 170.705 66.78C171.012 67.0467 171.338 67.34 171.685 67.66C172.032 67.98 172.345 68.28 172.625 68.56C172.918 68.8267 173.132 69.0267 173.265 69.16L171.785 71.14C171.598 70.8733 171.372 70.5733 171.105 70.24C170.852 69.9067 170.572 69.56 170.265 69.2C169.958 68.84 169.665 68.5067 169.385 68.2C169.105 67.88 168.858 67.6133 168.645 67.4L170.005 66.18ZM170.425 61.72H170.885L171.285 61.62L172.605 62.5C172.138 63.78 171.525 65.0133 170.765 66.2C170.018 67.3867 169.192 68.46 168.285 69.42C167.378 70.3667 166.445 71.1533 165.485 71.78C165.432 71.5667 165.332 71.3133 165.185 71.02C165.052 70.7133 164.912 70.4267 164.765 70.16C164.618 69.88 164.492 69.66 164.385 69.5C165.238 69.0067 166.058 68.3733 166.845 67.6C167.645 66.8267 168.352 65.9733 168.965 65.04C169.592 64.0933 170.078 63.1267 170.425 62.14V61.72ZM196.825 63.88L199.505 64.6C198.732 66.7733 197.732 68.6533 196.505 70.24C195.278 71.8133 193.818 73.14 192.125 74.22C190.432 75.3 188.512 76.1733 186.365 76.84C186.258 76.64 186.098 76.3933 185.885 76.1C185.672 75.82 185.445 75.5333 185.205 75.24C184.978 74.96 184.765 74.7333 184.565 74.56C186.698 74.0133 188.565 73.28 190.165 72.36C191.765 71.44 193.118 70.28 194.225 68.88C195.345 67.4667 196.212 65.8 196.825 63.88ZM191.445 64.02C192.058 65.7667 192.905 67.34 193.985 68.74C195.065 70.1267 196.405 71.3 198.005 72.26C199.605 73.2067 201.478 73.9067 203.625 74.36C203.438 74.5467 203.232 74.7867 203.005 75.08C202.792 75.3733 202.585 75.6667 202.385 75.96C202.198 76.2667 202.038 76.5467 201.905 76.8C199.625 76.2133 197.665 75.3733 196.025 74.28C194.385 73.1867 192.998 71.84 191.865 70.24C190.745 68.64 189.798 66.7933 189.025 64.7L191.445 64.02ZM189.925 58.36L192.585 59.3C192.092 60.1267 191.518 60.9467 190.865 61.76C190.225 62.5733 189.552 63.3333 188.845 64.04C188.138 64.7467 187.452 65.3667 186.785 65.9C186.625 65.7133 186.412 65.5 186.145 65.26C185.892 65.0067 185.625 64.76 185.345 64.52C185.078 64.2667 184.838 64.0733 184.625 63.94C185.305 63.5 185.972 62.9867 186.625 62.4C187.292 61.8 187.912 61.1533 188.485 60.46C189.058 59.7667 189.538 59.0667 189.925 58.36ZM195.845 59.7L197.945 58.24C198.572 58.7867 199.245 59.3933 199.965 60.06C200.685 60.7267 201.365 61.3933 202.005 62.06C202.645 62.7267 203.158 63.3333 203.545 63.88L201.245 65.58C200.898 65.02 200.425 64.4 199.825 63.72C199.225 63.0267 198.572 62.3267 197.865 61.62C197.172 60.9133 196.498 60.2733 195.845 59.7ZM209.665 58.9H219.725V61.06H209.665V58.9ZM208.125 71.32H222.985V73.48H208.125V71.32ZM204.725 65.04H223.545V67.26H204.725V65.04ZM218.945 58.9H221.405C221.405 58.9 221.398 58.9867 221.385 59.16C221.385 59.32 221.385 59.4933 221.385 59.68C221.385 59.8667 221.378 60.02 221.365 60.14C221.258 62.8067 221.152 65.06 221.045 66.9C220.938 68.7267 220.818 70.2267 220.685 71.4C220.565 72.56 220.425 73.4667 220.265 74.12C220.105 74.7733 219.918 75.2467 219.705 75.54C219.438 75.9533 219.158 76.24 218.865 76.4C218.572 76.5733 218.232 76.6933 217.845 76.76C217.485 76.8133 217.038 76.84 216.505 76.84C215.985 76.8533 215.452 76.8467 214.905 76.82C214.892 76.5133 214.825 76.1533 214.705 75.74C214.585 75.34 214.438 74.9933 214.265 74.7C214.772 74.7533 215.232 74.7867 215.645 74.8C216.058 74.8 216.392 74.8 216.645 74.8C216.832 74.8 216.985 74.7733 217.105 74.72C217.238 74.6533 217.365 74.54 217.485 74.38C217.658 74.18 217.818 73.76 217.965 73.12C218.112 72.48 218.238 71.58 218.345 70.42C218.465 69.2467 218.572 67.7667 218.665 65.98C218.772 64.18 218.865 62.02 218.945 59.5V58.9ZM208.325 58.9H210.865C210.745 59.9533 210.612 61.0467 210.465 62.18C210.318 63.3133 210.165 64.46 210.005 65.62C209.858 66.78 209.698 67.9133 209.525 69.02C209.352 70.1133 209.185 71.16 209.025 72.16C208.865 73.1467 208.712 74.04 208.565 74.84L206.045 74.64C206.205 73.8267 206.372 72.9267 206.545 71.94C206.732 70.94 206.905 69.8933 207.065 68.8C207.238 67.7067 207.405 66.5933 207.565 65.46C207.725 64.3267 207.865 63.2067 207.985 62.1C208.118 60.98 208.232 59.9133 208.325 58.9ZM211.965 62.72L213.365 61.28C213.765 61.4667 214.185 61.6933 214.625 61.96C215.065 62.2267 215.478 62.5 215.865 62.78C216.265 63.0467 216.592 63.3 216.845 63.54L215.365 65.14C215.138 64.8867 214.832 64.62 214.445 64.34C214.058 64.0467 213.645 63.76 213.205 63.48C212.778 63.1867 212.365 62.9333 211.965 62.72ZM211.285 68.84L212.805 67.42C213.232 67.6333 213.672 67.8933 214.125 68.2C214.592 68.4933 215.025 68.7933 215.425 69.1C215.838 69.3933 216.172 69.68 216.425 69.96L214.805 71.52C214.578 71.24 214.265 70.94 213.865 70.62C213.478 70.3 213.058 69.9867 212.605 69.68C212.152 69.36 211.712 69.08 211.285 68.84Z" fill="#F565AB"/>
<path d="M224.984 75.0977C225.824 72.8841 226.485 71.0156 226.967 69.4922C227.455 67.9688 227.882 66.3802 228.246 64.7266H224.809V62.5H228.705C228.874 61.6211 229.053 60.612 229.242 59.4727L231.742 59.7461C231.579 60.7682 231.42 61.6862 231.264 62.5H232.445C234.027 62.5 235.144 62.6237 235.795 62.8711C236.446 63.112 236.876 63.61 237.084 64.3652C237.299 65.1204 237.406 66.4128 237.406 68.2422C237.406 69.9089 237.286 71.2663 237.045 72.3145C236.811 73.3561 236.439 74.1276 235.932 74.6289C235.43 75.1237 234.776 75.3711 233.969 75.3711C233.474 75.3711 232.82 75.2832 232.006 75.1074C231.192 74.9382 230.427 74.7266 229.711 74.4727L230.258 72.3438C230.844 72.5391 231.42 72.7018 231.986 72.832C232.553 72.9622 232.973 73.0273 233.246 73.0273C233.624 73.0273 233.93 72.8613 234.164 72.5293C234.398 72.1908 234.571 71.6504 234.682 70.9082C234.792 70.166 234.848 69.1732 234.848 67.9297C234.848 66.9661 234.796 66.2695 234.691 65.8398C234.594 65.4036 234.398 65.1107 234.105 64.9609C233.819 64.8047 233.35 64.7266 232.699 64.7266H230.805C230.414 66.5169 229.952 68.2617 229.418 69.9609C228.884 71.6602 228.194 73.6198 227.348 75.8398L224.984 75.0977ZM240.082 72.6172C239.913 71.4844 239.675 70.2539 239.369 68.9258C239.07 67.5911 238.734 66.3281 238.363 65.1367L240.766 64.4922C241.143 65.7031 241.485 66.9857 241.791 68.3398C242.104 69.694 242.348 70.9766 242.523 72.1875L240.082 72.6172ZM238.305 64.1406C237.973 63.4635 237.644 62.8548 237.318 62.3145C236.999 61.7741 236.645 61.237 236.254 60.7031L237.816 59.8242C238.22 60.3385 238.581 60.8757 238.9 61.4355C239.226 61.9954 239.555 62.6367 239.887 63.3594L238.305 64.1406ZM240.961 63.125C240.661 62.4544 240.359 61.8457 240.053 61.2988C239.747 60.7454 239.405 60.1953 239.027 59.6484L240.57 58.8281C240.954 59.3685 241.303 59.9219 241.615 60.4883C241.934 61.0547 242.25 61.6927 242.562 62.4023L240.961 63.125ZM243.895 66.74H261.875V69.04H243.895V66.74ZM244.835 60.18H261.095V62.48H244.835V60.18ZM251.615 58H254.155V76.78H251.615V58ZM257.555 62.42L260.075 63.16C259.835 63.6133 259.588 64.0667 259.335 64.52C259.082 64.9733 258.835 65.4 258.595 65.8C258.355 66.2 258.128 66.5533 257.915 66.86L255.835 66.16C256.035 65.8267 256.242 65.4467 256.455 65.02C256.682 64.58 256.888 64.1333 257.075 63.68C257.275 63.2267 257.435 62.8067 257.555 62.42ZM246.175 63.28L248.315 62.46C248.568 62.82 248.808 63.2133 249.035 63.64C249.262 64.0533 249.462 64.4667 249.635 64.88C249.822 65.28 249.955 65.6467 250.035 65.98L247.735 66.9C247.668 66.5667 247.555 66.1933 247.395 65.78C247.248 65.3667 247.068 64.94 246.855 64.5C246.642 64.0467 246.415 63.64 246.175 63.28ZM251.215 67.68L253.155 68.46C252.688 69.2467 252.148 70.0133 251.535 70.76C250.935 71.4933 250.275 72.1933 249.555 72.86C248.848 73.5133 248.115 74.12 247.355 74.68C246.595 75.2267 245.822 75.6933 245.035 76.08C244.915 75.88 244.755 75.6533 244.555 75.4C244.355 75.1467 244.148 74.9 243.935 74.66C243.722 74.42 243.522 74.2267 243.335 74.08C244.108 73.7467 244.875 73.3533 245.635 72.9C246.395 72.4333 247.122 71.92 247.815 71.36C248.508 70.7867 249.142 70.1933 249.715 69.58C250.302 68.9533 250.802 68.32 251.215 67.68ZM254.635 67.7C255.035 68.34 255.515 68.9733 256.075 69.6C256.648 70.2267 257.275 70.82 257.955 71.38C258.648 71.94 259.368 72.4533 260.115 72.92C260.875 73.3867 261.635 73.78 262.395 74.1C262.222 74.26 262.022 74.46 261.795 74.7C261.582 74.94 261.375 75.1867 261.175 75.44C260.988 75.6933 260.835 75.92 260.715 76.12C259.928 75.7333 259.155 75.2667 258.395 74.72C257.648 74.1733 256.922 73.5667 256.215 72.9C255.522 72.2333 254.875 71.5267 254.275 70.78C253.675 70.0333 253.142 69.2667 252.675 68.48L254.635 67.7ZM275.883 75.4102C274.353 75.4102 273.015 75.153 271.869 74.6387C270.73 74.1243 269.851 73.3952 269.232 72.4512C268.614 71.5007 268.305 70.3906 268.305 69.1211C268.305 67.9297 268.578 66.8392 269.125 65.8496C269.678 64.8535 270.447 64.0527 271.43 63.4473L264.164 63.6133V61.3086L280.043 60.9375V63.2227L277.66 63.2812C276.417 63.3138 275.29 63.5645 274.281 64.0332C273.279 64.502 272.488 65.153 271.908 65.9863C271.329 66.8132 271.039 67.7669 271.039 68.8477C271.039 69.7266 271.231 70.4818 271.615 71.1133C272.006 71.7383 272.566 72.2168 273.295 72.5488C274.024 72.8809 274.893 73.0469 275.902 73.0469C276.286 73.0469 276.7 73.0306 277.143 72.998C277.585 72.9655 277.973 72.9167 278.305 72.8516L278.578 75.2148C277.777 75.3451 276.879 75.4102 275.883 75.4102ZM287.621 75.3125C286.755 75.3125 285.977 74.974 285.287 74.2969C284.604 73.6133 284.07 72.666 283.686 71.4551C283.301 70.2376 283.109 68.8607 283.109 67.3242C283.109 65.5469 283.435 63.4831 284.086 61.1328L286.625 61.4258C286.013 63.4896 285.707 65.3646 285.707 67.0508C285.707 68.0534 285.801 68.9779 285.99 69.8242C286.186 70.6641 286.446 71.3314 286.771 71.8262C287.104 72.3145 287.458 72.5586 287.836 72.5586C288.194 72.5586 288.611 72.347 289.086 71.9238C289.568 71.5007 290.036 70.944 290.492 70.2539C290.954 69.5573 291.332 68.8216 291.625 68.0469L293.91 69.2383C293.507 70.3711 292.96 71.3997 292.27 72.3242C291.579 73.2487 290.824 73.9779 290.004 74.5117C289.184 75.0456 288.389 75.3125 287.621 75.3125ZM296.801 73.4766C296.801 71.3411 296.589 69.2318 296.166 67.1484C295.749 65.0586 295.16 63.1771 294.398 61.5039L296.801 60.8203C297.641 62.5651 298.282 64.5182 298.725 66.6797C299.174 68.8346 299.398 71.1003 299.398 73.4766H296.801ZM307.328 75.7422C305.805 75.7422 304.63 75.446 303.803 74.8535C302.976 74.2546 302.562 73.3984 302.562 72.2852C302.562 71.1914 302.969 70.3548 303.783 69.7754C304.604 69.196 305.785 68.9062 307.328 68.9062C308.207 68.9062 309.027 69.0039 309.789 69.1992V67.3828H302.426V65.2734H309.789V63.5742H302.25V61.4062H309.789V59.6094H312.211V61.4062H317.27V63.5742H312.211V65.2734H317.074V67.3828H312.211V70.1172C312.953 70.5013 313.734 70.9961 314.555 71.6016C315.375 72.2005 316.267 72.9297 317.23 73.7891L315.629 75.4297C314.255 74.2448 313.077 73.3203 312.094 72.6562C311.879 73.6914 311.374 74.4661 310.58 74.9805C309.792 75.4883 308.708 75.7422 307.328 75.7422ZM305.102 72.2461C305.102 72.6758 305.287 73.0046 305.658 73.2324C306.029 73.4603 306.566 73.5742 307.27 73.5742C308.122 73.5742 308.754 73.4017 309.164 73.0566C309.574 72.7051 309.783 72.1615 309.789 71.4258C308.988 71.1133 308.168 70.957 307.328 70.957C305.844 70.957 305.102 71.3867 305.102 72.2461ZM323.715 73.6914C324.659 73.6458 325.528 73.5156 326.322 73.3008C327.123 73.0794 327.794 72.7962 328.334 72.4512C328.874 72.0996 329.242 71.709 329.438 71.2793C329.112 71.4811 328.744 71.6374 328.334 71.748C327.924 71.8587 327.504 71.9141 327.074 71.9141C326.247 71.9141 325.521 71.7546 324.896 71.4355C324.271 71.1165 323.786 70.6673 323.441 70.0879C323.103 69.502 322.934 68.8281 322.934 68.0664C322.934 67.3112 323.116 66.6406 323.48 66.0547C323.845 65.4688 324.353 65.013 325.004 64.6875C325.661 64.362 326.41 64.1992 327.25 64.1992C327.595 64.1992 327.911 64.235 328.197 64.3066C328.49 64.3717 328.78 64.4792 329.066 64.6289V63.457H320.18V61.4258H329.066V59.3555H331.645V61.4258H336.82V63.457H331.645V67.2266C331.983 67.8581 332.152 68.6198 332.152 69.5117C332.152 70.7812 331.837 71.8848 331.205 72.8223C330.58 73.7533 329.669 74.4824 328.471 75.0098C327.273 75.5436 325.824 75.8529 324.125 75.9375L323.715 73.6914ZM327.406 69.9805C327.777 69.9805 328.113 69.9056 328.412 69.7559C328.718 69.5996 328.959 69.3783 329.135 69.0918C329.311 68.7988 329.398 68.457 329.398 68.0664C329.398 67.4805 329.219 67.0117 328.861 66.6602C328.503 66.3086 328.031 66.1328 327.445 66.1328C326.846 66.1328 326.365 66.3086 326 66.6602C325.635 67.0117 325.453 67.4805 325.453 68.0664C325.453 68.4375 325.535 68.7695 325.697 69.0625C325.86 69.3555 326.088 69.5833 326.381 69.7461C326.68 69.9023 327.022 69.9805 327.406 69.9805Z" fill="white"/>
</g>
<defs>
<clipPath id="clip0_1712_2787">
<rect width="350" height="100" fill="white"/>
</clipPath>
<clipPath id="clip1_1712_2787">
<rect width="94.5938" height="111.673" fill="white" transform="translate(-18 4)"/>
</clipPath>
<clipPath id="clip2_1712_2787">
<rect width="83.6454" height="113.863" fill="white" transform="translate(43.6328 14.9443) rotate(3.68242)"/>
</clipPath>
<clipPath id="clip3_1712_2787">
<rect width="87.5868" height="109.921" fill="white" transform="matrix(-0.995924 0.0901949 0.0901949 0.995924 63.4512 38.2739)"/>
</clipPath>
</defs>
</svg>
