<svg width="350" height="100" viewBox="0 0 350 100" fill="none" xmlns="http://www.w3.org/2000/svg">
<g clip-path="url(#clip0_489_17816)">
<rect width="350" height="100" rx="16" fill="#FF9B70"/>
<g clip-path="url(#clip1_489_17816)">
<path d="M316.793 107.587C340.98 107.587 360.587 87.9799 360.587 63.7934C360.587 39.607 340.98 20 316.793 20C292.607 20 273 39.607 273 63.7934C273 87.9799 292.607 107.587 316.793 107.587Z" fill="#F26F3A"/>
<path d="M307.159 42.2048C307.159 42.2048 310.032 39.6409 311.976 40.2341C312.861 40.504 313.947 41.5479 313.947 41.5479" stroke="#791C0A" stroke-width="1.75174"/>
<path d="M327.085 42.2048C327.085 42.2048 324.212 39.6409 322.268 40.2341C321.383 40.504 320.297 41.5479 320.297 41.5479" stroke="#791C0A" stroke-width="1.75174"/>
<path d="M306.721 49.675C306.721 47.0249 309.169 45.0433 311.793 45.4125C313.467 45.648 315.285 45.838 316.793 45.838C318.302 45.838 320.12 45.648 321.794 45.4125C324.418 45.0433 326.866 47.0249 326.866 49.6751V49.8872C326.866 51.6581 325.744 53.2366 324.023 53.6545C322.133 54.1134 319.543 54.5967 317.012 54.5967C314.434 54.5967 311.668 54.0949 309.653 53.6285C307.891 53.2204 306.721 51.6173 306.721 49.8081V49.675Z" fill="#051042"/>
<path fill-rule="evenodd" clip-rule="evenodd" d="M322.308 54.031C320.703 54.3444 318.842 54.597 317.013 54.597C315.406 54.597 313.726 54.4021 312.2 54.1423C312.055 53.8011 311.977 53.4391 311.977 53.0642C311.977 51.0084 314.329 49.3418 317.232 49.3418C320.134 49.3418 322.487 51.0084 322.487 53.0642C322.487 53.3986 322.425 53.7227 322.308 54.031Z" fill="#EE9CC4"/>
</g>
<g clip-path="url(#clip2_489_17816)">
<path d="M238.487 124.055L217.216 72.9072L258.679 39.1661L304.574 66.5753L290.901 120.256L238.487 124.055Z" fill="#F8C811"/>
<path d="M255.083 78.3594C255.083 78.3594 256.358 76.1435 256.331 74.595C256.307 73.2721 255.313 71.3634 255.313 71.3634" stroke="#873F19" stroke-width="1.75174"/>
<path d="M275.648 71.8114C275.648 71.8114 269.199 73.7294 264.94 74.2128C261.516 74.6015 256.118 74.4471 256.118 74.4471" stroke="#873F19" stroke-width="1.75174"/>
<path d="M259.812 60.9409L261.008 67.4002" stroke="#873F19" stroke-width="1.75174"/>
<path d="M268.049 59.4658L269.244 65.9252" stroke="#873F19" stroke-width="1.75174"/>
<path d="M252.188 67.7381C252.791 67.6944 253.244 67.1701 253.201 66.567C253.157 65.9639 252.633 65.5104 252.029 65.5542C251.426 65.5979 250.973 66.1222 251.017 66.7253C251.06 67.3284 251.585 67.7818 252.188 67.7381Z" fill="#873F19"/>
<path d="M250.321 72.264C250.924 72.2203 251.377 71.6959 251.333 71.0929C251.29 70.4898 250.765 70.0363 250.162 70.08C249.559 70.1237 249.106 70.6481 249.149 71.2512C249.193 71.8542 249.718 72.3077 250.321 72.264Z" fill="#873F19"/>
<path d="M247.447 68.9598C248.05 68.9161 248.503 68.3917 248.459 67.7887C248.416 67.1856 247.891 66.7321 247.288 66.7758C246.685 66.8195 246.232 67.3439 246.275 67.947C246.319 68.55 246.843 69.0035 247.447 68.9598Z" fill="#873F19"/>
</g>
<path d="M29.4102 35.8164H26.9102V23.043H29.4102V35.8164ZM29.8789 40.4844H17.4961V34.5273H20.0156V38.4922H29.8789V40.4844ZM19.6641 24.1758C20.569 24.1758 21.3893 24.3678 22.125 24.752C22.8672 25.1361 23.4531 25.6699 23.8828 26.3535C24.3125 27.0306 24.5273 27.7956 24.5273 28.6484C24.5273 29.5143 24.3125 30.2923 23.8828 30.9824C23.4596 31.666 22.877 32.1999 22.1348 32.584C21.3926 32.9681 20.569 33.1602 19.6641 33.1602C18.7591 33.1602 17.9355 32.9681 17.1934 32.584C16.4512 32.1999 15.8652 31.666 15.4355 30.9824C15.0124 30.2923 14.8008 29.5143 14.8008 28.6484C14.8008 27.7956 15.0156 27.0306 15.4453 26.3535C15.875 25.6699 16.4577 25.1361 17.1934 24.752C17.9355 24.3678 18.7591 24.1758 19.6641 24.1758ZM19.6641 26.3438C19.2018 26.3372 18.7852 26.4284 18.4141 26.6172C18.043 26.7995 17.7533 27.0664 17.5449 27.418C17.3366 27.7695 17.2357 28.1797 17.2422 28.6484C17.2357 29.1302 17.3366 29.5501 17.5449 29.9082C17.7533 30.2598 18.0397 30.5299 18.4043 30.7188C18.7754 30.901 19.1953 30.9922 19.6641 30.9922C20.1198 30.9922 20.5267 30.901 20.8848 30.7188C21.2493 30.5299 21.5358 30.2598 21.7441 29.9082C21.959 29.5501 22.0664 29.1302 22.0664 28.6484C22.0664 28.1797 21.959 27.7695 21.7441 27.418C21.5358 27.0664 21.2493 26.7995 20.8848 26.6172C20.5202 26.4284 20.1133 26.3372 19.6641 26.3438ZM37.4961 26.1875C37.4961 26.8516 37.6133 27.4896 37.8477 28.1016C38.0885 28.707 38.4596 29.2572 38.9609 29.752C39.4622 30.2402 40.0938 30.6276 40.8555 30.9141L39.5273 32.8086C38.7917 32.5286 38.1569 32.138 37.623 31.6367C37.0892 31.1354 36.6562 30.5462 36.3242 29.8691C35.9857 30.6699 35.5299 31.373 34.957 31.9785C34.3906 32.5775 33.707 33.043 32.9062 33.375L31.5586 31.4609C32.3594 31.1094 33.0202 30.6536 33.541 30.0938C34.0684 29.5273 34.4557 28.9089 34.7031 28.2383C34.9505 27.5677 35.0742 26.8841 35.0742 26.1875V24.0977H37.4961V26.1875ZM47.0859 33.9023H44.7227V29.3906H43.2383V33.3555H40.9141V23.3555H43.2383V27.3789H44.7227V23.043H47.0859V33.9023ZM41.0117 34.1562C42.2552 34.1562 43.3392 34.2897 44.2637 34.5566C45.1947 34.8236 45.9108 35.2077 46.4121 35.709C46.9199 36.2038 47.1771 36.793 47.1836 37.4766C47.1771 38.1602 46.9199 38.7493 46.4121 39.2441C45.9108 39.7454 45.1947 40.1296 44.2637 40.3965C43.3392 40.6634 42.2552 40.7969 41.0117 40.7969C39.7617 40.7969 38.6745 40.6634 37.75 40.3965C36.8255 40.1296 36.1126 39.7454 35.6113 39.2441C35.11 38.7493 34.8594 38.1602 34.8594 37.4766C34.8594 36.793 35.11 36.2038 35.6113 35.709C36.1126 35.2077 36.8255 34.8236 37.75 34.5566C38.6745 34.2897 39.7617 34.1562 41.0117 34.1562ZM41.0117 36.0117C39.8398 36.0117 38.9349 36.1387 38.2969 36.3926C37.6654 36.64 37.3529 37.0013 37.3594 37.4766C37.3529 37.9518 37.6654 38.3132 38.2969 38.5605C38.9284 38.8014 39.8333 38.9219 41.0117 38.9219C42.1771 38.9219 43.0755 38.8014 43.707 38.5605C44.3451 38.3132 44.6641 37.9518 44.6641 37.4766C44.6641 37.0013 44.3451 36.64 43.707 36.3926C43.0755 36.1387 42.1771 36.0117 41.0117 36.0117Z" fill="#FFD900"/>
<path d="M51.168 43.1211H49.0977L50.0742 37.5547H52.8477L51.168 43.1211ZM95.4453 43.1211H93.375L94.3516 37.5547H97.125L95.4453 43.1211ZM144.566 39.1758C144.267 39.1758 143.99 39.1009 143.736 38.9512C143.482 38.8014 143.281 38.6029 143.131 38.3555C142.988 38.1016 142.919 37.8281 142.926 37.5352C142.919 37.2422 142.988 36.972 143.131 36.7246C143.281 36.4772 143.482 36.2819 143.736 36.1387C143.99 35.9889 144.267 35.9141 144.566 35.9141C144.846 35.9141 145.11 35.9889 145.357 36.1387C145.611 36.2819 145.813 36.4772 145.963 36.7246C146.113 36.972 146.188 37.2422 146.188 37.5352C146.188 37.8281 146.113 38.1016 145.963 38.3555C145.813 38.6029 145.611 38.8014 145.357 38.9512C145.11 39.1009 144.846 39.1758 144.566 39.1758ZM150.211 39.1758C149.911 39.1758 149.635 39.1009 149.381 38.9512C149.127 38.8014 148.925 38.6029 148.775 38.3555C148.632 38.1016 148.564 37.8281 148.57 37.5352C148.564 37.2422 148.632 36.972 148.775 36.7246C148.925 36.4772 149.127 36.2819 149.381 36.1387C149.635 35.9889 149.911 35.9141 150.211 35.9141C150.491 35.9141 150.755 35.9889 151.002 36.1387C151.256 36.2819 151.458 36.4772 151.607 36.7246C151.757 36.972 151.832 37.2422 151.832 37.5352C151.832 37.8281 151.757 38.1016 151.607 38.3555C151.458 38.6029 151.256 38.8014 151.002 38.9512C150.755 39.1009 150.491 39.1758 150.211 39.1758ZM172.164 26.2461C172.164 27.2552 172.151 28.1374 172.125 28.8926C172.105 29.6413 172.04 30.5137 171.93 31.5098C171.826 32.4993 171.663 33.5768 171.441 34.7422L168.941 34.4883C169.241 33.0039 169.433 31.6693 169.518 30.4844C169.602 29.2995 169.651 27.9844 169.664 26.5391H159.195V24.5664H172.164V26.2461ZM173.727 38.6289H157.516V36.5977H163.316V30.4844H165.797V36.5977H173.727V38.6289ZM184.391 33.0234H175.699V24.4492H184.391V33.0234ZM178.16 31.0508H181.91V26.4219H178.16V31.0508ZM189.684 35.6797H187.184V23.043H189.684V35.6797ZM190.152 40.4062H177.77V34.5078H180.289V38.3945H190.152V40.4062ZM206.969 40.8359H204.449V23.0234H206.969V40.8359ZM197.32 24.2734C198.212 24.2734 199.01 24.5339 199.713 25.0547C200.423 25.5755 200.979 26.3145 201.383 27.2715C201.786 28.2285 201.988 29.3385 201.988 30.6016C201.988 31.8776 201.786 32.9974 201.383 33.9609C200.979 34.918 200.423 35.6569 199.713 36.1777C199.01 36.6921 198.212 36.9492 197.32 36.9492C196.409 36.9492 195.595 36.6921 194.879 36.1777C194.163 35.6569 193.603 34.918 193.199 33.9609C192.802 32.9974 192.607 31.8776 192.613 30.6016C192.607 29.3385 192.802 28.2285 193.199 27.2715C193.603 26.3145 194.163 25.5755 194.879 25.0547C195.595 24.5339 196.409 24.2734 197.32 24.2734ZM197.32 26.5195C196.858 26.5195 196.451 26.679 196.1 26.998C195.755 27.3105 195.488 27.7728 195.299 28.3848C195.11 28.9967 195.016 29.7357 195.016 30.6016C195.016 31.474 195.11 32.2161 195.299 32.8281C195.488 33.4401 195.755 33.9023 196.1 34.2148C196.451 34.5273 196.858 34.6836 197.32 34.6836C197.776 34.6836 198.173 34.5273 198.512 34.2148C198.85 33.8958 199.114 33.4303 199.303 32.8184C199.492 32.2064 199.586 31.4674 199.586 30.6016C199.586 29.7422 199.492 29.0065 199.303 28.3945C199.114 27.776 198.847 27.3105 198.502 26.998C198.163 26.679 197.77 26.5195 197.32 26.5195ZM228.082 26.7539H230.484V28.8047H228.082V31.8906H225.582V23.0234H228.082V26.7539ZM223.043 31.5391H214.508V24.1367H223.043V31.5391ZM216.969 29.5859H220.582V26.0703H216.969V29.5859ZM218.004 38.2969C219.052 38.2318 219.996 38.0625 220.836 37.7891L221.188 39.7227C220.497 39.9701 219.801 40.1328 219.098 40.2109C218.401 40.2891 217.555 40.3281 216.559 40.3281H215.582V33.375H218.004V38.2969ZM229.527 35.3477H220.582V33.5508H223.863V32.2617H226.285V33.5508H229.527V35.3477ZM225.035 35.7969C225.712 35.7969 226.311 35.8978 226.832 36.0996C227.353 36.3014 227.76 36.5911 228.053 36.9688C228.346 37.3464 228.492 37.7891 228.492 38.2969C228.492 38.7982 228.346 39.2344 228.053 39.6055C227.76 39.9831 227.353 40.2728 226.832 40.4746C226.311 40.6764 225.712 40.7773 225.035 40.7773C224.352 40.7773 223.749 40.6764 223.229 40.4746C222.714 40.2728 222.314 39.9831 222.027 39.6055C221.747 39.2344 221.611 38.7982 221.617 38.2969C221.611 37.7891 221.747 37.3464 222.027 36.9688C222.314 36.5911 222.714 36.3014 223.229 36.0996C223.749 35.8978 224.352 35.7969 225.035 35.7969ZM225.035 37.4766C224.671 37.4766 224.374 37.5482 224.146 37.6914C223.925 37.8281 223.818 38.0299 223.824 38.2969C223.818 38.5638 223.925 38.7689 224.146 38.9121C224.374 39.0488 224.671 39.1172 225.035 39.1172C225.4 39.1172 225.696 39.0488 225.924 38.9121C226.152 38.7689 226.266 38.5638 226.266 38.2969C226.266 38.0299 226.152 37.8281 225.924 37.6914C225.696 37.5482 225.4 37.4766 225.035 37.4766ZM238.16 27.8672C238.16 28.8503 238.326 29.8171 238.658 30.7676C238.997 31.7116 239.501 32.5612 240.172 33.3164C240.842 34.0716 241.656 34.651 242.613 35.0547L241.266 37.0078C240.243 36.5781 239.368 35.9466 238.639 35.1133C237.91 34.2799 237.337 33.3066 236.92 32.1934C236.51 33.4043 235.934 34.4688 235.191 35.3867C234.449 36.2982 233.57 36.9883 232.555 37.457L231.129 35.4844C232.079 35.0612 232.89 34.446 233.561 33.6387C234.238 32.8314 234.745 31.9264 235.084 30.9238C235.429 29.9147 235.602 28.8958 235.602 27.8672V26.7734H231.832V24.7422H241.871V26.7734H238.16V27.8672ZM246.148 40.7969H243.629V23.0234H246.148V40.7969ZM251.656 34.5469C251.663 33.7656 251.734 33.1341 251.871 32.6523C252.008 32.1641 252.203 31.7734 252.457 31.4805C252.717 31.1875 253.062 30.9076 253.492 30.6406C253.967 30.3281 254.332 30.0124 254.586 29.6934C254.846 29.3743 254.977 29.0065 254.977 28.5898C254.977 28.2708 254.902 27.9909 254.752 27.75C254.602 27.5026 254.397 27.3105 254.137 27.1738C253.876 27.0371 253.59 26.9688 253.277 26.9688C252.965 26.9688 252.672 27.0371 252.398 27.1738C252.132 27.3105 251.913 27.5124 251.744 27.7793C251.581 28.0397 251.493 28.3555 251.48 28.7266H248.707C248.727 27.8411 248.938 27.0957 249.342 26.4902C249.752 25.8783 250.299 25.4225 250.982 25.123C251.673 24.8171 252.444 24.6641 253.297 24.6641C254.202 24.6641 255.006 24.8171 255.709 25.123C256.412 25.429 256.959 25.8717 257.35 26.4512C257.747 27.0241 257.945 27.7044 257.945 28.4922C257.945 29.2604 257.763 29.918 257.398 30.4648C257.04 31.0117 256.52 31.487 255.836 31.8906C255.452 32.125 255.146 32.3594 254.918 32.5938C254.697 32.8216 254.527 33.0918 254.41 33.4043C254.299 33.7168 254.241 34.0977 254.234 34.5469V34.7617H251.656V34.5469ZM253.004 39.1758C252.704 39.1758 252.428 39.1009 252.174 38.9512C251.92 38.8014 251.718 38.6029 251.568 38.3555C251.425 38.1016 251.357 37.8281 251.363 37.5352C251.357 37.2422 251.425 36.972 251.568 36.7246C251.718 36.4772 251.92 36.2819 252.174 36.1387C252.428 35.9889 252.704 35.9141 253.004 35.9141C253.284 35.9141 253.548 35.9889 253.795 36.1387C254.049 36.2819 254.251 36.4772 254.4 36.7246C254.55 36.972 254.625 37.2422 254.625 37.5352C254.625 37.8281 254.55 38.1016 254.4 38.3555C254.251 38.6029 254.049 38.8014 253.795 38.9512C253.548 39.1009 253.284 39.1758 253.004 39.1758Z" fill="white"/>
<path d="M65.3477 27.0469C65.3411 28.1341 65.4941 29.1888 65.8066 30.2109C66.1191 31.2266 66.5911 32.138 67.2227 32.9453C67.8542 33.7526 68.6289 34.3776 69.5469 34.8203L68.043 36.8125C67.1185 36.3568 66.3275 35.7155 65.6699 34.8887C65.0189 34.0618 64.5013 33.0918 64.1172 31.9785C63.7201 33.1634 63.1699 34.2018 62.4668 35.0938C61.7702 35.9792 60.9336 36.6628 59.957 37.1445L58.4141 35.1328C59.3841 34.6901 60.2012 34.0488 60.8652 33.209C61.5293 32.3626 62.0241 31.4089 62.3496 30.3477C62.6816 29.2799 62.8477 28.1797 62.8477 27.0469V24.3906H65.3477V27.0469ZM72.8281 29.8789H75.4453V31.9883H72.8281V40.7969H70.3281V23.0234H72.8281V29.8789ZM90.1914 27.1836H92.5938V29.2344H90.1914V33.6875H87.6914V23.043H90.1914V27.1836ZM84.8789 29.3906H79.2148V30.9531C80.7448 30.9401 82.0501 30.8978 83.1309 30.8262C84.2181 30.748 85.3086 30.6146 86.4023 30.4258L86.6758 32.418C85.4583 32.6393 84.2246 32.7891 82.9746 32.8672C81.7311 32.9453 80.1523 32.9844 78.2383 32.9844H76.7344V27.5156H82.457V26.0508H76.7148V24.0977H84.8789V29.3906ZM84.332 34.0391C85.556 34.0391 86.6204 34.1758 87.5254 34.4492C88.4368 34.7227 89.1367 35.1165 89.625 35.6309C90.1198 36.1452 90.3672 36.7539 90.3672 37.457C90.3672 38.1536 90.1198 38.7493 89.625 39.2441C89.1367 39.7454 88.4401 40.1263 87.5352 40.3867C86.6302 40.6471 85.5625 40.7773 84.332 40.7773C83.0755 40.7773 81.9883 40.6471 81.0703 40.3867C80.1589 40.1263 79.459 39.7454 78.9707 39.2441C78.4824 38.7493 78.2383 38.1536 78.2383 37.457C78.2383 36.7539 78.4824 36.1452 78.9707 35.6309C79.4655 35.1165 80.1686 34.7227 81.0801 34.4492C81.998 34.1758 83.082 34.0391 84.332 34.0391ZM84.332 35.9727C83.1406 35.9727 82.2357 36.0964 81.6172 36.3438C80.9987 36.5911 80.6927 36.9622 80.6992 37.457C80.6927 37.9323 80.9987 38.2969 81.6172 38.5508C82.2422 38.7982 83.1471 38.9219 84.332 38.9219C85.5039 38.9219 86.3926 38.7982 86.998 38.5508C87.6035 38.3034 87.9062 37.9388 87.9062 37.457C87.9062 36.4674 86.7148 35.9727 84.332 35.9727Z" fill="#F50087"/>
<path d="M110.016 26.5391C110.016 27.2747 110.169 27.9844 110.475 28.668C110.787 29.3451 111.259 29.9538 111.891 30.4941C112.529 31.028 113.316 31.4349 114.254 31.7148L112.984 33.668C112.014 33.362 111.174 32.9062 110.465 32.3008C109.755 31.6953 109.195 30.9792 108.785 30.1523C108.368 31.0508 107.796 31.832 107.066 32.4961C106.337 33.1602 105.465 33.6615 104.449 34L103.16 32.0469C104.111 31.7409 104.908 31.3014 105.553 30.7285C106.197 30.1556 106.679 29.5078 106.998 28.7852C107.317 28.0625 107.477 27.3138 107.477 26.5391V26.2852H103.824V24.293H113.59V26.2852H110.016V26.5391ZM117.965 35.8945H115.465V23.043H117.965V35.8945ZM118.434 40.4844H106.051V34.7227H108.57V38.4922H118.434V40.4844ZM136.637 38.8242H120.367V36.7734H127.223V34.0977H122.242V28.1211H132.301V26.168H122.223V24.1758H134.762V30.0742H124.742V32.0664H135.172V34.0977H129.703V36.7734H136.637V38.8242Z" fill="#5B9037"/>
<path d="M50.3281 59.7656C51.2266 59.7591 52.0306 59.9154 52.7402 60.2344C53.4499 60.5469 54.0065 60.9928 54.4102 61.5723C54.8138 62.1452 55.0156 62.7995 55.0156 63.5352C55.0156 64.2643 54.8138 64.9186 54.4102 65.498C54.0065 66.071 53.4466 66.5169 52.7305 66.8359C52.0208 67.1549 51.2201 67.3112 50.3281 67.3047C49.4297 67.3112 48.6257 67.1549 47.916 66.8359C47.2064 66.5169 46.6497 66.071 46.2461 65.498C45.849 64.9186 45.6536 64.2643 45.6602 63.5352C45.6536 62.7995 45.849 62.1452 46.2461 61.5723C46.6497 60.9928 47.2064 60.5469 47.916 60.2344C48.6257 59.9154 49.4297 59.7591 50.3281 59.7656ZM50.3281 61.7578C49.651 61.7578 49.1042 61.9173 48.6875 62.2363C48.2708 62.5488 48.0625 62.9818 48.0625 63.5352C48.0625 64.082 48.2708 64.5117 48.6875 64.8242C49.1042 65.1367 49.651 65.2865 50.3281 65.2734C51.0247 65.2865 51.5846 65.1367 52.0078 64.8242C52.4375 64.5117 52.6523 64.082 52.6523 63.5352C52.6523 62.9818 52.4375 62.5488 52.0078 62.2363C51.5846 61.9173 51.0247 61.7578 50.3281 61.7578ZM59.5078 76.7969H57.0469V59.043H59.5078V76.7969ZM44.5664 68.3984C49.293 68.3984 53.0951 68.1836 55.9727 67.7539L56.1289 69.5898C54.7812 69.8568 53.2969 70.0553 51.6758 70.1855V76.2695H49.1953V70.332C48.0495 70.3841 46.8451 70.4102 45.582 70.4102C45.4258 70.4232 45.1914 70.4297 44.8789 70.4297L44.5664 68.3984ZM78.082 74.6484H61.8125V72.6172H78.082V74.6484ZM66.0312 63.1055H73.7852V60.1562H76.2656V69.6484H63.5312V60.1562H66.0312V63.1055ZM73.7852 67.6953V65.0391H66.0312V67.6953H73.7852ZM94.5078 76.7969H92.125V59.0234H94.5078V76.7969ZM90.7969 75.9766H88.4531V67.5781H87.0176C86.946 68.737 86.7376 69.7363 86.3926 70.5762C86.054 71.416 85.6048 72.0605 85.0449 72.5098C84.485 72.959 83.8438 73.1836 83.1211 73.1836C82.3464 73.1836 81.666 72.9232 81.0801 72.4023C80.5007 71.8815 80.0514 71.1361 79.7324 70.166C79.4134 69.1895 79.2539 68.0404 79.2539 66.7188C79.2539 65.4036 79.4134 64.2643 79.7324 63.3008C80.0514 62.3307 80.5007 61.5885 81.0801 61.0742C81.666 60.5534 82.3464 60.293 83.1211 60.293C83.8307 60.293 84.459 60.5046 85.0059 60.9277C85.5592 61.3509 86.0052 61.9629 86.3438 62.7637C86.6888 63.5579 86.9069 64.5052 86.998 65.6055H88.4531V59.2773H90.7969V75.9766ZM83.1211 62.6367C82.6133 62.6367 82.2227 62.9818 81.9492 63.6719C81.6823 64.362 81.5521 65.3776 81.5586 66.7188C81.5521 68.0664 81.6823 69.0853 81.9492 69.7754C82.2227 70.459 82.6133 70.7943 83.1211 70.7812C83.6354 70.7943 84.0326 70.459 84.3125 69.7754C84.599 69.0853 84.7422 68.0664 84.7422 66.7188C84.7422 65.3776 84.599 64.362 84.3125 63.6719C84.0326 62.9818 83.6354 62.6367 83.1211 62.6367ZM103.102 63.0469C103.102 64.1927 103.258 65.2865 103.57 66.3281C103.889 67.3633 104.371 68.2845 105.016 69.0918C105.66 69.8926 106.461 70.5013 107.418 70.918L105.895 72.9102C104.938 72.4414 104.12 71.7871 103.443 70.9473C102.773 70.1009 102.245 69.1146 101.861 67.9883C101.464 69.1927 100.914 70.2441 100.211 71.1426C99.5143 72.041 98.6745 72.7344 97.6914 73.2227L96.1289 71.1914C97.1055 70.7552 97.9258 70.1139 98.5898 69.2676C99.2539 68.4212 99.7487 67.4609 100.074 66.3867C100.406 65.3125 100.576 64.1992 100.582 63.0469V60.3906H103.102V63.0469ZM111.383 76.8359H108.922V66.6211H105.426V64.6094H108.922V59.0234H111.383V76.8359ZM134.488 68.0469H127.613V69.1797H132.516V73.7305H122.613V74.8047H132.984V76.6797H120.172V71.9727H130.055V71.0547H120.152V69.1797H125.113V68.0469H118.277V66.0742H134.488V68.0469ZM132.438 65.1367H120.289V59.5312H132.438V65.1367ZM122.73 63.2227H129.957V61.4648H122.73V63.2227ZM140.465 60.2734C141.259 60.2734 141.979 60.485 142.623 60.9082C143.268 61.3249 143.795 61.9238 144.205 62.7051C144.622 63.4798 144.889 64.3945 145.006 65.4492H148.102V59.0234H150.562V76.8359H148.102V67.4414H145.035C144.951 68.5677 144.703 69.5475 144.293 70.3809C143.883 71.2077 143.349 71.8424 142.691 72.2852C142.034 72.7279 141.292 72.9492 140.465 72.9492C139.566 72.9492 138.766 72.6921 138.062 72.1777C137.366 71.6569 136.822 70.918 136.432 69.9609C136.041 68.9974 135.849 67.8776 135.855 66.6016C135.849 65.332 136.041 64.222 136.432 63.2715C136.822 62.3145 137.366 61.5755 138.062 61.0547C138.766 60.5339 139.566 60.2734 140.465 60.2734ZM140.465 62.5195C140.022 62.5195 139.632 62.679 139.293 62.998C138.954 63.3105 138.691 63.776 138.502 64.3945C138.32 65.0065 138.232 65.7422 138.238 66.6016C138.232 67.4674 138.32 68.2064 138.502 68.8184C138.691 69.4303 138.951 69.8958 139.283 70.2148C139.622 70.5273 140.016 70.6836 140.465 70.6836C140.914 70.6836 141.305 70.5273 141.637 70.2148C141.975 69.9023 142.236 69.4401 142.418 68.8281C142.6 68.2161 142.691 67.474 142.691 66.6016C142.691 65.7357 142.6 64.9967 142.418 64.3848C142.236 63.7728 141.975 63.3105 141.637 62.998C141.305 62.679 140.914 62.5195 140.465 62.5195ZM156.168 62.6562H160.25V60.4297H162.75V68.6133H159.488V71.3086C161.025 71.2305 162.372 71.1133 163.531 70.957L163.707 72.7734C162.066 73.0664 160.393 73.2552 158.688 73.3398C156.988 73.418 155.081 73.457 152.965 73.457L152.633 71.4258H153.727L157.008 71.3867V68.6133H153.727V60.4297H156.168V62.6562ZM160.25 66.6602V64.5508H156.168V66.6602H160.25ZM166.969 66.1328H169.391V68.2031H166.969V76.7969H164.469V59.0234H166.969V66.1328ZM178.531 70.7617H176.031L175.777 60.8594H178.785L178.531 70.7617ZM177.301 75.1758C177.001 75.1758 176.725 75.1009 176.471 74.9512C176.217 74.8014 176.015 74.6029 175.865 74.3555C175.722 74.1016 175.654 73.8281 175.66 73.5352C175.654 73.2422 175.722 72.972 175.865 72.7246C176.015 72.4772 176.217 72.2819 176.471 72.1387C176.725 71.9889 177.001 71.9141 177.301 71.9141C177.581 71.9141 177.844 71.9889 178.092 72.1387C178.346 72.2819 178.548 72.4772 178.697 72.7246C178.847 72.972 178.922 73.2422 178.922 73.5352C178.922 73.8281 178.847 74.1016 178.697 74.3555C178.548 74.6029 178.346 74.8014 178.092 74.9512C177.844 75.1009 177.581 75.1758 177.301 75.1758Z" fill="white"/>
</g>
<defs>
<clipPath id="clip0_489_17816">
<rect width="350" height="100" rx="16" fill="white"/>
</clipPath>
<clipPath id="clip1_489_17816">
<rect width="87.5868" height="107.732" fill="white" transform="translate(273 20)"/>
</clipPath>
<clipPath id="clip2_489_17816">
<rect width="87.5868" height="103.352" fill="white" transform="translate(215 42.332) rotate(-4.1457)"/>
</clipPath>
</defs>
</svg>
